<svg width="1018" height="869" viewBox="0 0 1018 869" fill="none" xmlns="http://www.w3.org/2000/svg">
<path d="M715.41 499.618C715.41 578.565 651.426 642.564 572.5 642.564C493.573 642.564 429.59 578.565 429.59 499.618C429.59 420.671 493.573 356.672 572.5 356.672C651.426 356.672 715.41 420.671 715.41 499.618Z" fill="url(#paint0_radial_3694_52388)" fill-opacity="0.2" stroke="#333333" stroke-width="2"/>
<path d="M818.274 499.864C818.274 635.773 708.236 745.947 572.5 745.947C436.764 745.947 326.727 635.773 326.727 499.864C326.727 363.955 436.764 253.781 572.5 253.781C708.236 253.781 818.274 363.955 818.274 499.864Z" fill="url(#paint1_radial_3694_52388)" fill-opacity="0.2" stroke="#333333" stroke-width="2"/>
<path d="M921.631 499.863C921.631 692.595 765.43 848.835 572.747 848.835C380.064 848.835 223.863 692.595 223.863 499.863C223.863 307.13 380.064 150.891 572.747 150.891C765.43 150.891 921.631 307.13 921.631 499.863Z" fill="url(#paint2_radial_3694_52388)" fill-opacity="0.2" stroke="#333333" stroke-width="2"/>
<path d="M1024.11 499.617C1024.11 748.973 821.92 951.117 572.501 951.117C323.081 951.117 120.887 748.973 120.887 499.617C120.887 250.261 323.081 48.1172 572.501 48.1172C821.92 48.1172 1024.11 250.261 1024.11 499.617Z" fill="url(#paint3_radial_3694_52388)" fill-opacity="0.2" stroke="#333333" stroke-width="2"/>
<line x1="120.053" y1="498.617" x2="1024.95" y2="498.617" stroke="#333333" stroke-width="2"/>
<line x1="573.256" y1="47.2109" x2="573.256" y2="953.004" stroke="#333333" stroke-width="2"/>
<rect y="701" width="192" height="32" rx="16" fill="#222222"/>
<path d="M20.9682 712.197H22.6088V722H20.9682V712.197ZM27.1998 712.197H28.6285L33.2633 718.835V712.197H34.9176V722H33.5025L28.8404 715.362V722H27.1998V712.197ZM39.5018 712.197H45.285V713.77H41.1424V716.299H44.8338V717.871H41.1424V722H39.5018V712.197ZM56.9307 722H54.9414L52.5078 718.069H51.0654V722H49.4248V712.197H53.1094C53.9343 712.197 54.6406 712.48 55.2285 713.045C55.821 713.605 56.1172 714.294 56.1172 715.109C56.1172 715.784 55.9509 716.367 55.6182 716.859C55.29 717.347 54.8366 717.689 54.2578 717.885L56.9307 722ZM51.0654 713.783V716.497H53.0547C53.4603 716.497 53.7953 716.367 54.0596 716.107C54.3285 715.843 54.4629 715.51 54.4629 715.109C54.4629 714.722 54.3285 714.405 54.0596 714.159C53.7953 713.909 53.4603 713.783 53.0547 713.783H51.0654ZM67.5852 722L66.8264 720.038H62.6838L61.9113 722H60.175L64.0852 712.197H65.4592L69.3625 722H67.5852ZM63.2854 718.473H66.2111L64.7551 714.72L63.2854 718.473ZM76.3734 712.061C76.9978 712.061 77.6244 712.195 78.2533 712.464C78.8822 712.728 79.3653 713.061 79.7025 713.462L78.7523 714.733C78.4242 714.396 78.0346 714.13 77.5834 713.934C77.1368 713.738 76.6925 713.64 76.2504 713.64C75.7992 713.64 75.4301 713.742 75.143 713.947C74.8604 714.152 74.7191 714.419 74.7191 714.747C74.7191 714.97 74.7784 715.166 74.8969 715.335C75.0154 715.499 75.1749 715.636 75.3754 715.745C75.5805 715.85 75.8129 715.946 76.0727 716.032C76.3324 716.119 76.6059 716.203 76.893 716.285C77.1846 716.367 77.474 716.456 77.7611 716.552C78.0528 716.647 78.3285 716.768 78.5883 716.914C78.8481 717.06 79.0782 717.229 79.2787 717.42C79.4838 717.611 79.6456 717.857 79.7641 718.158C79.8826 718.454 79.9418 718.792 79.9418 719.17C79.9418 719.562 79.8598 719.938 79.6957 720.298C79.5362 720.653 79.3083 720.968 79.0121 721.241C78.7204 721.515 78.3513 721.733 77.9047 721.897C77.4581 722.057 76.9704 722.137 76.4418 722.137C75.7126 722.137 74.9926 721.979 74.2816 721.665C73.5753 721.351 73.0033 720.95 72.5658 720.462L73.6186 719.259C74.0469 719.669 74.4844 719.988 74.9311 720.216C75.3822 720.444 75.8858 720.558 76.4418 720.558C76.9841 720.558 77.4216 720.432 77.7543 720.182C78.0915 719.926 78.2602 719.594 78.2602 719.184C78.2602 718.969 78.2009 718.783 78.0824 718.623C77.9639 718.464 77.8044 718.334 77.6039 718.233C77.4034 718.133 77.1732 718.042 76.9135 717.96C76.6537 717.878 76.3803 717.8 76.0932 717.728C75.8061 717.65 75.519 717.566 75.2318 717.475C74.9493 717.383 74.6781 717.267 74.4184 717.126C74.1586 716.985 73.9285 716.818 73.7279 716.627C73.5274 716.436 73.3679 716.192 73.2494 715.896C73.1309 715.599 73.0717 715.26 73.0717 714.877C73.0717 714.075 73.3816 713.405 74.0014 712.867C74.6212 712.329 75.4119 712.061 76.3734 712.061ZM90.8971 712.197V713.77H87.8893V722H86.2555V713.77H83.2408V712.197H90.8971ZM102.447 722H100.458L98.0242 718.069H96.5818V722H94.9412V712.197H98.6258C99.4507 712.197 100.157 712.48 100.745 713.045C101.337 713.605 101.634 714.294 101.634 715.109C101.634 715.784 101.467 716.367 101.135 716.859C100.806 717.347 100.353 717.689 99.7742 717.885L102.447 722ZM96.5818 713.783V716.497H98.5711C98.9767 716.497 99.3117 716.367 99.576 716.107C99.8449 715.843 99.9793 715.51 99.9793 715.109C99.9793 714.722 99.8449 714.405 99.576 714.159C99.3117 713.909 98.9767 713.783 98.5711 713.783H96.5818ZM112.486 721.029C111.766 721.758 110.855 722.123 109.752 722.123C108.649 722.123 107.735 721.758 107.011 721.029C106.291 720.296 105.931 719.373 105.931 718.261V712.197H107.571V718.261C107.571 718.912 107.779 719.457 108.193 719.895C108.613 720.327 109.132 720.544 109.752 720.544C110.376 720.544 110.896 720.325 111.311 719.888C111.73 719.45 111.939 718.908 111.939 718.261V712.197H113.573V718.261C113.573 719.373 113.211 720.296 112.486 721.029ZM126.996 719.491C126.741 720.275 126.222 720.913 125.438 721.405C124.654 721.893 123.761 722.137 122.758 722.137C122.061 722.137 121.407 722.007 120.796 721.747C120.185 721.487 119.664 721.134 119.231 720.688C118.798 720.236 118.456 719.701 118.205 719.081C117.955 718.457 117.829 717.791 117.829 717.085C117.829 716.383 117.955 715.722 118.205 715.103C118.456 714.483 118.798 713.95 119.231 713.503C119.664 713.056 120.185 712.705 120.796 712.45C121.407 712.19 122.061 712.061 122.758 712.061C123.724 712.061 124.588 712.286 125.349 712.737C126.114 713.188 126.632 713.774 126.901 714.494L125.431 715.212C125.221 714.738 124.875 714.36 124.392 714.077C123.913 713.795 123.369 713.653 122.758 713.653C121.81 713.653 121.033 713.977 120.427 714.624C119.825 715.271 119.525 716.091 119.525 717.085C119.525 718.078 119.825 718.903 120.427 719.56C121.033 720.216 121.81 720.544 122.758 720.544C123.414 720.544 123.991 720.389 124.488 720.079C124.984 719.769 125.326 719.35 125.513 718.821L126.996 719.491ZM137.945 712.197V713.77H134.937V722H133.303V713.77H130.288V712.197H137.945ZM148.545 721.029C147.824 721.758 146.913 722.123 145.81 722.123C144.707 722.123 143.794 721.758 143.069 721.029C142.349 720.296 141.989 719.373 141.989 718.261V712.197H143.63V718.261C143.63 718.912 143.837 719.457 144.252 719.895C144.671 720.327 145.19 720.544 145.81 720.544C146.435 720.544 146.954 720.325 147.369 719.888C147.788 719.45 147.998 718.908 147.998 718.261V712.197H149.631V718.261C149.631 719.373 149.269 720.296 148.545 721.029ZM161.728 722H159.739L157.305 718.069H155.863V722H154.222V712.197H157.907C158.732 712.197 159.438 712.48 160.026 713.045C160.619 713.605 160.915 714.294 160.915 715.109C160.915 715.784 160.749 716.367 160.416 716.859C160.088 717.347 159.634 717.689 159.055 717.885L161.728 722ZM155.863 713.783V716.497H157.852C158.258 716.497 158.593 716.367 158.857 716.107C159.126 715.843 159.261 715.51 159.261 715.109C159.261 714.722 159.126 714.405 158.857 714.159C158.593 713.909 158.258 713.783 157.852 713.783H155.863ZM165.581 712.197H171.364V713.77H167.222V716.08H170.913V717.646H167.222V720.435H171.364V722H165.581V712.197Z" fill="#595959"/>
<rect x="35.5" y="134" width="291" height="32" rx="16" fill="#222222"/>
<path d="M56.8748 145.197H58.5154V153.435H63.2049V155H56.8748V145.197ZM73.9551 155L73.1963 153.038H69.0537L68.2812 155H66.5449L70.4551 145.197H71.8291L75.7324 155H73.9551ZM69.6553 151.473H72.5811L71.125 147.72L69.6553 151.473ZM79.551 145.197H80.9797L85.6145 151.835V145.197H87.2687V155H85.8537L81.1916 148.362V155H79.551V145.197ZM96.5287 150.994V149.429H100.507V153.291C100.061 153.87 99.4887 154.321 98.7914 154.645C98.0941 154.964 97.3171 155.123 96.4604 155.123C95.5398 155.123 94.7012 154.9 93.9447 154.453C93.1882 154.007 92.5935 153.396 92.1605 152.621C91.7322 151.846 91.518 150.992 91.518 150.058C91.518 149.123 91.7322 148.276 92.1605 147.515C92.5889 146.749 93.1791 146.15 93.9311 145.717C94.6876 145.279 95.5261 145.061 96.4467 145.061C97.4128 145.061 98.2764 145.286 99.0375 145.737C99.8031 146.188 100.316 146.774 100.576 147.494L99.1195 148.212C98.9008 147.738 98.5521 147.36 98.0736 147.077C97.5997 146.795 97.0574 146.653 96.4467 146.653C95.5033 146.653 94.7286 146.972 94.1225 147.61C93.5163 148.244 93.2133 149.06 93.2133 150.058C93.2133 151.069 93.5186 151.903 94.1293 152.56C94.7445 153.216 95.5215 153.544 96.4604 153.544C97.4447 153.544 98.2468 153.277 98.8666 152.744V150.994H96.5287ZM111.572 154.029C110.852 154.758 109.94 155.123 108.837 155.123C107.735 155.123 106.821 154.758 106.096 154.029C105.376 153.296 105.016 152.373 105.016 151.261V145.197H106.657V151.261C106.657 151.912 106.864 152.457 107.279 152.895C107.698 153.327 108.218 153.544 108.837 153.544C109.462 153.544 109.981 153.325 110.396 152.888C110.815 152.45 111.025 151.908 111.025 151.261V145.197H112.659V151.261C112.659 152.373 112.296 153.296 111.572 154.029ZM123.313 155L122.554 153.038H118.412L117.639 155H115.903L119.813 145.197H121.187L125.091 155H123.313ZM119.013 151.473H121.939L120.483 147.72L119.013 151.473ZM133.585 150.994V149.429H137.563V153.291C137.117 153.87 136.545 154.321 135.848 154.645C135.15 154.964 134.373 155.123 133.517 155.123C132.596 155.123 131.757 154.9 131.001 154.453C130.244 154.007 129.65 153.396 129.217 152.621C128.788 151.846 128.574 150.992 128.574 150.058C128.574 149.123 128.788 148.276 129.217 147.515C129.645 146.749 130.235 146.15 130.987 145.717C131.744 145.279 132.582 145.061 133.503 145.061C134.469 145.061 135.333 145.286 136.094 145.737C136.859 146.188 137.372 146.774 137.632 147.494L136.176 148.212C135.957 147.738 135.608 147.36 135.13 147.077C134.656 146.795 134.114 146.653 133.503 146.653C132.56 146.653 131.785 146.972 131.179 147.61C130.573 148.244 130.27 149.06 130.27 150.058C130.27 151.069 130.575 151.903 131.186 152.56C131.801 153.216 132.578 153.544 133.517 153.544C134.501 153.544 135.303 153.277 135.923 152.744V150.994H133.585ZM142.072 145.197H147.856V146.77H143.713V149.08H147.404V150.646H143.713V153.435H147.856V155H142.072V145.197ZM155.379 145.061C156.004 145.061 156.63 145.195 157.259 145.464C157.888 145.728 158.371 146.061 158.708 146.462L157.758 147.733C157.43 147.396 157.04 147.13 156.589 146.934C156.143 146.738 155.698 146.64 155.256 146.64C154.805 146.64 154.436 146.742 154.149 146.947C153.866 147.152 153.725 147.419 153.725 147.747C153.725 147.97 153.784 148.166 153.903 148.335C154.021 148.499 154.181 148.636 154.381 148.745C154.586 148.85 154.819 148.946 155.079 149.032C155.338 149.119 155.612 149.203 155.899 149.285C156.19 149.367 156.48 149.456 156.767 149.552C157.059 149.647 157.334 149.768 157.594 149.914C157.854 150.06 158.084 150.229 158.285 150.42C158.49 150.611 158.651 150.857 158.77 151.158C158.888 151.454 158.948 151.792 158.948 152.17C158.948 152.562 158.866 152.938 158.702 153.298C158.542 153.653 158.314 153.968 158.018 154.241C157.726 154.515 157.357 154.733 156.911 154.897C156.464 155.057 155.976 155.137 155.448 155.137C154.718 155.137 153.998 154.979 153.287 154.665C152.581 154.351 152.009 153.95 151.572 153.462L152.624 152.259C153.053 152.669 153.49 152.988 153.937 153.216C154.388 153.444 154.892 153.558 155.448 153.558C155.99 153.558 156.427 153.432 156.76 153.182C157.097 152.926 157.266 152.594 157.266 152.184C157.266 151.969 157.207 151.783 157.088 151.623C156.97 151.464 156.81 151.334 156.61 151.233C156.409 151.133 156.179 151.042 155.919 150.96C155.66 150.878 155.386 150.8 155.099 150.728C154.812 150.65 154.525 150.566 154.238 150.475C153.955 150.383 153.684 150.267 153.424 150.126C153.164 149.985 152.934 149.818 152.734 149.627C152.533 149.436 152.374 149.192 152.255 148.896C152.137 148.599 152.078 148.26 152.078 147.877C152.078 147.075 152.387 146.405 153.007 145.867C153.627 145.329 154.418 145.061 155.379 145.061ZM177.762 155H175.663L174.596 153.865C174.136 154.289 173.678 154.608 173.222 154.822C172.771 155.032 172.268 155.137 171.712 155.137C170.86 155.137 170.139 154.875 169.552 154.351C168.968 153.822 168.677 153.166 168.677 152.382C168.677 152.022 168.727 151.696 168.827 151.404C168.932 151.113 169.082 150.86 169.278 150.646C169.479 150.431 169.684 150.251 169.893 150.105C170.108 149.955 170.36 149.809 170.652 149.668C170.379 149.344 170.162 149.019 170.003 148.69C169.848 148.362 169.77 147.998 169.77 147.597C169.77 146.881 170.026 146.28 170.536 145.792C171.046 145.304 171.678 145.061 172.429 145.061C173.159 145.061 173.769 145.304 174.262 145.792C174.758 146.28 175.007 146.881 175.007 147.597C175.007 147.925 174.959 148.221 174.863 148.485C174.767 148.75 174.628 148.982 174.446 149.183C174.264 149.379 174.072 149.547 173.872 149.688C173.676 149.825 173.441 149.962 173.168 150.099L174.624 151.657L176.141 150.153L177.269 151.179L175.69 152.785L177.762 155ZM171.281 147.569C171.281 147.788 171.354 148.009 171.5 148.232C171.65 148.451 171.871 148.715 172.163 149.025C172.596 148.825 172.926 148.615 173.154 148.396C173.387 148.173 173.503 147.897 173.503 147.569C173.503 147.269 173.398 147.013 173.188 146.804C172.983 146.594 172.73 146.489 172.429 146.489C172.101 146.489 171.828 146.594 171.609 146.804C171.39 147.013 171.281 147.269 171.281 147.569ZM171.855 153.544C172.393 153.544 172.954 153.273 173.537 152.73L171.684 150.755C171.261 150.96 170.935 151.179 170.707 151.411C170.484 151.644 170.372 151.931 170.372 152.272C170.372 152.646 170.511 152.951 170.789 153.188C171.067 153.425 171.422 153.544 171.855 153.544ZM187.654 145.197H193.438V146.77H189.295V149.299H192.987V150.871H189.295V155H187.654V145.197ZM205.083 155H203.094L200.661 151.069H199.218V155H197.578V145.197H201.262C202.087 145.197 202.793 145.48 203.381 146.045C203.974 146.605 204.27 147.294 204.27 148.109C204.27 148.784 204.104 149.367 203.771 149.859C203.443 150.347 202.989 150.689 202.411 150.885L205.083 155ZM199.218 146.783V149.497H201.207C201.613 149.497 201.948 149.367 202.212 149.107C202.481 148.843 202.616 148.51 202.616 148.109C202.616 147.722 202.481 147.405 202.212 147.159C201.948 146.909 201.613 146.783 201.207 146.783H199.218ZM215.738 155L214.979 153.038H210.837L210.064 155H208.328L212.238 145.197H213.612L217.515 155H215.738ZM211.438 151.473H214.364L212.908 147.72L211.438 151.473ZM221.334 155V145.197H223.309L226.57 152.594L229.933 145.197H231.608V155H229.974V148.417L227.049 155H225.846L222.974 148.417V155H221.334ZM236.206 145.197H241.989V146.77H237.847V149.08H241.538V150.646H237.847V153.435H241.989V155H236.206V145.197ZM257.757 145.184H259.466L256.205 155H254.859L252.548 147.904L250.244 155H248.884L245.596 145.184H247.346L249.581 152.3L251.892 145.184H253.252L255.522 152.3L257.757 145.184ZM264.836 145.717C265.597 145.279 266.443 145.061 267.372 145.061C268.302 145.061 269.145 145.279 269.902 145.717C270.663 146.154 271.26 146.758 271.693 147.528C272.126 148.294 272.342 149.146 272.342 150.085C272.342 151.028 272.126 151.887 271.693 152.662C271.26 153.432 270.663 154.038 269.902 154.48C269.145 154.918 268.302 155.137 267.372 155.137C266.443 155.137 265.597 154.918 264.836 154.48C264.075 154.038 263.476 153.432 263.038 152.662C262.606 151.887 262.389 151.028 262.389 150.085C262.389 149.146 262.606 148.294 263.038 147.528C263.476 146.758 264.075 146.154 264.836 145.717ZM267.372 146.653C266.438 146.653 265.657 146.981 265.028 147.638C264.399 148.294 264.084 149.11 264.084 150.085C264.084 151.065 264.399 151.887 265.028 152.553C265.657 153.214 266.438 153.544 267.372 153.544C268.302 153.544 269.081 153.214 269.71 152.553C270.344 151.887 270.661 151.065 270.661 150.085C270.661 149.11 270.344 148.294 269.71 147.638C269.081 146.981 268.302 146.653 267.372 146.653ZM284.104 155H282.115L279.681 151.069H278.239V155H276.598V145.197H280.283C281.108 145.197 281.814 145.48 282.402 146.045C282.994 146.605 283.291 147.294 283.291 148.109C283.291 148.784 283.124 149.367 282.792 149.859C282.463 150.347 282.01 150.689 281.431 150.885L284.104 155ZM278.239 146.783V149.497H280.228C280.634 149.497 280.969 149.367 281.233 149.107C281.502 148.843 281.636 148.51 281.636 148.109C281.636 147.722 281.502 147.405 281.233 147.159C280.969 146.909 280.634 146.783 280.228 146.783H278.239ZM295.907 155H293.754L289.597 150.215V155H287.957V145.197H289.597V149.47L293.446 145.197H295.531L291.306 149.832L295.907 155ZM302.439 145.061C303.064 145.061 303.69 145.195 304.319 145.464C304.948 145.728 305.431 146.061 305.769 146.462L304.818 147.733C304.49 147.396 304.101 147.13 303.649 146.934C303.203 146.738 302.758 146.64 302.316 146.64C301.865 146.64 301.496 146.742 301.209 146.947C300.926 147.152 300.785 147.419 300.785 147.747C300.785 147.97 300.844 148.166 300.963 148.335C301.081 148.499 301.241 148.636 301.441 148.745C301.646 148.85 301.879 148.946 302.139 149.032C302.398 149.119 302.672 149.203 302.959 149.285C303.251 149.367 303.54 149.456 303.827 149.552C304.119 149.647 304.395 149.768 304.654 149.914C304.914 150.06 305.144 150.229 305.345 150.42C305.55 150.611 305.712 150.857 305.83 151.158C305.949 151.454 306.008 151.792 306.008 152.17C306.008 152.562 305.926 152.938 305.762 153.298C305.602 153.653 305.374 153.968 305.078 154.241C304.786 154.515 304.417 154.733 303.971 154.897C303.524 155.057 303.036 155.137 302.508 155.137C301.779 155.137 301.059 154.979 300.348 154.665C299.641 154.351 299.069 153.95 298.632 153.462L299.685 152.259C300.113 152.669 300.55 152.988 300.997 153.216C301.448 153.444 301.952 153.558 302.508 153.558C303.05 153.558 303.488 153.432 303.82 153.182C304.158 152.926 304.326 152.594 304.326 152.184C304.326 151.969 304.267 151.783 304.148 151.623C304.03 151.464 303.87 151.334 303.67 151.233C303.469 151.133 303.239 151.042 302.979 150.96C302.72 150.878 302.446 150.8 302.159 150.728C301.872 150.65 301.585 150.566 301.298 150.475C301.015 150.383 300.744 150.267 300.484 150.126C300.225 149.985 299.994 149.818 299.794 149.627C299.593 149.436 299.434 149.192 299.315 148.896C299.197 148.599 299.138 148.26 299.138 147.877C299.138 147.075 299.448 146.405 300.067 145.867C300.687 145.329 301.478 145.061 302.439 145.061Z" fill="#595959"/>
<path d="M584.758 61.1973C585.619 61.1973 586.337 61.4753 586.911 62.0312C587.485 62.5827 587.772 63.2754 587.772 64.1094C587.772 64.9434 587.485 65.6406 586.911 66.2012C586.337 66.7572 585.619 67.0352 584.758 67.0352H582.352V71H580.991V61.1973H584.758ZM584.758 65.75C585.227 65.75 585.621 65.5928 585.94 65.2783C586.264 64.9593 586.426 64.5697 586.426 64.1094C586.426 63.6491 586.264 63.264 585.94 62.9541C585.621 62.6442 585.227 62.4893 584.758 62.4893H582.352V65.75H584.758ZM592.667 64.0273C593.515 64.0273 594.194 64.3076 594.704 64.8682C595.215 65.4242 595.47 66.167 595.47 67.0967V71H594.178V67.2744C594.178 66.6774 594.011 66.1989 593.679 65.8389C593.351 65.4788 592.915 65.2988 592.373 65.2988C591.977 65.2988 591.607 65.3968 591.266 65.5928C590.924 65.7842 590.65 66.0462 590.445 66.3789V71H589.14V61.1973H590.445V65.1484C590.673 64.8112 590.985 64.54 591.382 64.335C591.783 64.1299 592.211 64.0273 592.667 64.0273ZM602.511 64.1709H603.816V71H602.511V70.0088C602.319 70.3324 602.009 70.6012 601.581 70.8154C601.153 71.0296 600.701 71.1367 600.228 71.1367C599.608 71.1367 599.043 70.9818 598.532 70.6719C598.022 70.3574 597.621 69.929 597.329 69.3867C597.042 68.8398 596.898 68.2383 596.898 67.582C596.898 66.9258 597.042 66.3265 597.329 65.7842C597.621 65.2373 598.022 64.8089 598.532 64.499C599.043 64.1846 599.608 64.0273 600.228 64.0273C600.706 64.0273 601.16 64.1367 601.588 64.3555C602.021 64.5697 602.328 64.8385 602.511 65.1621V64.1709ZM600.48 69.9199C600.9 69.9199 601.296 69.8151 601.67 69.6055C602.048 69.3913 602.328 69.1178 602.511 68.7852V66.3926C602.328 66.0553 602.048 65.7796 601.67 65.5654C601.296 65.3512 600.9 65.2441 600.48 65.2441C599.82 65.2441 599.266 65.4674 598.819 65.9141C598.377 66.3561 598.156 66.9121 598.156 67.582C598.156 68.2474 598.377 68.8034 598.819 69.25C599.266 69.6966 599.82 69.9199 600.48 69.9199ZM607.979 71.1367C607.446 71.1367 606.92 71.0479 606.4 70.8701C605.885 70.6924 605.464 70.4554 605.136 70.1592L605.669 69.1953C605.933 69.4505 606.282 69.6602 606.715 69.8242C607.148 69.9837 607.565 70.0635 607.966 70.0635C608.358 70.0635 608.677 69.9769 608.923 69.8037C609.174 69.626 609.299 69.4049 609.299 69.1406C609.299 68.9355 609.226 68.7646 609.08 68.6279C608.934 68.4912 608.745 68.3864 608.513 68.3135C608.28 68.236 608.023 68.1676 607.74 68.1084C607.462 68.0446 607.182 67.9694 606.899 67.8828C606.621 67.7917 606.366 67.6823 606.134 67.5547C605.901 67.4225 605.712 67.2357 605.566 66.9941C605.421 66.748 605.348 66.4541 605.348 66.1123C605.348 65.4925 605.587 64.9912 606.065 64.6084C606.544 64.221 607.168 64.0273 607.938 64.0273C608.417 64.0273 608.877 64.1025 609.319 64.2529C609.766 64.4033 610.133 64.6175 610.42 64.8955L609.859 65.873C609.622 65.6406 609.306 65.4583 608.909 65.3262C608.513 65.1895 608.148 65.1211 607.815 65.1211C607.46 65.1211 607.175 65.2031 606.961 65.3672C606.747 65.5267 606.64 65.7386 606.64 66.0029C606.64 66.1898 606.713 66.347 606.858 66.4746C607.004 66.5977 607.193 66.6979 607.426 66.7754C607.658 66.8483 607.913 66.9189 608.191 66.9873C608.474 67.0511 608.757 67.1331 609.039 67.2334C609.322 67.3291 609.579 67.4476 609.812 67.5889C610.044 67.7301 610.233 67.9284 610.379 68.1836C610.525 68.4388 610.598 68.7419 610.598 69.0928C610.598 69.6852 610.354 70.1751 609.866 70.5625C609.379 70.9453 608.75 71.1367 607.979 71.1367ZM618.356 67.2881C618.356 67.4157 618.347 67.5934 618.329 67.8213H612.867C612.926 68.4775 613.163 69.0016 613.578 69.3936C613.997 69.7809 614.521 69.9746 615.15 69.9746C615.583 69.9746 615.98 69.8835 616.34 69.7012C616.7 69.5189 616.966 69.2751 617.14 68.9697L618.172 69.6396C617.912 70.1045 617.511 70.4714 616.969 70.7402C616.426 71.0046 615.807 71.1367 615.109 71.1367C614.631 71.1367 614.175 71.0456 613.742 70.8633C613.309 70.681 612.936 70.4326 612.621 70.1182C612.311 69.7992 612.065 69.4186 611.883 68.9766C611.701 68.5299 611.609 68.056 611.609 67.5547C611.609 66.9076 611.762 66.3151 612.067 65.7773C612.373 65.235 612.792 64.8089 613.325 64.499C613.863 64.1846 614.453 64.0273 615.096 64.0273C616.012 64.0273 616.784 64.3418 617.413 64.9707C618.042 65.5996 618.356 66.3721 618.356 67.2881ZM612.922 66.8438H617.023C616.982 66.3333 616.777 65.9163 616.408 65.5928C616.039 65.2692 615.583 65.1074 615.041 65.1074C614.503 65.1074 614.045 65.2646 613.667 65.5791C613.289 65.8936 613.04 66.3151 612.922 66.8438ZM624.864 61.1973H626.17V71H624.864V70.0088C624.673 70.3324 624.363 70.6012 623.935 70.8154C623.506 71.0296 623.055 71.1367 622.581 71.1367C621.961 71.1367 621.396 70.9818 620.886 70.6719C620.375 70.3574 619.974 69.929 619.683 69.3867C619.396 68.8398 619.252 68.2383 619.252 67.582C619.252 66.9258 619.396 66.3265 619.683 65.7842C619.974 65.2373 620.375 64.8089 620.886 64.499C621.396 64.1846 621.961 64.0273 622.581 64.0273C623.06 64.0273 623.513 64.1367 623.941 64.3555C624.374 64.5697 624.682 64.8385 624.864 65.1621V61.1973ZM622.834 69.9199C623.253 69.9199 623.65 69.8151 624.023 69.6055C624.402 69.3913 624.682 69.1178 624.864 68.7852V66.3926C624.682 66.0553 624.402 65.7796 624.023 65.5654C623.65 65.3512 623.253 65.2441 622.834 65.2441C622.173 65.2441 621.619 65.4674 621.173 65.9141C620.731 66.3561 620.51 66.9121 620.51 67.582C620.51 68.2474 620.731 68.8034 621.173 69.25C621.619 69.6966 622.173 69.9199 622.834 69.9199ZM634.346 64.0273C634.997 64.0273 635.592 64.1846 636.13 64.499C636.668 64.8089 637.091 65.2373 637.401 65.7842C637.716 66.3311 637.873 66.9349 637.873 67.5957C637.873 68.5938 637.531 69.4346 636.848 70.1182C636.169 70.7972 635.335 71.1367 634.346 71.1367C633.694 71.1367 633.097 70.9818 632.555 70.6719C632.017 70.362 631.593 69.9359 631.283 69.3936C630.973 68.8512 630.818 68.252 630.818 67.5957C630.818 66.5885 631.158 65.7432 631.837 65.0596C632.516 64.3714 633.352 64.0273 634.346 64.0273ZM634.346 65.2578C633.703 65.2578 633.163 65.4811 632.726 65.9277C632.293 66.3743 632.076 66.9303 632.076 67.5957C632.076 68.2474 632.293 68.7965 632.726 69.2432C633.163 69.6852 633.703 69.9062 634.346 69.9062C634.984 69.9062 635.521 69.6829 635.959 69.2363C636.396 68.7897 636.615 68.2428 636.615 67.5957C636.615 66.9303 636.396 66.3743 635.959 65.9277C635.521 65.4811 634.984 65.2578 634.346 65.2578ZM644.34 64.1709H645.632V71H644.34V70.0088C644.13 70.3506 643.823 70.624 643.417 70.8291C643.011 71.0342 642.574 71.1367 642.104 71.1367C641.257 71.1367 640.578 70.8587 640.067 70.3027C639.557 69.7467 639.302 69.0085 639.302 68.0879V64.1709H640.607V67.8896C640.607 68.4912 640.769 68.972 641.093 69.332C641.421 69.6875 641.856 69.8652 642.398 69.8652C642.799 69.8652 643.175 69.7673 643.526 69.5713C643.882 69.3708 644.153 69.1042 644.34 68.7715V64.1709ZM651.189 69.8105L651.258 70.9453C651.039 71.0365 650.793 71.082 650.52 71.082C649.781 71.082 649.184 70.8587 648.729 70.4121C648.277 69.9609 648.052 69.3366 648.052 68.5391V65.4014H646.726V64.1709H648.052V62.3184H649.344V64.1709H651.189V65.4014H649.344V68.4775C649.344 68.9105 649.469 69.2523 649.72 69.5029C649.97 69.7536 650.292 69.8789 650.684 69.8789C650.87 69.8789 651.039 69.8561 651.189 69.8105Z" fill="white"/>
<path d="M584.758 162.197C585.619 162.197 586.337 162.475 586.911 163.031C587.485 163.583 587.772 164.275 587.772 165.109C587.772 165.943 587.485 166.641 586.911 167.201C586.337 167.757 585.619 168.035 584.758 168.035H582.352V172H580.991V162.197H584.758ZM584.758 166.75C585.227 166.75 585.621 166.593 585.94 166.278C586.264 165.959 586.426 165.57 586.426 165.109C586.426 164.649 586.264 164.264 585.94 163.954C585.621 163.644 585.227 163.489 584.758 163.489H582.352V166.75H584.758ZM592.113 165.027C592.35 165.027 592.601 165.064 592.865 165.137L592.797 166.36C592.56 166.274 592.302 166.23 592.024 166.23C591.728 166.23 591.418 166.342 591.095 166.565C590.776 166.784 590.518 167.078 590.322 167.447V172H589.017V165.171H590.322V166.162C590.509 165.825 590.771 165.551 591.108 165.342C591.446 165.132 591.781 165.027 592.113 165.027ZM596.693 165.027C597.345 165.027 597.94 165.185 598.478 165.499C599.015 165.809 599.439 166.237 599.749 166.784C600.063 167.331 600.221 167.935 600.221 168.596C600.221 169.594 599.879 170.435 599.195 171.118C598.516 171.797 597.682 172.137 596.693 172.137C596.042 172.137 595.445 171.982 594.902 171.672C594.365 171.362 593.941 170.936 593.631 170.394C593.321 169.851 593.166 169.252 593.166 168.596C593.166 167.589 593.506 166.743 594.185 166.06C594.864 165.371 595.7 165.027 596.693 165.027ZM596.693 166.258C596.051 166.258 595.511 166.481 595.073 166.928C594.64 167.374 594.424 167.93 594.424 168.596C594.424 169.247 594.64 169.797 595.073 170.243C595.511 170.685 596.051 170.906 596.693 170.906C597.331 170.906 597.869 170.683 598.307 170.236C598.744 169.79 598.963 169.243 598.963 168.596C598.963 167.93 598.744 167.374 598.307 166.928C597.869 166.481 597.331 166.258 596.693 166.258ZM609.586 165.027C610.424 165.027 611.099 165.285 611.609 165.8C612.12 166.315 612.375 167.005 612.375 167.871V172H611.083V168.097C611.083 167.522 610.93 167.069 610.625 166.736C610.32 166.399 609.905 166.23 609.381 166.23C609.035 166.23 608.695 166.335 608.362 166.545C608.034 166.75 607.779 167.005 607.597 167.311C607.624 167.424 607.645 167.559 607.658 167.714V172H606.366V168.097C606.366 167.527 606.211 167.074 605.901 166.736C605.596 166.399 605.19 166.23 604.685 166.23C604.306 166.23 603.965 166.328 603.659 166.524C603.354 166.716 603.119 166.973 602.955 167.297V172H601.649V165.171H602.955V166.135C603.16 165.834 603.44 165.574 603.796 165.355C604.156 165.137 604.589 165.027 605.095 165.027C606.111 165.027 606.833 165.433 607.262 166.244C607.521 165.898 607.852 165.608 608.253 165.376C608.659 165.144 609.103 165.027 609.586 165.027ZM614.829 162.102C615.062 162.102 615.264 162.188 615.438 162.361C615.611 162.535 615.697 162.737 615.697 162.97C615.697 163.207 615.611 163.412 615.438 163.585C615.264 163.754 615.062 163.838 614.829 163.838C614.588 163.838 614.382 163.754 614.214 163.585C614.045 163.416 613.961 163.211 613.961 162.97C613.961 162.737 614.045 162.535 614.214 162.361C614.387 162.188 614.592 162.102 614.829 162.102ZM614.173 165.171H615.479V172H614.173V165.171ZM619.642 172.137C619.108 172.137 618.582 172.048 618.062 171.87C617.548 171.692 617.126 171.455 616.798 171.159L617.331 170.195C617.595 170.451 617.944 170.66 618.377 170.824C618.81 170.984 619.227 171.063 619.628 171.063C620.02 171.063 620.339 170.977 620.585 170.804C620.836 170.626 620.961 170.405 620.961 170.141C620.961 169.936 620.888 169.765 620.742 169.628C620.596 169.491 620.407 169.386 620.175 169.313C619.942 169.236 619.685 169.168 619.402 169.108C619.124 169.045 618.844 168.969 618.562 168.883C618.284 168.792 618.028 168.682 617.796 168.555C617.563 168.423 617.374 168.236 617.229 167.994C617.083 167.748 617.01 167.454 617.01 167.112C617.01 166.493 617.249 165.991 617.728 165.608C618.206 165.221 618.83 165.027 619.601 165.027C620.079 165.027 620.539 165.103 620.981 165.253C621.428 165.403 621.795 165.618 622.082 165.896L621.521 166.873C621.285 166.641 620.968 166.458 620.571 166.326C620.175 166.189 619.81 166.121 619.478 166.121C619.122 166.121 618.837 166.203 618.623 166.367C618.409 166.527 618.302 166.739 618.302 167.003C618.302 167.19 618.375 167.347 618.521 167.475C618.666 167.598 618.855 167.698 619.088 167.775C619.32 167.848 619.576 167.919 619.854 167.987C620.136 168.051 620.419 168.133 620.701 168.233C620.984 168.329 621.241 168.448 621.474 168.589C621.706 168.73 621.895 168.928 622.041 169.184C622.187 169.439 622.26 169.742 622.26 170.093C622.26 170.685 622.016 171.175 621.528 171.562C621.041 171.945 620.412 172.137 619.642 172.137ZM624.331 162.102C624.563 162.102 624.766 162.188 624.939 162.361C625.113 162.535 625.199 162.737 625.199 162.97C625.199 163.207 625.113 163.412 624.939 163.585C624.766 163.754 624.563 163.838 624.331 163.838C624.09 163.838 623.884 163.754 623.716 163.585C623.547 163.416 623.463 163.211 623.463 162.97C623.463 162.737 623.547 162.535 623.716 162.361C623.889 162.188 624.094 162.102 624.331 162.102ZM623.675 165.171H624.98V172H623.675V165.171ZM630.292 165.027C631.144 165.027 631.823 165.308 632.329 165.868C632.84 166.424 633.095 167.167 633.095 168.097V172H631.803V168.274C631.803 167.673 631.639 167.194 631.311 166.839C630.982 166.479 630.545 166.299 629.998 166.299C629.602 166.299 629.228 166.399 628.877 166.6C628.526 166.796 628.257 167.06 628.07 167.393V172H626.765V165.171H628.07V166.162C628.28 165.82 628.588 165.547 628.993 165.342C629.399 165.132 629.832 165.027 630.292 165.027ZM640.149 165.171H641.455V171.761C641.455 172.69 641.143 173.44 640.519 174.01C639.894 174.584 639.094 174.871 638.119 174.871C637.504 174.871 636.914 174.766 636.349 174.557C635.784 174.347 635.357 174.064 635.07 173.709L635.727 172.827C635.986 173.105 636.324 173.322 636.738 173.477C637.158 173.632 637.609 173.709 638.092 173.709C638.684 173.709 639.174 173.524 639.562 173.155C639.953 172.786 640.149 172.317 640.149 171.747V170.906C639.958 171.225 639.646 171.49 639.213 171.699C638.785 171.909 638.336 172.014 637.866 172.014C637.246 172.014 636.681 171.861 636.171 171.556C635.66 171.246 635.259 170.824 634.968 170.291C634.681 169.753 634.537 169.161 634.537 168.514C634.537 168.031 634.621 167.575 634.79 167.146C634.963 166.714 635.196 166.342 635.487 166.032C635.784 165.722 636.137 165.479 636.547 165.301C636.962 165.118 637.401 165.027 637.866 165.027C638.345 165.027 638.798 165.134 639.227 165.349C639.66 165.558 639.967 165.825 640.149 166.148V165.171ZM638.119 170.811C638.538 170.811 638.935 170.708 639.309 170.503C639.687 170.293 639.967 170.027 640.149 169.703V167.352C639.967 167.023 639.687 166.755 639.309 166.545C638.935 166.335 638.538 166.23 638.119 166.23C637.458 166.23 636.905 166.447 636.458 166.88C636.016 167.313 635.795 167.857 635.795 168.514C635.795 169.17 636.016 169.717 636.458 170.154C636.905 170.592 637.458 170.811 638.119 170.811Z" fill="white"/>
<path d="M584.758 264.197C585.619 264.197 586.337 264.475 586.911 265.031C587.485 265.583 587.772 266.275 587.772 267.109C587.772 267.943 587.485 268.641 586.911 269.201C586.337 269.757 585.619 270.035 584.758 270.035H582.352V274H580.991V264.197H584.758ZM584.758 268.75C585.227 268.75 585.621 268.593 585.94 268.278C586.264 267.959 586.426 267.57 586.426 267.109C586.426 266.649 586.264 266.264 585.94 265.954C585.621 265.644 585.227 265.489 584.758 265.489H582.352V268.75H584.758ZM592.113 267.027C592.35 267.027 592.601 267.064 592.865 267.137L592.797 268.36C592.56 268.274 592.302 268.23 592.024 268.23C591.728 268.23 591.418 268.342 591.095 268.565C590.776 268.784 590.518 269.078 590.322 269.447V274H589.017V267.171H590.322V268.162C590.509 267.825 590.771 267.551 591.108 267.342C591.446 267.132 591.781 267.027 592.113 267.027ZM596.693 267.027C597.345 267.027 597.94 267.185 598.478 267.499C599.015 267.809 599.439 268.237 599.749 268.784C600.063 269.331 600.221 269.935 600.221 270.596C600.221 271.594 599.879 272.435 599.195 273.118C598.516 273.797 597.682 274.137 596.693 274.137C596.042 274.137 595.445 273.982 594.902 273.672C594.365 273.362 593.941 272.936 593.631 272.394C593.321 271.851 593.166 271.252 593.166 270.596C593.166 269.589 593.506 268.743 594.185 268.06C594.864 267.371 595.7 267.027 596.693 267.027ZM596.693 268.258C596.051 268.258 595.511 268.481 595.073 268.928C594.64 269.374 594.424 269.93 594.424 270.596C594.424 271.247 594.64 271.797 595.073 272.243C595.511 272.685 596.051 272.906 596.693 272.906C597.331 272.906 597.869 272.683 598.307 272.236C598.744 271.79 598.963 271.243 598.963 270.596C598.963 269.93 598.744 269.374 598.307 268.928C597.869 268.481 597.331 268.258 596.693 268.258ZM607.48 267.171L604.596 274H603.481L600.597 267.171H601.998L604.042 272.318L606.065 267.171H607.48ZM614.61 270.288C614.61 270.416 614.601 270.593 614.583 270.821H609.121C609.18 271.478 609.417 272.002 609.832 272.394C610.251 272.781 610.775 272.975 611.404 272.975C611.837 272.975 612.234 272.883 612.594 272.701C612.954 272.519 613.22 272.275 613.394 271.97L614.426 272.64C614.166 273.104 613.765 273.471 613.223 273.74C612.68 274.005 612.061 274.137 611.363 274.137C610.885 274.137 610.429 274.046 609.996 273.863C609.563 273.681 609.189 273.433 608.875 273.118C608.565 272.799 608.319 272.419 608.137 271.977C607.954 271.53 607.863 271.056 607.863 270.555C607.863 269.908 608.016 269.315 608.321 268.777C608.627 268.235 609.046 267.809 609.579 267.499C610.117 267.185 610.707 267.027 611.35 267.027C612.266 267.027 613.038 267.342 613.667 267.971C614.296 268.6 614.61 269.372 614.61 270.288ZM609.176 269.844H613.277C613.236 269.333 613.031 268.916 612.662 268.593C612.293 268.269 611.837 268.107 611.295 268.107C610.757 268.107 610.299 268.265 609.921 268.579C609.543 268.894 609.294 269.315 609.176 269.844ZM619.56 267.027C620.412 267.027 621.091 267.308 621.597 267.868C622.107 268.424 622.362 269.167 622.362 270.097V274H621.07V270.274C621.07 269.673 620.906 269.194 620.578 268.839C620.25 268.479 619.812 268.299 619.266 268.299C618.869 268.299 618.495 268.399 618.145 268.6C617.794 268.796 617.525 269.06 617.338 269.393V274H616.032V267.171H617.338V268.162C617.548 267.82 617.855 267.547 618.261 267.342C618.666 267.132 619.099 267.027 619.56 267.027Z" fill="white"/>
<path d="M580.991 368.197H582.352V378H580.991V368.197ZM587.772 371.027C588.625 371.027 589.304 371.308 589.81 371.868C590.32 372.424 590.575 373.167 590.575 374.097V378H589.283V374.274C589.283 373.673 589.119 373.194 588.791 372.839C588.463 372.479 588.025 372.299 587.479 372.299C587.082 372.299 586.708 372.399 586.357 372.6C586.007 372.796 585.738 373.06 585.551 373.393V378H584.245V371.171H585.551V372.162C585.76 371.82 586.068 371.547 586.474 371.342C586.879 371.132 587.312 371.027 587.772 371.027ZM600.645 371.171H601.937V378H600.645V377.009C600.435 377.351 600.127 377.624 599.722 377.829C599.316 378.034 598.879 378.137 598.409 378.137C597.562 378.137 596.882 377.859 596.372 377.303C595.862 376.747 595.606 376.008 595.606 375.088V371.171H596.912V374.89C596.912 375.491 597.074 375.972 597.397 376.332C597.726 376.688 598.161 376.865 598.703 376.865C599.104 376.865 599.48 376.767 599.831 376.571C600.187 376.371 600.458 376.104 600.645 375.771V371.171ZM606.12 378.137C605.587 378.137 605.061 378.048 604.541 377.87C604.026 377.692 603.604 377.455 603.276 377.159L603.81 376.195C604.074 376.451 604.423 376.66 604.855 376.824C605.288 376.984 605.705 377.063 606.106 377.063C606.498 377.063 606.817 376.977 607.063 376.804C607.314 376.626 607.439 376.405 607.439 376.141C607.439 375.936 607.367 375.765 607.221 375.628C607.075 375.491 606.886 375.386 606.653 375.313C606.421 375.236 606.163 375.168 605.881 375.108C605.603 375.045 605.323 374.969 605.04 374.883C604.762 374.792 604.507 374.682 604.274 374.555C604.042 374.423 603.853 374.236 603.707 373.994C603.561 373.748 603.488 373.454 603.488 373.112C603.488 372.493 603.728 371.991 604.206 371.608C604.685 371.221 605.309 371.027 606.079 371.027C606.558 371.027 607.018 371.103 607.46 371.253C607.907 371.403 608.273 371.618 608.561 371.896L608 372.873C607.763 372.641 607.446 372.458 607.05 372.326C606.653 372.189 606.289 372.121 605.956 372.121C605.601 372.121 605.316 372.203 605.102 372.367C604.887 372.527 604.78 372.739 604.78 373.003C604.78 373.19 604.853 373.347 604.999 373.475C605.145 373.598 605.334 373.698 605.566 373.775C605.799 373.848 606.054 373.919 606.332 373.987C606.615 374.051 606.897 374.133 607.18 374.233C607.462 374.329 607.72 374.448 607.952 374.589C608.185 374.73 608.374 374.928 608.52 375.184C608.665 375.439 608.738 375.742 608.738 376.093C608.738 376.685 608.494 377.175 608.007 377.562C607.519 377.945 606.89 378.137 606.12 378.137ZM616.497 374.288C616.497 374.416 616.488 374.593 616.47 374.821H611.008C611.067 375.478 611.304 376.002 611.719 376.394C612.138 376.781 612.662 376.975 613.291 376.975C613.724 376.975 614.12 376.883 614.48 376.701C614.84 376.519 615.107 376.275 615.28 375.97L616.312 376.64C616.053 377.104 615.652 377.471 615.109 377.74C614.567 378.005 613.947 378.137 613.25 378.137C612.771 378.137 612.316 378.046 611.883 377.863C611.45 377.681 611.076 377.433 610.762 377.118C610.452 376.799 610.206 376.419 610.023 375.977C609.841 375.53 609.75 375.056 609.75 374.555C609.75 373.908 609.903 373.315 610.208 372.777C610.513 372.235 610.933 371.809 611.466 371.499C612.004 371.185 612.594 371.027 613.236 371.027C614.152 371.027 614.925 371.342 615.554 371.971C616.183 372.6 616.497 373.372 616.497 374.288ZM611.062 373.844H615.164C615.123 373.333 614.918 372.916 614.549 372.593C614.18 372.269 613.724 372.107 613.182 372.107C612.644 372.107 612.186 372.265 611.808 372.579C611.429 372.894 611.181 373.315 611.062 373.844Z" fill="white"/>
<g opacity="0.2">
<circle cx="6" cy="6" r="6" transform="matrix(-1 0 0 1 596.301 448.195)" fill="#C2C2C2"/>
</g>
<g opacity="0.2">
<circle cx="6" cy="6" r="6" transform="matrix(-1 0 0 1 615.881 458.477)" fill="#C2C2C2"/>
</g>
<g opacity="0.2">
<circle cx="6" cy="6" r="6" transform="matrix(-1 0 0 1 601.195 470.711)" fill="#C2C2C2"/>
</g>
<g opacity="0.2">
<circle cx="6" cy="6" r="6" transform="matrix(-1 0 0 1 631.545 476.586)" fill="#C2C2C2"/>
</g>
<g opacity="0.2">
<circle cx="6" cy="6" r="6" transform="matrix(-1 0 0 1 648.188 464.352)" fill="#C2C2C2"/>
</g>
<g opacity="0.2">
<circle cx="6" cy="6" r="6" transform="matrix(-1 0 0 1 674.131 475.609)" fill="#C2C2C2"/>
</g>
<g opacity="0.2">
<circle cx="6" cy="6" r="6" transform="matrix(-1 0 0 1 661.893 415.398)" fill="#C2C2C2"/>
</g>
<g opacity="0.2">
<circle cx="6" cy="6" r="6" transform="matrix(-1 0 0 1 636.439 404.633)" fill="#C2C2C2"/>
</g>
<g opacity="0.2">
<circle cx="6" cy="6" r="6" transform="matrix(-1 0 0 1 618.818 420.297)" fill="#C2C2C2"/>
</g>
<g opacity="0.2">
<circle cx="6" cy="6" r="6" transform="matrix(-1 0 0 1 597.281 423.234)" fill="#C2C2C2"/>
</g>
<g opacity="0.2">
<circle cx="6" cy="6" r="6" transform="matrix(-1 0 0 1 592.875 405.609)" fill="#C2C2C2"/>
</g>
<g opacity="0.2">
<rect width="10.1823" height="10.1823" transform="matrix(-0.707107 -0.707107 -0.707107 0.707107 605.064 317.856)" fill="#C2C2C2"/>
</g>
<g opacity="0.2">
<rect width="10.1823" height="10.1823" transform="matrix(-0.707107 -0.707107 -0.707107 0.707107 652.545 344.286)" fill="#C2C2C2"/>
</g>
<g opacity="0.2">
<rect width="10.1823" height="10.1823" transform="matrix(-0.707107 -0.707107 -0.707107 0.707107 700.025 329.606)" fill="#C2C2C2"/>
</g>
<g opacity="0.2">
<rect width="10.1823" height="10.1823" transform="matrix(-0.707107 -0.707107 -0.707107 0.707107 716.178 377.083)" fill="#C2C2C2"/>
</g>
<g opacity="0.2">
<rect width="10.1823" height="10.1823" transform="matrix(-0.707107 -0.707107 -0.707107 0.707107 744.08 423.583)" fill="#C2C2C2"/>
</g>
<g opacity="0.2">
<rect width="10.1823" height="10.1823" transform="matrix(-0.707107 -0.707107 -0.707107 0.707107 765.617 391.771)" fill="#C2C2C2"/>
</g>
<g opacity="0.2">
<rect width="10.1823" height="10.1823" transform="matrix(-0.707107 -0.707107 -0.707107 0.707107 759.252 471.067)" fill="#C2C2C2"/>
</g>
<g opacity="0.2">
<rect width="10.8" height="10.8" transform="translate(606.818 231.359)" fill="#C2C2C2"/>
</g>
<g opacity="0.2">
<rect width="10.8" height="10.8" transform="translate(645.488 196.602)" fill="#C2C2C2"/>
</g>
<g opacity="0.2">
<rect width="10.8" height="10.8" transform="translate(706.184 239.188)" fill="#C2C2C2"/>
</g>
<g opacity="0.2">
<rect width="10.8" height="10.8" transform="translate(784.992 291.562)" fill="#C2C2C2"/>
</g>
<g opacity="0.2">
<rect width="10.8" height="10.8" transform="translate(833.453 377.219)" fill="#C2C2C2"/>
</g>
<g opacity="0.2">
<rect width="10.8" height="10.8" transform="translate(885.828 444.281)" fill="#C2C2C2"/>
</g>
<g opacity="0.2">
<rect width="10.8" height="10.8" transform="translate(842.262 427.156)" fill="#C2C2C2"/>
</g>
<g opacity="0.2">
<path d="M664.402 121.253L656.902 110.453L649.402 121.253L664.402 121.253Z" fill="#C2C2C2"/>
</g>
<g opacity="0.2">
<path d="M723.141 139.854L715.64 129.055L708.141 139.855L723.141 139.854Z" fill="#C2C2C2"/>
</g>
<g opacity="0.2">
<path d="M805.375 147.198L797.875 136.398L790.375 147.198L805.375 147.198Z" fill="#C2C2C2"/>
</g>
<g opacity="0.2">
<path d="M808.801 202.018L801.301 191.219L793.801 202.019L808.801 202.018Z" fill="#C2C2C2"/>
</g>
<g opacity="0.2">
<path d="M900.824 269.565L893.324 258.766L885.824 269.566L900.824 269.565Z" fill="#C2C2C2"/>
</g>
<g opacity="0.2">
<path d="M974.248 424.245L966.748 413.445L959.248 424.245L974.248 424.245Z" fill="#C2C2C2"/>
</g>
<g opacity="0.2">
<circle cx="6" cy="6" r="6" transform="matrix(-1 0 0 1 479.551 480.516)" fill="#C2C2C2"/>
</g>
<g opacity="0.2">
<circle cx="6" cy="6" r="6" transform="matrix(-1 0 0 1 504.514 476.594)" fill="#C2C2C2"/>
</g>
<g opacity="0.2">
<circle cx="6" cy="6" r="6" transform="matrix(-1 0 0 1 530.947 481)" fill="#C2C2C2"/>
</g>
<g opacity="0.2">
<circle cx="6" cy="6" r="6" transform="matrix(-1 0 0 1 558.848 481.984)" fill="#C2C2C2"/>
</g>
<g opacity="0.2">
<circle cx="6" cy="6" r="6" transform="matrix(-1 0 0 1 553.953 457.992)" fill="#C2C2C2"/>
</g>
<g opacity="0.2">
<circle cx="6" cy="6" r="6" transform="matrix(-1 0 0 1 530.457 458.484)" fill="#C2C2C2"/>
</g>
<g opacity="0.2">
<circle cx="6" cy="6" r="6" transform="matrix(-1 0 0 1 508.92 457.016)" fill="#C2C2C2"/>
</g>
<g opacity="0.2">
<circle cx="6" cy="6" r="6" transform="matrix(-1 0 0 1 489.34 460.445)" fill="#C2C2C2"/>
</g>
<g opacity="0.2">
<circle cx="6" cy="6" r="6" transform="matrix(-1 0 0 1 462.908 452.125)" fill="#C2C2C2"/>
</g>
<g opacity="0.2">
<circle cx="6" cy="6" r="6" transform="matrix(-1 0 0 1 473.188 431.562)" fill="#C2C2C2"/>
</g>
<g opacity="0.2">
<circle cx="6" cy="6" r="6" transform="matrix(-1 0 0 1 485.424 414.43)" fill="#C2C2C2"/>
</g>
<g opacity="0.2">
<circle cx="6" cy="6" r="6" transform="matrix(-1 0 0 1 492.768 437.438)" fill="#C2C2C2"/>
</g>
<g opacity="0.2">
<circle cx="6" cy="6" r="6" transform="matrix(-1 0 0 1 521.646 437.438)" fill="#C2C2C2"/>
</g>
<g opacity="0.2">
<circle cx="6" cy="6" r="6" transform="matrix(-1 0 0 1 539.758 437.438)" fill="#C2C2C2"/>
</g>
<g opacity="0.2">
<circle cx="6" cy="6" r="6" transform="matrix(-1 0 0 1 560.805 433.031)" fill="#C2C2C2"/>
</g>
<g opacity="0.2">
<circle cx="6" cy="6" r="6" transform="matrix(-1 0 0 1 561.295 410.023)" fill="#C2C2C2"/>
</g>
<g opacity="0.2">
<circle cx="6" cy="6" r="6" transform="matrix(-1 0 0 1 540.246 414.43)" fill="#C2C2C2"/>
</g>
<g opacity="0.2">
<circle cx="6" cy="6" r="6" transform="matrix(-1 0 0 1 514.305 411.008)" fill="#C2C2C2"/>
</g>
<g opacity="0.2">
<circle cx="6" cy="6" r="6" transform="matrix(-1 0 0 1 545.143 393.875)" fill="#C2C2C2"/>
</g>
<g opacity="0.2">
<circle cx="6" cy="6" r="6" transform="matrix(-1 0 0 1 561.295 381.633)" fill="#C2C2C2"/>
</g>
<g opacity="0.2">
<circle cx="6" cy="6" r="6" transform="matrix(-1 0 0 1 547.1 369.398)" fill="#C2C2C2"/>
</g>
<g opacity="0.2">
<rect width="10.1823" height="10.1823" transform="matrix(-0.707107 -0.707107 -0.707107 0.707107 373.822 427.013)" fill="#C2C2C2"/>
</g>
<g opacity="0.2">
<rect width="10.1823" height="10.1823" transform="matrix(-0.707107 -0.707107 -0.707107 0.707107 434.029 376.591)" fill="#C2C2C2"/>
</g>
<g opacity="0.2">
<rect width="10.1823" height="10.1823" transform="matrix(-0.707107 -0.707107 -0.707107 0.707107 450.672 329.606)" fill="#C2C2C2"/>
</g>
<g opacity="0.2">
<rect width="10.1823" height="10.1823" transform="matrix(-0.707107 -0.707107 -0.707107 0.707107 467.803 307.083)" fill="#C2C2C2"/>
</g>
<g opacity="0.2">
<rect width="10.1823" height="10.1823" transform="matrix(-0.707107 -0.707107 -0.707107 0.707107 539.758 286.528)" fill="#C2C2C2"/>
</g>
<g opacity="0.2">
<rect width="10.1823" height="10.1823" transform="matrix(-0.707107 -0.707107 -0.707107 0.707107 539.758 318.349)" fill="#C2C2C2"/>
</g>
<g opacity="0.2">
<rect width="10.8" height="10.8" transform="translate(256.34 424.711)" fill="#C2C2C2"/>
</g>
<g opacity="0.2">
<rect width="10.8" height="10.8" transform="translate(324.379 361.078)" fill="#C2C2C2"/>
</g>
<g opacity="0.2">
<rect width="10.8" height="10.8" transform="translate(302.842 309.68)" fill="#C2C2C2"/>
</g>
<g opacity="0.2">
<rect width="10.8" height="10.8" transform="translate(343.469 291.078)" fill="#C2C2C2"/>
</g>
<g opacity="0.2">
<rect width="10.8" height="10.8" transform="translate(422.766 239.688)" fill="#C2C2C2"/>
</g>
<g opacity="0.2">
<rect width="10.8" height="10.8" transform="translate(481.504 196.609)" fill="#C2C2C2"/>
</g>
<g opacity="0.2">
<rect width="10.8" height="10.8" transform="translate(522.131 231.359)" fill="#C2C2C2"/>
</g>
<g opacity="0.2">
<path d="M228.443 310.69L220.943 299.891L213.443 310.691L228.443 310.69Z" fill="#C2C2C2"/>
</g>
<g opacity="0.2">
<path d="M176.068 393.901L168.568 383.102L161.068 393.902L176.068 393.901Z" fill="#C2C2C2"/>
</g>
<g opacity="0.2">
<path d="M272.986 273.979L265.486 263.18L257.986 273.98L272.986 273.979Z" fill="#C2C2C2"/>
</g>
<g opacity="0.2">
<path d="M272.986 207.893L265.486 197.094L257.986 207.894L272.986 207.893Z" fill="#C2C2C2"/>
</g>
<g opacity="0.2">
<path d="M310.188 221.604L302.687 210.805L295.188 221.605L310.188 221.604Z" fill="#C2C2C2"/>
</g>
<g opacity="0.2">
<path d="M373.82 147.198L366.32 136.398L358.82 147.198L373.82 147.198Z" fill="#C2C2C2"/>
</g>
<g opacity="0.2">
<path d="M429.133 154.542L421.633 143.742L414.133 154.542L429.133 154.542Z" fill="#C2C2C2"/>
</g>
<g opacity="0.2">
<path d="M429.133 90.9088L421.633 80.1094L414.133 90.9094L429.133 90.9088Z" fill="#C2C2C2"/>
</g>
<g opacity="0.2">
<circle cx="6" cy="6" r="6" transform="matrix(-1 0 0 1 460.459 513.539)" fill="#C2C2C2"/>
</g>
<g opacity="0.2">
<circle cx="6" cy="6" r="6" transform="matrix(-1 0 0 1 485.424 512.07)" fill="#C2C2C2"/>
</g>
<g opacity="0.2">
<circle cx="6" cy="6" r="6" transform="matrix(-1 0 0 1 526.541 513.539)" fill="#C2C2C2"/>
</g>
<g opacity="0.2">
<circle cx="6" cy="6" r="6" transform="matrix(-1 0 0 1 547.588 522.352)" fill="#C2C2C2"/>
</g>
<g opacity="0.2">
<circle cx="6" cy="6" r="6" transform="matrix(-1 0 0 1 526.051 533.609)" fill="#C2C2C2"/>
</g>
<g opacity="0.2">
<circle cx="6" cy="6" r="6" transform="matrix(-1 0 0 1 499.619 528.711)" fill="#C2C2C2"/>
</g>
<g opacity="0.2">
<circle cx="6" cy="6" r="6" transform="matrix(-1 0 0 1 472.697 539.969)" fill="#C2C2C2"/>
</g>
<g opacity="0.2">
<circle cx="6" cy="6" r="6" transform="matrix(-1 0 0 1 492.766 555.141)" fill="#C2C2C2"/>
</g>
<g opacity="0.2">
<circle cx="6" cy="6" r="6" transform="matrix(-1 0 0 1 512.834 547.312)" fill="#C2C2C2"/>
</g>
<g opacity="0.2">
<circle cx="6" cy="6" r="6" transform="matrix(-1 0 0 1 536.33 550.25)" fill="#C2C2C2"/>
</g>
<g opacity="0.2">
<circle cx="6" cy="6" r="6" transform="matrix(-1 0 0 1 550.525 569.828)" fill="#C2C2C2"/>
</g>
<g opacity="0.2">
<circle cx="6" cy="6" r="6" transform="matrix(-1 0 0 1 521.156 569.828)" fill="#C2C2C2"/>
</g>
<g opacity="0.2">
<circle cx="6" cy="6" r="6" transform="matrix(-1 0 0 1 485.424 579.617)" fill="#C2C2C2"/>
</g>
<g opacity="0.2">
<circle cx="6" cy="6" r="6" transform="matrix(-1 0 0 1 512.834 588.43)" fill="#C2C2C2"/>
</g>
<g opacity="0.2">
<circle cx="6" cy="6" r="6" transform="matrix(-1 0 0 1 536.33 588.43)" fill="#C2C2C2"/>
</g>
<g opacity="0.2">
<circle cx="6" cy="6" r="6" transform="matrix(-1 0 0 1 550.525 588.43)" fill="#C2C2C2"/>
</g>
<g opacity="0.2">
<rect width="10.1823" height="10.1823" transform="matrix(-0.707107 -0.707107 -0.707107 0.707107 392.422 533.032)" fill="#C2C2C2"/>
</g>
<g opacity="0.2">
<rect width="10.1823" height="10.1823" transform="matrix(-0.707107 -0.707107 -0.707107 0.707107 373.82 574.642)" fill="#C2C2C2"/>
</g>
<g opacity="0.2">
<rect width="10.1823" height="10.1823" transform="matrix(-0.707107 -0.707107 -0.707107 0.707107 406.617 584.431)" fill="#C2C2C2"/>
</g>
<g opacity="0.2">
<rect width="10.1823" height="10.1823" transform="matrix(-0.707107 -0.707107 -0.707107 0.707107 434.027 627.993)" fill="#C2C2C2"/>
</g>
<g opacity="0.2">
<rect width="10.1823" height="10.1823" transform="matrix(-0.707107 -0.707107 -0.707107 0.707107 499.619 660.79)" fill="#C2C2C2"/>
</g>
<g opacity="0.2">
<rect width="10.1823" height="10.1823" transform="matrix(-0.707107 -0.707107 -0.707107 0.707107 499.619 660.79)" fill="#C2C2C2"/>
</g>
<g opacity="0.2">
<rect width="10.8" height="10.8" transform="translate(324.377 634.191)" fill="#C2C2C2"/>
</g>
<g opacity="0.2">
<rect width="10.8" height="10.8" transform="translate(422.273 756.558)" fill="#C2C2C2"/>
</g>
<g opacity="0.2">
<path d="M206.904 580.885L199.404 570.086L191.904 580.886L206.904 580.885Z" fill="#C2C2C2"/>
</g>
<g opacity="0.2">
<path d="M170.193 611.237L162.693 600.438L155.193 611.238L170.193 611.237Z" fill="#C2C2C2"/>
</g>
<g opacity="0.2">
<path d="M295.502 751.713L288.002 740.914L280.502 751.714L295.502 751.713Z" fill="#C2C2C2"/>
</g>
<g opacity="0.2">
<path d="M315.082 806.049L307.582 795.25L300.082 806.05L315.082 806.049Z" fill="#C2C2C2"/>
</g>
<g opacity="0.2">
<path d="M347.877 820.245L340.377 809.445L332.877 820.245L347.877 820.245Z" fill="#C2C2C2"/>
</g>
<g opacity="0.2">
<path d="M347.877 868.706L340.377 857.906L332.877 868.706L347.877 868.706Z" fill="#C2C2C2"/>
</g>
<g opacity="0.2">
<circle cx="6" cy="6" r="6" transform="matrix(-1 0 0 1 601.686 521.867)" fill="#C2C2C2"/>
</g>
<g opacity="0.2">
<circle cx="6" cy="6" r="6" transform="matrix(-1 0 0 1 624.691 514.039)" fill="#C2C2C2"/>
</g>
<g opacity="0.2">
<circle cx="6" cy="6" r="6" transform="matrix(-1 0 0 1 664.34 511.586)" fill="#C2C2C2"/>
</g>
<g opacity="0.2">
<circle cx="6" cy="6" r="6" transform="matrix(-1 0 0 1 688.816 514.039)" fill="#C2C2C2"/>
</g>
<g opacity="0.2">
<circle cx="6" cy="6" r="6" transform="matrix(-1 0 0 1 676.578 539.977)" fill="#C2C2C2"/>
</g>
<g opacity="0.2">
<circle cx="6" cy="6" r="6" transform="matrix(-1 0 0 1 652.104 528.719)" fill="#C2C2C2"/>
</g>
<g opacity="0.2">
<circle cx="6" cy="6" r="6" transform="matrix(-1 0 0 1 624.691 533.617)" fill="#C2C2C2"/>
</g>
<g opacity="0.2">
<circle cx="6" cy="6" r="6" transform="matrix(-1 0 0 1 638.398 549.281)" fill="#C2C2C2"/>
</g>
<g opacity="0.2">
<circle cx="6" cy="6" r="6" transform="matrix(-1 0 0 1 656.998 555.148)" fill="#C2C2C2"/>
</g>
<g opacity="0.2">
<circle cx="6" cy="6" r="6" transform="matrix(-1 0 0 1 664.34 577.672)" fill="#C2C2C2"/>
</g>
<g opacity="0.2">
<circle cx="6" cy="6" r="6" transform="matrix(-1 0 0 1 636.439 588.438)" fill="#C2C2C2"/>
</g>
<g opacity="0.2">
<circle cx="6" cy="6" r="6" transform="matrix(-1 0 0 1 628.119 568.859)" fill="#C2C2C2"/>
</g>
<g opacity="0.2">
<circle cx="6" cy="6" r="6" transform="matrix(-1 0 0 1 598.75 569.836)" fill="#C2C2C2"/>
</g>
<g opacity="0.2">
<circle cx="6" cy="6" r="6" transform="matrix(-1 0 0 1 595.812 587.945)" fill="#C2C2C2"/>
</g>
<g opacity="0.2">
<circle cx="6" cy="6" r="6" transform="matrix(-1 0 0 1 611.965 588.438)" fill="#C2C2C2"/>
</g>
<g opacity="0.2">
<rect width="10.1823" height="10.1823" transform="matrix(-0.707107 -0.707107 -0.707107 0.707107 648.631 660.786)" fill="#C2C2C2"/>
</g>
<g opacity="0.2">
<rect width="10.1823" height="10.1823" transform="matrix(-0.707107 -0.707107 -0.707107 0.707107 654.994 660.786)" fill="#C2C2C2"/>
</g>
<g opacity="0.2">
<rect width="10.1823" height="10.1823" transform="matrix(-0.707107 -0.707107 -0.707107 0.707107 717.158 627.989)" fill="#C2C2C2"/>
</g>
<g opacity="0.2">
<rect width="10.1823" height="10.1823" transform="matrix(-0.707107 -0.707107 -0.707107 0.707107 744.08 584.427)" fill="#C2C2C2"/>
</g>
<g opacity="0.2">
<rect width="10.1823" height="10.1823" transform="matrix(-0.707107 -0.707107 -0.707107 0.707107 777.855 580.513)" fill="#C2C2C2"/>
</g>
<g opacity="0.2">
<rect width="10.1823" height="10.1823" transform="matrix(-0.707107 -0.707107 -0.707107 0.707107 759.256 533.521)" fill="#C2C2C2"/>
</g>
<g opacity="0.2">
<rect width="10.8" height="10.8" transform="translate(829.047 635.164)" fill="#C2C2C2"/>
</g>
<g opacity="0.2">
<path d="M943.412 580.401L935.912 569.602L928.412 580.402L943.412 580.401Z" fill="#C2C2C2"/>
</g>
<g opacity="0.2">
<path d="M974.25 608.792L966.75 597.992L959.25 608.792L974.25 608.792Z" fill="#C2C2C2"/>
</g>
<rect x="860" y="183" width="245" height="32" rx="16" fill="#222222"/>
<path d="M884.855 194.197C885.757 194.197 886.504 194.482 887.097 195.052C887.694 195.621 887.992 196.337 887.992 197.198C887.992 198.073 887.694 198.796 887.097 199.365C886.504 199.935 885.757 200.22 884.855 200.22H882.742V204H881.102V194.197H884.855ZM884.855 198.654C885.279 198.654 885.632 198.515 885.914 198.237C886.197 197.959 886.338 197.613 886.338 197.198C886.338 196.793 886.197 196.453 885.914 196.18C885.632 195.906 885.279 195.77 884.855 195.77H882.742V198.654H884.855ZM897.28 204L896.521 202.038H892.378L891.606 204H889.87L893.78 194.197H895.154L899.057 204H897.28ZM892.98 200.473H895.906L894.45 196.72L892.98 200.473ZM911.708 201.491C911.452 202.275 910.933 202.913 910.149 203.405C909.365 203.893 908.472 204.137 907.469 204.137C906.772 204.137 906.118 204.007 905.507 203.747C904.897 203.487 904.375 203.134 903.942 202.688C903.509 202.236 903.167 201.701 902.917 201.081C902.666 200.457 902.541 199.791 902.541 199.085C902.541 198.383 902.666 197.722 902.917 197.103C903.167 196.483 903.509 195.95 903.942 195.503C904.375 195.056 904.897 194.705 905.507 194.45C906.118 194.19 906.772 194.061 907.469 194.061C908.435 194.061 909.299 194.286 910.06 194.737C910.826 195.188 911.343 195.774 911.612 196.494L910.142 197.212C909.933 196.738 909.586 196.36 909.103 196.077C908.625 195.795 908.08 195.653 907.469 195.653C906.521 195.653 905.744 195.977 905.138 196.624C904.537 197.271 904.236 198.091 904.236 199.085C904.236 200.078 904.537 200.903 905.138 201.56C905.744 202.216 906.521 202.544 907.469 202.544C908.126 202.544 908.702 202.389 909.199 202.079C909.696 201.769 910.037 201.35 910.224 200.821L911.708 201.491ZM923.825 204H921.672L917.515 199.215V204H915.875V194.197H917.515V198.47L921.364 194.197H923.449L919.224 198.832L923.825 204ZM934.213 204L933.454 202.038H929.312L928.539 204H926.803L930.713 194.197H932.087L935.99 204H934.213ZM929.913 200.473H932.839L931.383 196.72L929.913 200.473ZM944.485 199.994V198.429H948.463V202.291C948.016 202.87 947.445 203.321 946.747 203.645C946.05 203.964 945.273 204.123 944.416 204.123C943.496 204.123 942.657 203.9 941.901 203.453C941.144 203.007 940.549 202.396 940.116 201.621C939.688 200.846 939.474 199.992 939.474 199.058C939.474 198.123 939.688 197.276 940.116 196.515C940.545 195.749 941.135 195.15 941.887 194.717C942.643 194.279 943.482 194.061 944.403 194.061C945.369 194.061 946.232 194.286 946.993 194.737C947.759 195.188 948.272 195.774 948.531 196.494L947.075 197.212C946.857 196.738 946.508 196.36 946.029 196.077C945.556 195.795 945.013 195.653 944.403 195.653C943.459 195.653 942.684 195.972 942.078 196.61C941.472 197.244 941.169 198.06 941.169 199.058C941.169 200.069 941.474 200.903 942.085 201.56C942.7 202.216 943.477 202.544 944.416 202.544C945.401 202.544 946.203 202.277 946.822 201.744V199.994H944.485ZM952.972 194.197H958.755V195.77H954.613V198.08H958.304V199.646H954.613V202.435H958.755V204H952.972V194.197ZM966.279 194.061C966.903 194.061 967.53 194.195 968.159 194.464C968.788 194.728 969.271 195.061 969.608 195.462L968.658 196.733C968.33 196.396 967.94 196.13 967.489 195.934C967.042 195.738 966.598 195.64 966.156 195.64C965.705 195.64 965.336 195.742 965.048 195.947C964.766 196.152 964.625 196.419 964.625 196.747C964.625 196.97 964.684 197.166 964.802 197.335C964.921 197.499 965.08 197.636 965.281 197.745C965.486 197.85 965.718 197.946 965.978 198.032C966.238 198.119 966.511 198.203 966.798 198.285C967.09 198.367 967.379 198.456 967.667 198.552C967.958 198.647 968.234 198.768 968.494 198.914C968.754 199.06 968.984 199.229 969.184 199.42C969.389 199.611 969.551 199.857 969.67 200.158C969.788 200.454 969.847 200.792 969.847 201.17C969.847 201.562 969.765 201.938 969.601 202.298C969.442 202.653 969.214 202.968 968.918 203.241C968.626 203.515 968.257 203.733 967.81 203.897C967.364 204.057 966.876 204.137 966.347 204.137C965.618 204.137 964.898 203.979 964.187 203.665C963.481 203.351 962.909 202.95 962.471 202.462L963.524 201.259C963.952 201.669 964.39 201.988 964.837 202.216C965.288 202.444 965.791 202.558 966.347 202.558C966.89 202.558 967.327 202.432 967.66 202.182C967.997 201.926 968.166 201.594 968.166 201.184C968.166 200.969 968.106 200.783 967.988 200.623C967.869 200.464 967.71 200.334 967.509 200.233C967.309 200.133 967.079 200.042 966.819 199.96C966.559 199.878 966.286 199.8 965.999 199.728C965.712 199.65 965.424 199.566 965.137 199.475C964.855 199.383 964.584 199.267 964.324 199.126C964.064 198.985 963.834 198.818 963.633 198.627C963.433 198.436 963.273 198.192 963.155 197.896C963.036 197.599 962.977 197.26 962.977 196.877C962.977 196.075 963.287 195.405 963.907 194.867C964.527 194.329 965.317 194.061 966.279 194.061ZM988.661 204H986.562L985.496 202.865C985.036 203.289 984.578 203.608 984.122 203.822C983.671 204.032 983.167 204.137 982.611 204.137C981.759 204.137 981.039 203.875 980.451 203.351C979.868 202.822 979.576 202.166 979.576 201.382C979.576 201.022 979.626 200.696 979.727 200.404C979.831 200.113 979.982 199.86 980.178 199.646C980.378 199.431 980.583 199.251 980.793 199.105C981.007 198.955 981.26 198.809 981.552 198.668C981.278 198.344 981.062 198.019 980.902 197.69C980.747 197.362 980.67 196.998 980.67 196.597C980.67 195.881 980.925 195.28 981.436 194.792C981.946 194.304 982.577 194.061 983.329 194.061C984.058 194.061 984.669 194.304 985.161 194.792C985.658 195.28 985.906 195.881 985.906 196.597C985.906 196.925 985.858 197.221 985.763 197.485C985.667 197.75 985.528 197.982 985.346 198.183C985.163 198.379 984.972 198.547 984.771 198.688C984.576 198.825 984.341 198.962 984.067 199.099L985.523 200.657L987.041 199.153L988.169 200.179L986.59 201.785L988.661 204ZM982.181 196.569C982.181 196.788 982.254 197.009 982.399 197.232C982.55 197.451 982.771 197.715 983.062 198.025C983.495 197.825 983.826 197.615 984.054 197.396C984.286 197.173 984.402 196.897 984.402 196.569C984.402 196.269 984.298 196.013 984.088 195.804C983.883 195.594 983.63 195.489 983.329 195.489C983.001 195.489 982.728 195.594 982.509 195.804C982.29 196.013 982.181 196.269 982.181 196.569ZM982.755 202.544C983.293 202.544 983.853 202.273 984.437 201.73L982.584 199.755C982.16 199.96 981.834 200.179 981.606 200.411C981.383 200.644 981.271 200.931 981.271 201.272C981.271 201.646 981.41 201.951 981.688 202.188C981.966 202.425 982.322 202.544 982.755 202.544ZM998.554 194.197H1000.19V202.435H1004.88V204H998.554V194.197ZM1009 194.197H1010.64V204H1009V194.197ZM1015.23 204V194.197H1018.78C1019.6 194.197 1020.29 194.446 1020.86 194.942C1021.44 195.439 1021.72 196.036 1021.72 196.733C1021.72 197.216 1021.58 197.656 1021.29 198.053C1021.01 198.449 1020.66 198.704 1020.24 198.818C1020.8 198.91 1021.27 199.183 1021.64 199.639C1022.01 200.094 1022.2 200.63 1022.2 201.245C1022.2 202.015 1021.91 202.667 1021.33 203.2C1020.75 203.733 1020.05 204 1019.22 204H1015.23ZM1016.87 198.258H1018.74C1019.12 198.258 1019.43 198.135 1019.69 197.889C1019.95 197.643 1020.07 197.342 1020.07 196.986C1020.07 196.649 1019.94 196.362 1019.68 196.125C1019.42 195.888 1019.11 195.77 1018.74 195.77H1016.87V198.258ZM1016.87 202.435H1019.1C1019.51 202.435 1019.85 202.298 1020.12 202.024C1020.4 201.751 1020.53 201.416 1020.53 201.02C1020.53 200.618 1020.39 200.281 1020.12 200.008C1019.84 199.73 1019.51 199.591 1019.12 199.591H1016.87V202.435ZM1033.79 204H1031.8L1029.37 200.069H1027.93V204H1026.29V194.197H1029.97C1030.8 194.197 1031.5 194.48 1032.09 195.045C1032.68 195.605 1032.98 196.294 1032.98 197.109C1032.98 197.784 1032.81 198.367 1032.48 198.859C1032.15 199.347 1031.7 199.689 1031.12 199.885L1033.79 204ZM1027.93 195.783V198.497H1029.92C1030.32 198.497 1030.66 198.367 1030.92 198.107C1031.19 197.843 1031.32 197.51 1031.32 197.109C1031.32 196.722 1031.19 196.405 1030.92 196.159C1030.66 195.909 1030.32 195.783 1029.92 195.783H1027.93ZM1044.45 204L1043.69 202.038H1039.55L1038.77 204H1037.04L1040.95 194.197H1042.32L1046.22 204H1044.45ZM1040.15 200.473H1043.07L1041.62 196.72L1040.15 200.473ZM1057.55 204H1055.56L1053.13 200.069H1051.68V204H1050.04V194.197H1053.73C1054.55 194.197 1055.26 194.48 1055.85 195.045C1056.44 195.605 1056.73 196.294 1056.73 197.109C1056.73 197.784 1056.57 198.367 1056.24 198.859C1055.91 199.347 1055.45 199.689 1054.88 199.885L1057.55 204ZM1051.68 195.783V198.497H1053.67C1054.08 198.497 1054.41 198.367 1054.68 198.107C1054.95 197.843 1055.08 197.51 1055.08 197.109C1055.08 196.722 1054.95 196.405 1054.68 196.159C1054.41 195.909 1054.08 195.783 1053.67 195.783H1051.68ZM1061.4 194.197H1063.04V204H1061.4V194.197ZM1067.63 194.197H1073.42V195.77H1069.27V198.08H1072.96V199.646H1069.27V202.435H1073.42V204H1067.63V194.197ZM1080.94 194.061C1081.56 194.061 1082.19 194.195 1082.82 194.464C1083.45 194.728 1083.93 195.061 1084.27 195.462L1083.32 196.733C1082.99 196.396 1082.6 196.13 1082.15 195.934C1081.7 195.738 1081.26 195.64 1080.82 195.64C1080.37 195.64 1080 195.742 1079.71 195.947C1079.43 196.152 1079.29 196.419 1079.29 196.747C1079.29 196.97 1079.34 197.166 1079.46 197.335C1079.58 197.499 1079.74 197.636 1079.94 197.745C1080.15 197.85 1080.38 197.946 1080.64 198.032C1080.9 198.119 1081.17 198.203 1081.46 198.285C1081.75 198.367 1082.04 198.456 1082.33 198.552C1082.62 198.647 1082.89 198.768 1083.15 198.914C1083.41 199.06 1083.64 199.229 1083.84 199.42C1084.05 199.611 1084.21 199.857 1084.33 200.158C1084.45 200.454 1084.51 200.792 1084.51 201.17C1084.51 201.562 1084.43 201.938 1084.26 202.298C1084.1 202.653 1083.87 202.968 1083.58 203.241C1083.29 203.515 1082.92 203.733 1082.47 203.897C1082.02 204.057 1081.54 204.137 1081.01 204.137C1080.28 204.137 1079.56 203.979 1078.85 203.665C1078.14 203.351 1077.57 202.95 1077.13 202.462L1078.18 201.259C1078.61 201.669 1079.05 201.988 1079.5 202.216C1079.95 202.444 1080.45 202.558 1081.01 202.558C1081.55 202.558 1081.99 202.432 1082.32 202.182C1082.66 201.926 1082.83 201.594 1082.83 201.184C1082.83 200.969 1082.77 200.783 1082.65 200.623C1082.53 200.464 1082.37 200.334 1082.17 200.233C1081.97 200.133 1081.74 200.042 1081.48 199.96C1081.22 199.878 1080.95 199.8 1080.66 199.728C1080.37 199.65 1080.08 199.566 1079.8 199.475C1079.52 199.383 1079.24 199.267 1078.98 199.126C1078.72 198.985 1078.49 198.818 1078.29 198.627C1078.09 198.436 1077.93 198.192 1077.82 197.896C1077.7 197.599 1077.64 197.26 1077.64 196.877C1077.64 196.075 1077.95 195.405 1078.57 194.867C1079.19 194.329 1079.98 194.061 1080.94 194.061Z" fill="#595959"/>
<rect x="863" y="765" width="217" height="32" rx="16" fill="#222222"/>
<path d="M888.459 776.197C889.361 776.197 890.109 776.482 890.701 777.052C891.298 777.621 891.597 778.337 891.597 779.198C891.597 780.073 891.298 780.796 890.701 781.365C890.109 781.935 889.361 782.22 888.459 782.22H886.347V786H884.706V776.197H888.459ZM888.459 780.654C888.883 780.654 889.236 780.515 889.519 780.237C889.801 779.959 889.942 779.613 889.942 779.198C889.942 778.793 889.801 778.453 889.519 778.18C889.236 777.906 888.883 777.77 888.459 777.77H886.347V780.654H888.459ZM903.215 786H901.226L898.792 782.069H897.35V786H895.709V776.197H899.394C900.219 776.197 900.925 776.48 901.513 777.045C902.105 777.605 902.402 778.294 902.402 779.109C902.402 779.784 902.235 780.367 901.903 780.859C901.574 781.347 901.121 781.689 900.542 781.885L903.215 786ZM897.35 777.783V780.497H899.339C899.745 780.497 900.08 780.367 900.344 780.107C900.613 779.843 900.747 779.51 900.747 779.109C900.747 778.722 900.613 778.405 900.344 778.159C900.08 777.909 899.745 777.783 899.339 777.783H897.35ZM908.688 776.717C909.449 776.279 910.294 776.061 911.224 776.061C912.154 776.061 912.997 776.279 913.753 776.717C914.514 777.154 915.111 777.758 915.544 778.528C915.977 779.294 916.194 780.146 916.194 781.085C916.194 782.028 915.977 782.887 915.544 783.662C915.111 784.432 914.514 785.038 913.753 785.48C912.997 785.918 912.154 786.137 911.224 786.137C910.294 786.137 909.449 785.918 908.688 785.48C907.927 785.038 907.328 784.432 906.89 783.662C906.457 782.887 906.241 782.028 906.241 781.085C906.241 780.146 906.457 779.294 906.89 778.528C907.328 777.758 907.927 777.154 908.688 776.717ZM911.224 777.653C910.29 777.653 909.508 777.981 908.879 778.638C908.25 779.294 907.936 780.11 907.936 781.085C907.936 782.065 908.25 782.887 908.879 783.553C909.508 784.214 910.29 784.544 911.224 784.544C912.154 784.544 912.933 784.214 913.562 783.553C914.195 782.887 914.512 782.065 914.512 781.085C914.512 780.11 914.195 779.294 913.562 778.638C912.933 777.981 912.154 777.653 911.224 777.653ZM923.67 776.197C924.358 776.197 925.005 776.32 925.611 776.566C926.217 776.812 926.737 777.15 927.17 777.578C927.602 778.002 927.944 778.517 928.195 779.123C928.446 779.725 928.571 780.369 928.571 781.058C928.571 781.755 928.446 782.411 928.195 783.026C927.944 783.637 927.602 784.161 927.17 784.599C926.737 785.032 926.217 785.373 925.611 785.624C925.005 785.875 924.358 786 923.67 786H920.45V776.197H923.67ZM923.779 784.435C924.668 784.435 925.408 784.113 926.001 783.471C926.593 782.828 926.889 782.024 926.889 781.058C926.889 780.101 926.595 779.314 926.007 778.699C925.42 778.079 924.677 777.77 923.779 777.77H922.09V784.435H923.779ZM939.376 785.029C938.656 785.758 937.744 786.123 936.641 786.123C935.539 786.123 934.625 785.758 933.9 785.029C933.18 784.296 932.82 783.373 932.82 782.261V776.197H934.461V782.261C934.461 782.912 934.668 783.457 935.083 783.895C935.502 784.327 936.022 784.544 936.641 784.544C937.266 784.544 937.785 784.325 938.2 783.888C938.619 783.45 938.829 782.908 938.829 782.261V776.197H940.463V782.261C940.463 783.373 940.1 784.296 939.376 785.029ZM953.886 783.491C953.631 784.275 953.111 784.913 952.327 785.405C951.543 785.893 950.65 786.137 949.647 786.137C948.95 786.137 948.296 786.007 947.686 785.747C947.075 785.487 946.553 785.134 946.12 784.688C945.687 784.236 945.345 783.701 945.095 783.081C944.844 782.457 944.719 781.791 944.719 781.085C944.719 780.383 944.844 779.722 945.095 779.103C945.345 778.483 945.687 777.95 946.12 777.503C946.553 777.056 947.075 776.705 947.686 776.45C948.296 776.19 948.95 776.061 949.647 776.061C950.614 776.061 951.477 776.286 952.238 776.737C953.004 777.188 953.521 777.774 953.79 778.494L952.32 779.212C952.111 778.738 951.764 778.36 951.281 778.077C950.803 777.795 950.258 777.653 949.647 777.653C948.7 777.653 947.923 777.977 947.316 778.624C946.715 779.271 946.414 780.091 946.414 781.085C946.414 782.078 946.715 782.903 947.316 783.56C947.923 784.216 948.7 784.544 949.647 784.544C950.304 784.544 950.88 784.389 951.377 784.079C951.874 783.769 952.215 783.35 952.402 782.821L953.886 783.491ZM964.834 776.197V777.77H961.826V786H960.193V777.77H957.178V776.197H964.834ZM971.62 776.061C972.244 776.061 972.871 776.195 973.499 776.464C974.128 776.728 974.611 777.061 974.949 777.462L973.998 778.733C973.67 778.396 973.281 778.13 972.829 777.934C972.383 777.738 971.939 777.64 971.496 777.64C971.045 777.64 970.676 777.742 970.389 777.947C970.107 778.152 969.965 778.419 969.965 778.747C969.965 778.97 970.024 779.166 970.143 779.335C970.261 779.499 970.421 779.636 970.621 779.745C970.827 779.85 971.059 779.946 971.319 780.032C971.579 780.119 971.852 780.203 972.139 780.285C972.431 780.367 972.72 780.456 973.007 780.552C973.299 780.647 973.575 780.768 973.834 780.914C974.094 781.06 974.324 781.229 974.525 781.42C974.73 781.611 974.892 781.857 975.01 782.158C975.129 782.454 975.188 782.792 975.188 783.17C975.188 783.562 975.106 783.938 974.942 784.298C974.782 784.653 974.554 784.968 974.258 785.241C973.967 785.515 973.597 785.733 973.151 785.897C972.704 786.057 972.217 786.137 971.688 786.137C970.959 786.137 970.239 785.979 969.528 785.665C968.821 785.351 968.249 784.95 967.812 784.462L968.865 783.259C969.293 783.669 969.731 783.988 970.177 784.216C970.628 784.444 971.132 784.558 971.688 784.558C972.23 784.558 972.668 784.432 973 784.182C973.338 783.926 973.506 783.594 973.506 783.184C973.506 782.969 973.447 782.783 973.329 782.623C973.21 782.464 973.051 782.334 972.85 782.233C972.649 782.133 972.419 782.042 972.16 781.96C971.9 781.878 971.626 781.8 971.339 781.728C971.052 781.65 970.765 781.566 970.478 781.475C970.195 781.383 969.924 781.267 969.664 781.126C969.405 780.985 969.175 780.818 968.974 780.627C968.774 780.436 968.614 780.192 968.496 779.896C968.377 779.599 968.318 779.26 968.318 778.877C968.318 778.075 968.628 777.405 969.247 776.867C969.867 776.329 970.658 776.061 971.62 776.061ZM994.002 786H991.903L990.837 784.865C990.376 785.289 989.918 785.608 989.463 785.822C989.012 786.032 988.508 786.137 987.952 786.137C987.1 786.137 986.38 785.875 985.792 785.351C985.208 784.822 984.917 784.166 984.917 783.382C984.917 783.022 984.967 782.696 985.067 782.404C985.172 782.113 985.322 781.86 985.518 781.646C985.719 781.431 985.924 781.251 986.134 781.105C986.348 780.955 986.601 780.809 986.892 780.668C986.619 780.344 986.402 780.019 986.243 779.69C986.088 779.362 986.011 778.998 986.011 778.597C986.011 777.881 986.266 777.28 986.776 776.792C987.287 776.304 987.918 776.061 988.67 776.061C989.399 776.061 990.01 776.304 990.502 776.792C990.998 777.28 991.247 777.881 991.247 778.597C991.247 778.925 991.199 779.221 991.103 779.485C991.008 779.75 990.869 779.982 990.686 780.183C990.504 780.379 990.313 780.547 990.112 780.688C989.916 780.825 989.681 780.962 989.408 781.099L990.864 782.657L992.382 781.153L993.51 782.179L991.93 783.785L994.002 786ZM987.521 778.569C987.521 778.788 987.594 779.009 987.74 779.232C987.89 779.451 988.111 779.715 988.403 780.025C988.836 779.825 989.166 779.615 989.394 779.396C989.627 779.173 989.743 778.897 989.743 778.569C989.743 778.269 989.638 778.013 989.429 777.804C989.223 777.594 988.971 777.489 988.67 777.489C988.342 777.489 988.068 777.594 987.849 777.804C987.631 778.013 987.521 778.269 987.521 778.569ZM988.096 784.544C988.633 784.544 989.194 784.273 989.777 783.73L987.925 781.755C987.501 781.96 987.175 782.179 986.947 782.411C986.724 782.644 986.612 782.931 986.612 783.272C986.612 783.646 986.751 783.951 987.029 784.188C987.307 784.425 987.663 784.544 988.096 784.544ZM1011 776.197V777.77H1008V786H1006.36V777.77H1003.35V776.197H1011ZM1016.67 776.717C1017.43 776.279 1018.27 776.061 1019.2 776.061C1020.13 776.061 1020.98 776.279 1021.73 776.717C1022.49 777.154 1023.09 777.758 1023.52 778.528C1023.96 779.294 1024.17 780.146 1024.17 781.085C1024.17 782.028 1023.96 782.887 1023.52 783.662C1023.09 784.432 1022.49 785.038 1021.73 785.48C1020.98 785.918 1020.13 786.137 1019.2 786.137C1018.27 786.137 1017.43 785.918 1016.67 785.48C1015.91 785.038 1015.31 784.432 1014.87 783.662C1014.44 782.887 1014.22 782.028 1014.22 781.085C1014.22 780.146 1014.44 779.294 1014.87 778.528C1015.31 777.758 1015.91 777.154 1016.67 776.717ZM1019.2 777.653C1018.27 777.653 1017.49 777.981 1016.86 778.638C1016.23 779.294 1015.92 780.11 1015.92 781.085C1015.92 782.065 1016.23 782.887 1016.86 783.553C1017.49 784.214 1018.27 784.544 1019.2 784.544C1020.13 784.544 1020.91 784.214 1021.54 783.553C1022.18 782.887 1022.49 782.065 1022.49 781.085C1022.49 780.11 1022.18 779.294 1021.54 778.638C1020.91 777.981 1020.13 777.653 1019.2 777.653ZM1030.54 776.717C1031.3 776.279 1032.15 776.061 1033.08 776.061C1034.01 776.061 1034.85 776.279 1035.61 776.717C1036.37 777.154 1036.97 777.758 1037.4 778.528C1037.83 779.294 1038.05 780.146 1038.05 781.085C1038.05 782.028 1037.83 782.887 1037.4 783.662C1036.97 784.432 1036.37 785.038 1035.61 785.48C1034.85 785.918 1034.01 786.137 1033.08 786.137C1032.15 786.137 1031.3 785.918 1030.54 785.48C1029.78 785.038 1029.18 784.432 1028.74 783.662C1028.31 782.887 1028.1 782.028 1028.1 781.085C1028.1 780.146 1028.31 779.294 1028.74 778.528C1029.18 777.758 1029.78 777.154 1030.54 776.717ZM1033.08 777.653C1032.14 777.653 1031.36 777.981 1030.73 778.638C1030.11 779.294 1029.79 780.11 1029.79 781.085C1029.79 782.065 1030.11 782.887 1030.73 783.553C1031.36 784.214 1032.14 784.544 1033.08 784.544C1034.01 784.544 1034.79 784.214 1035.42 783.553C1036.05 782.887 1036.37 782.065 1036.37 781.085C1036.37 780.11 1036.05 779.294 1035.42 778.638C1034.79 777.981 1034.01 777.653 1033.08 777.653ZM1042.3 776.197H1043.95V784.435H1048.63V786H1042.3V776.197ZM1055.94 776.061C1056.56 776.061 1057.19 776.195 1057.82 776.464C1058.45 776.728 1058.93 777.061 1059.27 777.462L1058.32 778.733C1057.99 778.396 1057.6 778.13 1057.15 777.934C1056.7 777.738 1056.26 777.64 1055.82 777.64C1055.37 777.64 1055 777.742 1054.71 777.947C1054.43 778.152 1054.29 778.419 1054.29 778.747C1054.29 778.97 1054.34 779.166 1054.46 779.335C1054.58 779.499 1054.74 779.636 1054.94 779.745C1055.15 779.85 1055.38 779.946 1055.64 780.032C1055.9 780.119 1056.17 780.203 1056.46 780.285C1056.75 780.367 1057.04 780.456 1057.33 780.552C1057.62 780.647 1057.89 780.768 1058.15 780.914C1058.41 781.06 1058.64 781.229 1058.84 781.42C1059.05 781.611 1059.21 781.857 1059.33 782.158C1059.45 782.454 1059.51 782.792 1059.51 783.17C1059.51 783.562 1059.43 783.938 1059.26 784.298C1059.1 784.653 1058.87 784.968 1058.58 785.241C1058.29 785.515 1057.92 785.733 1057.47 785.897C1057.02 786.057 1056.54 786.137 1056.01 786.137C1055.28 786.137 1054.56 785.979 1053.85 785.665C1053.14 785.351 1052.57 784.95 1052.13 784.462L1053.18 783.259C1053.61 783.669 1054.05 783.988 1054.5 784.216C1054.95 784.444 1055.45 784.558 1056.01 784.558C1056.55 784.558 1056.99 784.432 1057.32 784.182C1057.66 783.926 1057.83 783.594 1057.83 783.184C1057.83 782.969 1057.77 782.783 1057.65 782.623C1057.53 782.464 1057.37 782.334 1057.17 782.233C1056.97 782.133 1056.74 782.042 1056.48 781.96C1056.22 781.878 1055.95 781.8 1055.66 781.728C1055.37 781.65 1055.08 781.566 1054.8 781.475C1054.52 781.383 1054.24 781.267 1053.98 781.126C1053.72 780.985 1053.49 780.818 1053.29 780.627C1053.09 780.436 1052.93 780.192 1052.82 779.896C1052.7 779.599 1052.64 779.26 1052.64 778.877C1052.64 778.075 1052.95 777.405 1053.57 776.867C1054.19 776.329 1054.98 776.061 1055.94 776.061Z" fill="#595959"/>
<defs>
<radialGradient id="paint0_radial_3694_52388" cx="0" cy="0" r="1" gradientUnits="userSpaceOnUse" gradientTransform="translate(572.5 499.618) rotate(90) scale(143.946 143.91)">
<stop offset="0.742857" stop-color="#111111" stop-opacity="0"/>
<stop offset="1" stop-color="#444444"/>
</radialGradient>
<radialGradient id="paint1_radial_3694_52388" cx="0" cy="0" r="1" gradientUnits="userSpaceOnUse" gradientTransform="translate(572.5 499.864) rotate(90) scale(247.083 246.774)">
<stop offset="0.875" stop-color="#111111" stop-opacity="0"/>
<stop offset="1" stop-color="#444444"/>
</radialGradient>
<radialGradient id="paint2_radial_3694_52388" cx="0" cy="0" r="1" gradientUnits="userSpaceOnUse" gradientTransform="translate(572.747 499.863) rotate(90) scale(349.972 349.884)">
<stop offset="0.917647" stop-color="#111111" stop-opacity="0"/>
<stop offset="1" stop-color="#444444"/>
</radialGradient>
<radialGradient id="paint3_radial_3694_52388" cx="0" cy="0" r="1" gradientUnits="userSpaceOnUse" gradientTransform="translate(572.501 499.617) rotate(90) scale(452.5 452.614)">
<stop offset="0.956818" stop-color="#111111" stop-opacity="0"/>
<stop offset="1" stop-color="#444444"/>
</radialGradient>
</defs>
</svg>
