<svg width="1920" height="365" viewBox="0 0 1920 365" fill="none" xmlns="http://www.w3.org/2000/svg">
<path d="M-266 456.825C-136.094 504.065 -76.8313 487.853 -46.9852 462.193C-33.4578 450.598 -15.7433 419.677 19.5782 358.049C49.9611 305.119 63.4885 274.52 96.8775 262.495C118.779 254.55 138.533 258.523 148.41 260.348C262.642 281.821 217.443 229.534 488.742 278.6C621.547 302.649 685.748 330.779 732.45 347.313C828.537 381.455 857.203 409.584 987.967 452.53C1111.32 493.114 1146.32 487.96 1171.55 478.298C1221.26 459.294 1233.93 422.575 1296.09 406.363C1337.85 395.412 1370.92 401.747 1400.23 406.363C1487.3 419.891 1573.62 397.774 1661.65 402.606C1875.19 414.201 1912.34 399.922 2006.28 420.858C2098.07 441.364 2140.69 489.571 2185.03 518.023" stroke="#595959" stroke-width="2" stroke-miterlimit="10"/>
<path d="M-265.033 429.768C-143.394 474.431 -84.668 461.977 -52.1379 438.894C-37.6443 428.587 -19.7151 399.92 15.6064 343.124C46.2041 293.844 61.6639 265.285 94.3014 253.475C116.203 245.53 135.742 248.429 145.512 249.932C255.342 266.466 220.45 217.079 479.08 260.454C606.302 281.497 670.933 306.084 718.923 321.329C813.4 351.284 845.179 378.018 971.22 418.172C1088.99 455.965 1125.17 452.529 1151.69 444.154C1200.76 428.694 1214.61 394.767 1274.3 381.668C1285.46 379.199 1295.98 378.233 1305.97 377.803C1331.63 376.73 1354.17 381.561 1375.22 385.641C1458.74 401.745 1543.56 384.245 1629.77 390.15C1641.9 391.009 1653.49 391.653 1664.55 392.297C1697.83 394.015 1726.71 394.123 1751.94 394.445C1856.51 395.84 1892.05 390.365 1964.09 397.558C2020.99 403.249 2057.17 414.629 2089.16 431.163C2122.77 448.556 2152.4 468.848 2184.18 486.456" stroke="#595959" stroke-width="2" stroke-miterlimit="10"/>
<path d="M-264.176 402.82C-150.803 444.907 -92.7215 436.211 -57.4 415.597C-42.0475 406.685 -23.7962 380.059 11.4179 328.095C42.3377 282.465 59.5153 255.838 91.616 244.243C113.517 236.298 132.842 238.231 142.612 239.304C247.932 251.114 223.347 204.84 469.309 242.096C591.163 260.455 655.901 281.284 705.394 295.134C798.261 321.116 833.26 346.239 954.47 383.602C1066.66 418.603 1103.92 416.885 1131.83 409.906C1180.03 397.774 1195.28 366.746 1252.61 356.868C1263.35 355.043 1273.65 355.151 1283.31 354.614C1307.47 353.433 1329.37 359.982 1350.31 364.813C1430.29 383.28 1513.6 370.504 1598.09 377.697C1610.01 378.663 1621.28 379.522 1632.24 380.166C1664.44 381.992 1692.89 382.421 1718.02 381.67C1817.54 378.556 1852.54 389.4 1922.11 374.369C1991.68 359.445 2031.94 382.743 2069.19 398.741C2106.45 414.63 2143.16 434.815 2183.42 455.107" stroke="#595959" stroke-width="2" stroke-miterlimit="10"/>
<path d="M-263.209 375.764C-158.103 415.382 -100.773 410.228 -62.4454 392.298C-46.1266 384.675 -27.4459 360.304 7.5535 313.171C38.7953 271.191 57.6907 246.497 89.1473 235.224C111.156 227.386 130.051 228.138 139.821 228.889C240.633 236.19 226.461 192.6 459.755 223.843C575.918 239.411 640.871 256.589 691.868 269.044C783.016 291.268 821.344 314.244 937.83 349.138C1044.55 381.132 1082.66 381.347 1111.97 375.657C1159.21 366.638 1176.06 338.831 1230.82 331.959C1241.23 330.671 1251.11 330.993 1260.55 331.422C1283.31 332.281 1304.46 338.401 1325.29 344.091C1401.63 364.813 1483.54 356.975 1566.21 365.242C1577.8 366.423 1588.97 367.39 1599.71 368.141C1630.84 370.288 1658.86 370.396 1683.88 368.893C1778.35 363.31 1813.03 372.65 1880.02 351.178C1961.62 324.981 2006.49 351.07 2049.12 366.209C2090.13 380.81 2133.82 400.565 2182.67 423.541" stroke="#595959" stroke-width="2" stroke-miterlimit="10"/>
<path d="M-262.35 348.816C-165.511 385.857 -108.932 384.246 -67.7055 369.001C-50.5279 362.666 -31.4178 340.442 3.4743 298.247C35.1456 259.918 55.6514 237.157 86.4637 226.098C108.473 218.261 127.261 217.295 136.923 218.368C232.474 229.105 229.468 180.254 450.093 205.592C560.781 218.368 625.842 232.004 678.341 242.955C767.664 261.529 809.428 282.572 921.082 314.782C1022.22 343.877 1061.29 345.702 1092.11 341.623C1138.27 335.396 1156.85 311.131 1209.02 307.373C1219.11 306.622 1228.67 307.695 1237.79 308.447C1259.05 310.165 1279.56 316.929 1300.28 323.478C1373.07 346.239 1453.37 343.448 1534.43 352.896C1545.81 354.184 1556.65 355.365 1567.18 356.117C1597.13 358.372 1624.72 358.372 1649.63 356.117C1738.95 348.279 1772.99 353.325 1837.83 327.987C1931.66 291.376 1980.94 319.398 2028.93 333.785C2073.59 347.098 2124.38 366.531 2181.81 392.191" stroke="#595959" stroke-width="2" stroke-miterlimit="10"/>
<path d="M-261.383 321.759C-172.811 356.223 -116.983 358.263 -72.8583 345.702C-54.8217 340.548 -35.0674 320.578 -0.604816 283.323C31.4959 248.537 53.6121 227.815 83.7803 217.079C105.789 209.241 124.255 207.201 133.918 207.953C224.959 215.576 232.367 167.906 440.216 187.446C545.322 197.324 610.597 207.631 664.599 216.971C751.99 232.003 797.296 250.899 904.12 280.424C999.563 306.728 1039.61 310.056 1072.03 307.48C1117.02 303.937 1137.41 281.175 1187.01 282.679C1196.78 283.001 1205.91 284.182 1214.82 285.363C1234.57 287.939 1254.33 295.348 1275.05 302.756C1344.3 327.45 1423.1 329.919 1502.33 340.548C1513.39 342.051 1524.13 343.232 1534.43 344.091C1563.31 346.56 1590.47 346.346 1615.27 343.447C1699.44 333.569 1727.25 315.21 1795.53 304.903C1910.19 287.617 1955.28 287.939 2008.64 301.36C2056.85 313.492 2114.82 332.388 2180.74 360.733" stroke="#595959" stroke-width="2" stroke-miterlimit="10"/>
<path d="M-260.523 294.812C-180.218 326.806 -125.25 332.174 -78.1184 322.512C-59.3304 318.646 -38.8246 300.931 -4.68403 268.4C27.9535 237.264 51.6801 218.475 81.2042 207.954C103.213 200.116 121.357 197.969 131.127 197.432C217.659 192.493 235.481 155.452 430.662 169.195C530.292 176.174 595.567 183.152 651.287 190.883C736.746 202.585 785.487 219.227 887.587 245.961C977.447 269.473 1018.89 279.351 1052.38 273.339C1095.54 265.608 1118.41 255.623 1165.54 257.985C1174.99 258.415 1183.79 260.777 1192.38 262.387C1210.63 265.716 1229.74 273.875 1250.36 282.142C1315.95 308.662 1393.36 316.392 1470.87 328.202C1481.72 329.812 1492.13 331.208 1502.33 332.174C1530.14 334.751 1556.87 334.429 1581.46 330.779C1660.47 318.969 1686.45 294.812 1753.77 281.82C1882.82 256.912 1930.16 256.482 1988.89 269.044C2040.74 280.103 2105.91 298.462 2180.31 329.49" stroke="#595959" stroke-width="2" stroke-miterlimit="10"/>
<path d="M-259.559 267.756C-187.52 297.174 -133.41 305.978 -83.2731 299.106C-63.6262 296.422 -42.2615 281.069 -8.65776 253.369C24.6239 225.884 49.7462 209.028 78.6261 198.828C100.635 190.99 118.564 187.984 128.227 186.91C209.928 178.321 238.485 142.891 420.998 150.943C515.045 155.023 580.428 158.888 637.758 164.793C721.284 173.383 773.569 187.555 870.837 211.497C955.115 232.218 997.2 243.492 1032.41 239.09C1074.82 233.936 1099.19 227.924 1143.64 233.077C1152.77 234.151 1161.14 237.05 1169.51 239.09C1186.26 243.169 1204.73 251.973 1225.23 261.207C1287.39 289.336 1363.19 302.649 1438.88 315.533C1449.4 317.358 1459.71 318.861 1469.69 319.828C1496.43 322.512 1522.62 322.19 1547.21 317.68C1621.18 304.152 1645.01 273.876 1711.47 258.308C1854.58 224.917 1904.5 224.703 1968.6 236.191C2024.1 246.068 2096.35 263.998 2179.24 297.711" stroke="#595959" stroke-width="2" stroke-miterlimit="10"/>
<path d="M-258.699 240.699C-194.927 267.54 -141.569 279.673 -88.4259 275.807C-67.9201 274.304 -45.6966 261.421 -12.737 238.445C21.1889 214.717 47.7068 199.793 75.9426 189.701C98.0588 181.863 115.558 177.891 125.328 176.388C202.306 164.47 241.492 130.328 411.229 132.583C499.801 133.764 565.183 134.516 624.124 138.488C705.61 144.071 761.438 155.667 853.982 176.817C932.677 194.747 975.407 201.726 1012.45 204.732C1053.89 208.06 1079.87 200.115 1121.74 208.168C1130.43 209.886 1138.59 213.321 1146.65 215.791C1162 220.515 1179.82 230.07 1200.11 240.377C1258.84 270.01 1333.02 288.906 1406.99 303.078C1417.3 305.011 1427.29 306.621 1437.06 307.695C1462.71 310.593 1488.48 310.164 1512.96 304.903C1581.78 289.872 1603.46 253.046 1669.28 235.116C1826.13 192.493 1878.95 193.351 1948.41 203.766C2007.46 212.57 2086.91 229.855 2178.38 266.252" stroke="#595959" stroke-width="2" stroke-miterlimit="10"/>
<path d="M-257.734 213.751C-202.229 238.122 -149.73 253.476 -93.5806 252.509C-72.2159 252.187 -49.0261 241.88 -16.7107 223.414C18.0741 203.551 45.773 190.345 73.4719 180.575C95.5881 172.737 112.873 167.906 122.536 165.866C194.789 150.728 244.712 117.659 401.672 114.331C484.769 112.506 550.151 110.359 610.703 112.399C690.256 115.083 749.627 124.101 837.447 142.353C910.452 157.599 954.148 165.329 992.798 170.483C1033.17 175.851 1060.86 172.523 1100.27 183.367C1108.64 185.729 1116.37 189.594 1124.21 192.6C1138.06 197.968 1155.23 208.275 1175.42 219.548C1230.71 250.577 1303.28 275.271 1375.43 290.516C1385.41 292.664 1395.29 294.381 1404.85 295.562C1429.43 298.569 1454.77 298.247 1479.03 292.019C1542.8 275.593 1562.02 232.003 1627.4 211.818C1797.68 159.21 1853.72 161.786 1928.55 171.127C1991.25 178.965 2077.78 195.606 2177.84 234.687" stroke="#595959" stroke-width="2" stroke-miterlimit="10"/>
<path d="M-256.875 186.696C-209.637 208.491 -157.889 227.065 -98.8408 229.212C-76.6172 229.964 -52.3538 222.555 -20.8972 208.491C14.7464 192.601 43.6263 181.005 70.681 171.45C92.7972 163.72 109.868 157.922 119.53 155.345C187.06 137.308 247.611 104.991 391.903 96.0801C469.417 91.2487 535.014 83.1963 597.068 86.3099C674.582 90.2824 737.495 92.537 820.592 107.89C888.014 120.452 932.676 128.826 972.829 136.342C1012.12 143.643 1041.54 145.146 1078.36 158.674C1086.42 161.68 1093.82 165.974 1101.45 169.625C1113.79 175.53 1130.43 186.588 1150.3 198.935C1202.37 231.252 1273.12 261.851 1343.44 278.17C1353.21 280.425 1362.76 282.25 1372.21 283.539C1395.61 286.652 1420.63 286.545 1444.78 279.244C1503.51 261.529 1520.26 211.067 1585.21 188.628C1768.48 125.283 1828.17 130.437 1908.37 138.704C1974.71 145.468 2068.33 161.572 2176.87 203.23" stroke="#595959" stroke-width="2" stroke-miterlimit="10"/>
<path d="M-256.016 159.746C-217.044 178.964 -166.048 200.759 -104.101 206.02C-81.0185 207.952 -55.5741 203.443 -24.9764 193.673C11.6334 181.97 41.6943 171.771 67.9975 162.537C90.1137 154.807 106.969 148.258 116.524 145.037C179.545 124.208 250.51 92.3208 382.026 78.0414C454.065 70.2038 519.555 62.7956 583.327 60.4336C659.123 57.6421 725.472 61.0778 803.844 73.6394C865.577 83.5169 911.419 92.4282 952.968 102.306C991.295 111.432 1022.32 117.874 1056.57 133.978C1064.3 137.629 1071.39 142.353 1078.69 146.54C1089.74 152.874 1105.63 164.792 1125.28 178.212C1174.13 211.71 1242.95 248.214 1311.66 265.822C1321.11 268.184 1330.45 270.224 1339.79 271.512C1362.12 274.841 1386.81 274.841 1410.75 266.466C1464.65 247.677 1478.5 190.023 1543.13 165.436C1739.06 90.8177 1802.72 99.0848 1888.29 106.171C1958.29 111.969 2058.99 127.322 2176.12 171.771" stroke="#595959" stroke-width="2" stroke-miterlimit="10"/>
<path d="M-255.049 132.691C-224.344 149.44 -174.099 174.348 -109.254 182.615C-85.3123 185.729 -58.9017 184.333 -28.9482 178.643C8.52052 171.45 39.7623 162.324 65.5288 153.305C87.645 145.575 104.286 138.274 113.841 134.409C172.46 111.003 253.731 79.2234 372.579 59.6831C439.035 48.7319 504.632 38.9618 569.907 34.2377C643.771 28.9769 713.448 29.621 786.989 39.1765C843.139 46.4773 890.055 55.7106 932.892 68.1649C970.253 79.0087 1002.78 90.4967 1034.67 109.285C1041.97 113.58 1048.84 118.626 1055.82 123.458C1065.48 130.222 1080.83 142.891 1100.16 157.492C1145.89 192.171 1212.78 234.687 1279.67 253.369C1288.9 255.945 1298.02 257.985 1307.04 259.488C1328.3 262.817 1352.67 263.354 1376.29 253.798C1425.35 234.043 1436.3 169.195 1500.72 142.354C1708.89 55.818 1776.96 67.9502 1867.89 73.8552C1941.54 78.5793 2049.33 93.3955 2174.94 140.421" stroke="#595959" stroke-width="2" stroke-miterlimit="10"/>
<path d="M-254.189 105.742C-223.484 125.068 -142.213 170.483 -33.0274 163.719C39.0113 159.317 90.7589 133.55 110.835 123.994C280.464 43.3636 805.348 -94.3851 1033.06 100.374C1063.12 126.142 1172.2 229.641 1274.62 247.464C1294.8 251.007 1318.85 251.865 1342.26 241.022C1386.6 220.408 1394.33 148.151 1458.74 119.163C1678.72 20.1729 1751.62 36.5996 1847.92 41.3237C1925.22 45.0814 2040.21 59.1462 2174.3 108.963" stroke="#595959" stroke-width="2" stroke-miterlimit="10"/>
</svg>
