<svg width="1920" height="541" viewBox="0 0 1920 541" fill="none" xmlns="http://www.w3.org/2000/svg">
<path d="M-26.002 97.4394C200.256 47.3247 347.017 83.1066 440.147 126.506C530.57 168.602 597.836 230.745 665.703 202.68C744.297 170.206 736.778 48.1265 826.098 27.2788C853.867 20.7638 880.733 44.3178 929.353 55.343C973.462 65.366 1037.02 72.783 1199.02 99.444C1346.68 123.8 1382.37 45.1196 1597 12.2443C1672.18 0.71791 1786.37 -7.8016 1932.83 17.2558" stroke="#595959" stroke-width="1.4" stroke-miterlimit="10"/>
<path d="M-26.8047 112.173C69.7333 104.556 150.633 101.95 214.39 100.948C261.807 100.246 294.888 95.7358 334.185 100.447C374.585 105.358 410.674 118.789 441.149 132.42C453.78 138.033 465.91 144.247 477.438 150.16C564.854 195.164 612.772 233.752 674.123 210.799C750.612 182.134 744.797 68.1727 828.604 44.6187C854.668 37.302 879.93 58.9516 925.843 64.8651C973.06 70.9791 1040.43 73.4849 1196.21 97.8406C1304.68 114.679 1357.51 80.2002 1463.87 53.9401C1501.26 44.719 1543.87 36.7006 1596.4 31.6891C1654.34 26.1765 1732.13 22.8689 1831.18 29.9852C1864.56 32.2905 1898.84 35.6983 1933.53 40.9103" stroke="#595959" stroke-width="1.4" stroke-miterlimit="10"/>
<path d="M-27.6055 127.307C74.2456 132.218 157.852 133.12 218.301 128.81C265.818 125.402 289.576 110.468 331.68 110.969C372.18 111.47 410.174 125.202 442.152 138.833C455.485 144.546 468.016 150.76 479.645 156.574C581.095 206.989 618.387 240.867 682.545 219.317C756.828 194.26 752.918 88.6181 831.211 62.3579C855.571 54.1391 879.631 73.1827 922.436 74.7864C973.261 76.6907 1044.04 74.4857 1193.5 96.6364C1299.77 111.972 1358.01 83.1054 1463.07 64.9639C1502.06 58.2485 1544.67 53.3373 1595.8 51.4329C1654.94 49.1276 1731.43 49.5285 1831.18 55.9432C1865.96 58.048 1900.65 60.654 1934.13 64.9639" stroke="#595959" stroke-width="1.4" stroke-miterlimit="10"/>
<path d="M-28.4062 144.246C78.8581 161.787 165.271 165.796 222.211 158.379C269.729 152.164 284.264 127.207 329.075 123.098C369.474 119.389 409.674 133.121 443.056 146.953C456.99 152.666 470.022 159.08 481.851 164.793C597.637 220.521 624.102 249.788 690.967 229.642C762.844 207.992 761.04 110.77 833.719 82.0038C856.375 72.8829 879.532 88.5187 918.929 86.6144C973.764 83.9082 1047.45 77.7942 1190.7 97.3389C1294.65 111.572 1358.61 88.4185 1462.17 77.9946C1502.87 73.8852 1545.37 72.2816 1595.2 73.1836C1655.64 74.2861 1730.83 78.2953 1831.28 83.808C1867.57 85.8125 1902.55 87.6167 1934.83 90.9243" stroke="#595959" stroke-width="1.4" stroke-miterlimit="10"/>
<path d="M-29.1094 164.793C83.4681 194.862 172.688 201.878 226.22 191.554C273.837 182.433 278.95 147.754 326.668 138.834C366.967 131.316 409.271 144.747 444.157 158.679C458.693 164.492 472.226 170.907 484.256 176.52C614.176 237.359 629.715 261.915 699.487 243.473C768.958 225.131 769.259 136.628 836.424 105.056C857.476 95.1335 879.631 106.66 915.619 101.849C974.565 94.0309 1051.15 84.2084 1188.09 101.448C1289.84 114.277 1359.51 97.539 1461.57 94.3316C1504.07 93.0286 1546.37 94.5321 1594.79 98.2406C1656.65 102.851 1730.33 110.268 1831.48 114.979C1869.27 116.783 1904.66 117.785 1935.63 120.191" stroke="#595959" stroke-width="1.4" stroke-miterlimit="10"/>
<path d="M-29.9102 191.455C87.9804 234.153 180.007 243.875 230.131 230.945C277.848 218.617 273.738 174.917 324.163 160.885C364.362 149.659 408.771 162.689 445.161 176.721C460.298 182.534 474.333 189.049 486.463 194.662C630.618 260.513 635.229 280.358 707.808 263.72C774.773 248.385 777.28 168.803 838.831 134.524C858.179 123.8 879.431 130.616 912.012 123.499C975.167 109.768 1054.56 97.0386 1185.18 111.973C1284.73 123.399 1360.12 113.577 1460.56 117.185C1504.77 118.788 1547.08 123.599 1593.99 129.814C1657.15 138.133 1729.43 148.657 1831.28 152.666C1870.47 154.169 1906.26 154.57 1936.14 155.974" stroke="#595959" stroke-width="1.4" stroke-miterlimit="10"/>
<path d="M-30.7129 218.517C92.591 273.743 187.325 285.971 234.14 270.636C281.858 255 268.625 202.48 321.656 183.136C361.955 168.402 408.369 180.73 446.163 194.863C461.901 200.776 476.437 207.391 488.768 212.904C647.258 283.666 640.742 298.7 716.228 284.067C780.587 271.638 785.399 200.977 841.437 164.092C859.181 152.465 879.33 154.27 908.502 145.249C975.567 124.702 1058.07 109.868 1182.38 122.597C1279.72 132.52 1360.82 129.914 1459.76 140.137C1505.77 144.848 1547.88 152.766 1593.39 161.486C1657.85 173.814 1728.82 187.045 1831.38 190.452C1872.08 191.655 1908.17 191.354 1936.84 191.856" stroke="#595959" stroke-width="1.4" stroke-miterlimit="10"/>
<path d="M-31.5137 241.871C97.1034 309.626 194.443 324.259 238.051 306.619C285.668 287.375 263.614 226.536 319.151 201.679C359.55 183.637 407.869 195.164 447.166 209.396C463.506 215.31 478.544 222.025 490.974 227.438C663.9 303.011 646.157 313.034 724.65 300.705C786.503 290.983 793.319 229.442 843.944 190.052C859.984 177.523 878.93 174.015 904.995 163.491C975.368 135.026 1061.58 119.19 1179.57 129.714C1274.71 138.233 1361.42 143.145 1458.86 159.482C1506.48 167.5 1548.58 178.526 1592.79 189.551C1658.45 205.888 1728.22 221.925 1831.38 224.631C1873.48 225.633 1909.97 224.631 1937.44 224.23" stroke="#595959" stroke-width="1.4" stroke-miterlimit="10"/>
<path d="M-32.3164 259.211C101.714 339.595 201.46 356.333 241.96 336.688C289.377 313.736 258.701 244.878 316.644 214.408C357.344 192.959 407.367 203.784 448.168 218.117C465.21 224.13 480.648 230.846 493.279 236.258C680.641 316.442 651.67 321.453 733.07 311.631C792.417 304.414 801.439 252.195 846.55 210.198C860.885 196.768 878.328 187.847 901.586 175.82C974.365 138.234 1065.19 122.397 1176.86 130.917C1269.79 137.733 1361.92 150.662 1458.06 173.013C1507.28 184.439 1549.28 198.472 1592.19 211.802C1659.05 232.449 1727.52 250.992 1831.48 253.097C1875.09 253.899 1911.98 252.094 1938.14 250.791" stroke="#595959" stroke-width="1.4" stroke-miterlimit="10"/>
<path d="M-33.0195 283.967C107.326 375.377 209.578 393.218 246.971 371.167C293.586 343.604 253.988 267.63 313.735 230.745C371.478 195.064 451.575 228.841 495.283 246.682C698.083 329.271 657.783 329.572 741.991 321.654C816.875 314.638 811.763 242.172 897.274 185.642C1034.01 95.1349 1250.14 119.491 1456.35 178.125C1589.98 216.112 1662.56 268.833 1831.58 269.133C1876.59 269.234 1913.88 266.327 1938.84 263.821" stroke="#595959" stroke-width="1.4" stroke-miterlimit="10"/>
<path d="M-33.1172 304.913C101.515 390.81 199.155 411.357 240.658 386.901C287.373 359.338 256.396 287.574 315.442 249.687C373.285 212.502 456.089 243.573 504.007 261.715C543.905 276.949 575.282 290.18 597.136 299.601C705.604 346.609 691.669 345.707 759.637 336.386C831.815 326.463 824.998 253.295 908.905 197.768C932.563 182.233 958.026 171.107 985.093 162.788C1073.21 135.726 1167.54 147.854 1275.51 170.305C1336.86 183.034 1396.61 187.044 1456.96 196.465C1511.39 204.884 1556.5 217.914 1604.92 232.848C1670.18 252.995 1736.44 268.831 1832.68 266.926C1850.93 266.526 1868.07 265.724 1883.81 264.521C1906.66 262.817 1925.11 260.311 1939.75 258.206" stroke="#595959" stroke-width="1.4" stroke-miterlimit="10"/>
<path d="M-33.416 320.449C94.6998 402.236 187.228 426.592 233.241 400.031C280.357 372.869 258.704 305.014 317.449 266.826C375.793 228.739 460.902 257.906 512.83 276.849C555.235 292.485 588.718 306.818 609.268 315.939C723.049 366.354 709.515 365.452 776.581 353.926C846.052 341.998 838.132 267.728 921.237 214.406C945.597 198.77 971.26 188.948 998.327 181.631C1089.25 157.275 1173.86 182.634 1280.92 212.001C1342.68 228.94 1399.32 223.226 1458.46 225.031C1510.29 226.634 1555 234.252 1605.02 248.284C1671.79 267.127 1738.85 281.961 1833.69 278.954C1851.73 278.353 1868.87 277.25 1884.81 275.747C1908.17 273.542 1926.01 270.435 1940.55 267.929" stroke="#595959" stroke-width="1.4" stroke-miterlimit="10"/>
<path d="M-33.7188 337.088C87.7807 414.766 175.397 442.93 225.821 414.365C273.238 387.503 261.108 323.657 319.452 285.069C378.297 245.979 465.612 273.342 521.65 293.187C566.561 309.224 602.149 324.759 621.396 333.479C740.49 387.403 727.257 386.401 793.52 372.569C860.285 358.637 851.463 283.365 933.666 232.047C958.728 216.411 984.591 207.792 1011.66 201.477C1105.39 179.928 1180.27 218.616 1286.44 254.799C1348.59 275.948 1401.82 260.813 1460.06 254.699C1509.18 249.587 1553.69 251.692 1605.32 264.722C1673.59 282.262 1741.36 295.994 1834.99 291.884C1852.83 291.082 1869.97 289.779 1886.21 287.975C1910.07 285.369 1927.31 281.661 1941.75 278.654" stroke="#595959" stroke-width="1.4" stroke-miterlimit="10"/>
<path d="M-34.0195 354.428C80.8636 427.997 163.467 459.87 218.403 429.3C266.12 402.739 263.414 342.902 321.557 303.912C380.903 263.921 470.524 289.379 530.472 310.026C577.889 326.464 615.582 343.303 633.526 351.521C757.933 409.053 745.001 407.951 810.462 391.814C874.52 375.977 864.796 299.703 945.996 250.39C971.76 234.754 997.824 227.337 1024.89 222.125C1121.43 203.382 1186.49 255.401 1291.85 298.3C1354.3 323.758 1404.23 299.302 1461.57 285.169C1507.98 273.743 1552.19 269.935 1605.42 282.062C1675.19 298.299 1743.66 310.928 1835.99 305.716C1853.63 304.714 1870.78 303.111 1887.22 301.106C1911.58 297.999 1928.22 293.689 1942.55 290.281" stroke="#595959" stroke-width="1.4" stroke-miterlimit="10"/>
<path d="M-34.3203 372.067C73.9466 441.526 151.538 477.108 210.984 444.633C259.003 418.373 265.819 362.545 323.562 323.255C383.409 282.261 475.336 305.916 539.294 327.365C589.116 344.203 629.015 362.245 645.656 370.062C775.275 431.303 762.744 430.1 827.404 411.457C888.755 393.817 878.229 316.54 958.427 269.031C984.892 253.395 1011.26 247.181 1038.22 242.971C1137.57 227.235 1192.8 292.485 1297.26 342.098C1360.02 371.867 1406.63 338.49 1463.07 315.838C1506.68 298.298 1550.69 288.275 1605.62 299.601C1676.9 314.535 1746.17 326.162 1837.09 319.847C1854.54 318.645 1871.68 316.841 1888.42 314.435C1913.28 310.927 1929.32 305.916 1943.55 302.007" stroke="#595959" stroke-width="1.4" stroke-miterlimit="10"/>
<path d="M-34.6191 390.009C67.0314 455.258 139.61 494.648 203.568 460.27C251.887 434.31 268.127 382.492 325.669 342.801C386.018 300.905 480.25 322.654 548.217 344.905C600.546 362.145 642.45 381.389 657.888 388.806C792.62 453.855 780.69 452.552 844.448 431.404C903.092 411.959 891.664 333.68 970.859 288.075C998.026 272.439 1024.59 267.528 1051.56 264.221C1153.81 251.592 1199.12 330.071 1302.78 386.2C1365.83 420.378 1409.34 378.282 1464.68 346.81C1505.68 323.456 1549.29 307.019 1605.82 317.443C1678.6 331.074 1748.58 341.598 1838.3 334.181C1855.54 332.778 1872.68 330.673 1889.62 328.067C1914.99 324.058 1930.32 318.445 1944.56 314.135" stroke="#595959" stroke-width="1.4" stroke-miterlimit="10"/>
<path d="M-34.9219 408.152C60.1124 469.292 127.679 512.29 196.148 476.007C244.768 450.248 270.531 402.539 327.672 362.447C388.522 319.649 484.96 339.494 557.037 362.547C611.872 380.188 655.881 400.735 669.916 407.651C809.76 476.709 798.432 475.105 861.287 451.451C917.325 430.403 904.995 350.921 983.188 307.12C1011.16 291.484 1037.82 287.876 1064.79 285.471C1169.85 276.049 1205.24 367.659 1308.19 430.403C1371.54 468.991 1412.14 418.375 1466.18 377.882C1504.77 348.916 1547.78 325.863 1605.92 335.385C1680.21 347.713 1750.88 357.135 1839.3 348.716C1856.34 347.112 1873.48 344.807 1890.72 341.8C1916.59 337.39 1931.32 331.175 1945.46 326.364" stroke="#595959" stroke-width="1.4" stroke-miterlimit="10"/>
<path d="M-35.2227 426.392C53.2955 483.423 115.649 529.929 188.729 491.942C237.55 466.384 272.937 422.784 329.677 382.391C391.128 338.591 489.771 356.632 565.859 380.487C623.2 398.528 669.314 420.378 682.045 426.793C826.802 499.96 816.276 498.056 878.229 471.696C931.661 449.044 918.528 368.559 995.518 326.463C1024.19 310.927 1051.16 308.522 1078.02 307.018C1185.99 300.804 1211.35 405.644 1313.5 474.803C1377.06 517.901 1415.25 458.866 1467.58 409.152C1504.07 374.473 1546.28 344.905 1606.02 353.525C1681.81 364.55 1753.29 372.97 1840.3 363.347C1857.14 361.443 1874.28 358.937 1891.73 355.73C1918.09 350.819 1932.23 344.003 1946.26 338.791" stroke="#595959" stroke-width="1.4" stroke-miterlimit="10"/>
<path d="M-35.0215 451.65C47.3816 503.77 105.324 553.283 182.515 512.49C231.435 486.63 275.745 446.639 331.783 405.244C439.047 325.962 667.611 431.304 694.677 445.035C845.148 521.109 835.524 518.704 896.174 489.036C946.799 464.279 931.762 382.592 1007.35 341.598C1036.62 325.762 1063.69 324.459 1090.55 323.457C1201.33 319.548 1217.87 437.117 1320.22 511.688C1428.59 590.669 1454.65 343.703 1605.82 361.143C1698.25 371.867 1783.26 379.084 1892.53 356.131C1919.4 350.519 1932.83 342.901 1946.66 337.088" stroke="#595959" stroke-width="1.4" stroke-miterlimit="10"/>
<path d="M-32.6152 486.932C34.2496 527.224 88.383 565.612 145.925 553.885C159.358 551.179 172.691 545.866 186.124 537.447C232.538 508.681 269.931 464.38 325.467 421.381C401.054 362.747 541.4 396.825 629.016 430.101C664.102 443.432 690.166 456.061 702.597 462.676C752.72 489.437 787.707 506.577 816.077 519.205C861.188 539.251 873.518 533.739 911.612 515.096C963.34 489.638 944.393 403.14 1018.38 361.444C1046.34 345.708 1072.91 344.405 1099.58 343.703C1204.94 341.198 1230 450.448 1331.35 518.203C1371.55 545.065 1400.02 529.329 1429.49 501.264C1458.06 474.102 1485.23 436.316 1515.7 411.659C1544.37 388.506 1576.05 375.176 1614.95 378.283C1626.67 379.185 1638 380.087 1649.73 381.189C1713.09 387.003 1769.33 394.62 1838.7 386.401C1856.64 384.296 1874.99 381.089 1893.83 376.779C1919.5 370.966 1933.03 363.248 1946.36 357.134" stroke="#595959" stroke-width="1.4" stroke-miterlimit="10"/>
<path d="M-31.0117 515.295C35.2516 554.184 92.2922 590.868 149.233 576.235C162.766 572.727 175.598 566.713 188.329 557.793C232.538 526.521 263.314 478.511 318.75 434.611C395.74 373.27 542.402 408.35 634.128 445.335C667.911 458.966 693.274 471.996 709.714 481.217C757.231 507.778 793.42 526.12 826.703 542.157C873.718 564.809 888.655 562.002 925.747 544.262C978.878 518.803 956.924 427.093 1029.7 385.598C1056.47 370.363 1082.63 369.261 1109.1 369.161C1209.15 369.161 1241.32 470.392 1340.97 532.334C1379.97 556.59 1408.14 542.458 1438.31 518.202C1469.89 492.744 1499.16 458.365 1526.73 437.818C1557.3 414.966 1588.38 404.041 1624.27 405.945C1635.7 406.546 1646.52 407.047 1658.25 408.15C1721.81 413.963 1773.04 426.793 1841.5 420.077C1859.25 418.373 1877.19 415.266 1895.44 410.956C1920 405.243 1933.63 397.526 1946.66 391.412" stroke="#595959" stroke-width="1.4" stroke-miterlimit="10"/>
<path d="M-29.3066 543.663C36.3552 581.148 96.303 616.028 152.642 598.588C166.275 594.379 178.706 587.663 190.535 578.142C232.539 544.364 256.799 492.545 312.135 447.743C390.428 383.796 543.605 419.779 639.241 460.472C671.822 474.304 696.382 487.734 716.832 499.562C761.944 525.621 799.336 545.366 837.43 564.911C886.451 589.969 903.894 590.069 939.882 573.23C994.316 547.772 969.455 450.85 1041.03 409.455C1066.69 394.721 1092.26 393.719 1118.72 394.321C1213.46 396.626 1252.75 490.14 1350.59 546.168C1388.29 567.718 1416.46 555.59 1447.03 534.842C1481.92 511.188 1513.4 480.518 1537.56 463.679C1570.14 440.927 1600.71 432.608 1633.39 433.41C1644.62 433.711 1654.84 433.911 1666.57 435.014C1730.43 440.827 1776.44 458.868 1844.11 453.656C1861.75 452.353 1879.3 449.246 1896.84 445.037C1920.4 439.424 1934.03 431.706 1946.76 425.492" stroke="#595959" stroke-width="1.4" stroke-miterlimit="10"/>
<path d="M-27.6074 571.926C37.5532 608.009 100.208 641.085 156.146 620.939C169.879 615.927 181.909 608.51 192.836 598.487C232.634 562.104 250.378 506.777 305.514 460.872C385.411 394.42 544.904 431.004 644.449 475.706C675.726 489.738 699.585 503.57 724.146 518.103C766.951 543.461 805.346 564.81 848.252 587.762C899.277 615.125 919.227 618.232 954.113 602.296C1009.95 576.837 982.081 474.804 1052.35 433.509C1076.92 419.176 1101.98 418.375 1128.24 419.678C1217.56 424.188 1263.98 510.085 1360.21 560.199C1396.6 579.143 1424.97 569.02 1455.75 551.68C1494.24 530.03 1527.83 503.169 1548.38 489.838C1583.16 467.186 1612.94 461.273 1642.61 461.072C1653.64 460.972 1663.26 460.872 1675.09 461.974C1739.15 467.888 1780.15 491.041 1846.81 487.332C1864.26 486.43 1881.4 483.424 1898.34 479.314C1920.8 473.801 1934.53 466.084 1946.86 459.87" stroke="#595959" stroke-width="1.4" stroke-miterlimit="10"/>
<path d="M-25.9004 604.301C38.6587 639.081 104.22 670.252 159.557 647.3C173.391 641.587 184.919 633.368 195.144 622.844C232.737 583.854 243.865 524.919 299 478.112C380.201 409.054 546.31 446.139 649.765 494.951C679.839 509.183 702.896 523.316 731.466 540.655C771.966 565.312 811.464 588.064 859.181 614.725C912.312 644.393 934.768 650.507 968.551 635.473C1025.79 610.014 994.916 502.769 1063.99 461.675C1087.34 447.843 1111.9 447.141 1138.07 449.146C1222.08 455.661 1275.51 534.241 1370.14 578.342C1405.23 594.679 1434 586.861 1464.87 572.629C1507.08 553.284 1542.87 530.232 1559.71 520.008C1596.7 497.457 1625.67 493.948 1652.24 492.746C1662.96 492.245 1672.08 491.944 1683.91 492.946C1748.27 498.86 1784.06 527.124 1849.92 525.02C1867.17 524.518 1884.01 521.612 1900.25 517.502C1921.6 512.09 1935.43 504.372 1947.46 498.058" stroke="#595959" stroke-width="1.4" stroke-miterlimit="10"/>
<path d="M-24.2988 639.181C39.6588 672.557 108.027 701.824 162.862 676.165C176.797 669.651 187.924 660.73 197.247 649.705C232.434 608.009 237.146 545.466 292.181 497.757C374.685 425.892 547.41 463.579 654.675 516.6C683.546 530.933 705.901 545.366 738.381 565.612C776.675 589.467 817.175 613.722 869.705 644.092C924.941 676.065 949.802 685.286 982.483 671.054C1041.23 645.595 1007.24 533.138 1075.11 492.144C1097.37 478.814 1121.43 478.112 1147.39 480.918C1226.08 489.338 1286.43 560.701 1379.56 598.788C1413.34 612.62 1442.52 607.107 1473.39 595.882C1519.41 579.143 1559.2 562.204 1570.33 552.582C1613.34 538.149 1637.7 528.828 1661.26 526.823C1671.78 525.921 1680.3 525.32 1692.13 526.422C1756.69 532.336 1787.37 565.813 1852.43 565.111C1869.47 564.911 1885.91 562.204 1901.55 558.095C1921.8 552.783 1935.83 545.065 1947.46 538.751" stroke="#595959" stroke-width="1.4" stroke-miterlimit="10"/>
<path d="M-22.5898 674.061C40.7663 706.035 111.942 733.297 166.376 705.032C180.411 697.715 191.037 688.093 199.558 676.567C232.439 632.165 230.634 566.014 285.67 517.402C369.577 442.932 549.019 480.819 659.993 538.25C687.761 552.583 709.414 567.317 745.804 590.47C781.893 613.422 823.496 639.282 880.637 673.36C937.978 707.538 965.245 719.866 996.823 706.636C1056.97 681.278 1019.98 563.608 1086.64 522.715C1107.8 509.885 1131.25 509.184 1157.12 512.792C1230.4 523.015 1297.76 587.463 1389.29 619.336C1421.67 630.562 1451.44 627.755 1482.32 619.236C1532.14 605.404 1573.95 591.673 1581.36 585.158C1627.08 572.228 1650.23 563.709 1670.58 561.002C1680.91 559.599 1688.83 558.797 1700.66 559.9C1765.42 565.813 1791.08 604.502 1855.24 605.304C1872.18 605.504 1888.22 602.898 1903.16 598.789C1922.3 593.577 1936.44 585.959 1947.67 579.445" stroke="#595959" stroke-width="1.4" stroke-miterlimit="10"/>
<path d="M-20.8887 708.841C41.866 739.411 115.848 764.669 169.781 733.798C183.816 725.679 194.041 715.356 201.86 703.328C232.235 656.22 224.215 586.561 279.051 537.047C364.261 459.871 550.62 497.958 665.102 560C691.668 574.433 712.82 589.267 752.919 615.527C786.802 637.678 829.507 664.94 891.36 702.727C950.806 739.11 980.58 754.646 1011.05 742.217C1072.61 717.06 1032.61 593.978 1097.97 553.184C1117.92 540.756 1140.98 540.054 1166.74 544.565C1234.81 556.492 1308.89 614.224 1399.01 639.783C1430.09 648.603 1460.26 648.503 1491.14 642.489C1544.87 632.065 1588.68 620.939 1592.29 617.632C1640.71 606.206 1662.46 598.288 1679.9 594.98C1689.93 593.076 1697.35 592.174 1709.18 593.276C1774.24 599.29 1794.69 643.09 1857.94 645.395C1874.68 645.997 1890.32 643.491 1904.66 639.382C1922.7 634.27 1936.94 626.652 1947.86 620.138" stroke="#595959" stroke-width="1.4" stroke-miterlimit="10"/>
<path d="M-19.1836 742.515C42.9696 771.682 119.659 795.036 173.191 761.459C243.564 717.258 203.866 618.632 272.435 555.487C359.049 475.704 552.325 513.591 670.316 580.444C714.124 605.301 743.496 631.762 902.188 730.889C963.839 769.377 995.918 788.22 1025.29 776.593C1088.35 751.636 1045.14 623.142 1109.4 582.549C1190.1 531.532 1338.76 683.18 1499.96 664.637C1557.5 658.022 1603.32 649.102 1603.32 649.102C1689.03 632.463 1688.53 622.942 1717.7 625.548C1782.96 631.561 1798.4 680.473 1860.75 684.382C1897.94 686.688 1929.02 671.553 1948.07 659.726" stroke="#595959" stroke-width="1.4" stroke-miterlimit="10"/>
</svg>
