<svg width="1049" height="869" viewBox="0 0 1049 869" fill="none" xmlns="http://www.w3.org/2000/svg">
<path d="M746.41 499.614C746.41 578.561 682.426 642.56 603.5 642.56C524.573 642.56 460.59 578.561 460.59 499.614C460.59 420.667 524.573 356.668 603.5 356.668C682.426 356.668 746.41 420.667 746.41 499.614Z" fill="url(#paint0_radial_2929_31970)" fill-opacity="0.2" stroke="#333333" stroke-width="2"/>
<path d="M849.274 499.862C849.274 635.771 739.236 745.944 603.5 745.944C467.764 745.944 357.727 635.771 357.727 499.862C357.727 363.953 467.764 253.779 603.5 253.779C739.236 253.779 849.274 363.953 849.274 499.862Z" fill="url(#paint1_radial_2929_31970)" fill-opacity="0.2" stroke="#333333" stroke-width="2"/>
<path d="M952.631 499.862C952.631 692.594 796.43 848.834 603.747 848.834C411.064 848.834 254.863 692.594 254.863 499.862C254.863 307.129 411.064 150.89 603.747 150.89C796.43 150.89 952.631 307.129 952.631 499.862Z" fill="url(#paint2_radial_2929_31970)" fill-opacity="0.2" stroke="#333333" stroke-width="2"/>
<path d="M1055.11 499.614C1055.11 748.97 852.92 951.114 603.501 951.114C354.081 951.114 151.887 748.97 151.887 499.614C151.887 250.258 354.081 48.1143 603.501 48.1143C852.92 48.1143 1055.11 250.258 1055.11 499.614Z" fill="url(#paint3_radial_2929_31970)" fill-opacity="0.2" stroke="#333333" stroke-width="2"/>
<line x1="151.053" y1="498.614" x2="1055.95" y2="498.614" stroke="#333333" stroke-width="2"/>
<line x1="604.256" y1="47.2075" x2="604.256" y2="953" stroke="#333333" stroke-width="2"/>
<path d="M618.686 379H620.156L616.222 369.2H615.06L611.154 379H612.582L613.436 376.83H617.832L618.686 379ZM613.954 375.542L615.648 371.244L617.328 375.542H613.954ZM626.292 369.2V373.162C625.928 372.518 624.976 372.028 624.01 372.028C622.12 372.028 620.678 373.582 620.678 375.584C620.678 377.586 622.12 379.14 624.01 379.14C624.962 379.14 625.914 378.65 626.292 378.006V379H627.594V369.2H626.292ZM624.262 377.922C622.946 377.922 621.938 376.914 621.938 375.584C621.938 374.24 622.946 373.246 624.262 373.246C625.102 373.246 625.928 373.722 626.292 374.394V376.788C625.928 377.446 625.102 377.922 624.262 377.922ZM632.396 372.028C630.408 372.028 628.868 373.582 628.868 375.598C628.868 377.6 630.408 379.14 632.396 379.14C634.37 379.14 635.924 377.6 635.924 375.598C635.924 373.582 634.37 372.028 632.396 372.028ZM632.396 373.26C633.67 373.26 634.664 374.268 634.664 375.598C634.664 376.9 633.67 377.908 632.396 377.908C631.108 377.908 630.128 376.9 630.128 375.598C630.128 374.268 631.108 373.26 632.396 373.26ZM640.937 372.028C639.985 372.028 639.033 372.518 638.655 373.162V372.168H637.353V381.492H638.655V378.006C639.019 378.65 639.985 379.14 640.937 379.14C642.827 379.14 644.269 377.586 644.269 375.584C644.269 373.582 642.827 372.028 640.937 372.028ZM640.685 377.922C639.845 377.922 639.019 377.446 638.655 376.774V374.38C639.019 373.722 639.845 373.246 640.685 373.246C642.001 373.246 643.009 374.254 643.009 375.584C643.009 376.928 642.001 377.922 640.685 377.922ZM649.226 377.81C649.086 377.852 648.876 377.88 648.722 377.88C647.966 377.88 647.378 377.362 647.378 376.48V373.4H649.226V372.168H647.378V370.32H646.09V372.168H644.76V373.4H646.09V376.536C646.09 378.16 647.112 379.084 648.554 379.084C648.82 379.084 649.1 379.028 649.296 378.944L649.226 377.81Z" fill="white"/>
<path d="M618.952 265.2H611.378V266.488H614.486V275H615.844V266.488H618.952V265.2ZM622.386 268.028C621.728 268.028 620.972 268.476 620.594 269.162V268.168H619.292V275H620.594V270.45C621 269.68 621.742 269.232 622.302 269.232C622.554 269.232 622.848 269.274 623.072 269.358L623.142 268.14C622.946 268.084 622.694 268.028 622.386 268.028ZM625.009 265.102C624.533 265.102 624.141 265.508 624.141 265.97C624.141 266.446 624.533 266.838 625.009 266.838C625.471 266.838 625.877 266.446 625.877 265.97C625.877 265.508 625.471 265.102 625.009 265.102ZM624.351 268.168V275H625.653V268.168H624.351ZM632.691 268.168V269.162C632.327 268.518 631.375 268.028 630.409 268.028C628.519 268.028 627.077 269.582 627.077 271.584C627.077 273.586 628.519 275.14 630.409 275.14C631.361 275.14 632.313 274.65 632.691 274.006V275H633.993V268.168H632.691ZM630.661 273.922C629.345 273.922 628.337 272.914 628.337 271.584C628.337 270.24 629.345 269.246 630.661 269.246C631.501 269.246 632.327 269.722 632.691 270.394V272.788C632.327 273.446 631.501 273.922 630.661 273.922ZM637.083 265.2H635.781V275H637.083V265.2Z" fill="white"/>
<path d="M618.686 173H620.156L616.222 163.2H615.06L611.154 173H612.582L613.436 170.83H617.832L618.686 173ZM613.954 169.542L615.648 165.244L617.328 169.542H613.954ZM623.587 173.14C625.141 173.14 626.205 172.272 626.205 171.096C626.205 168.506 622.243 169.388 622.243 168.002C622.243 167.47 622.705 167.12 623.419 167.12C624.035 167.12 624.959 167.386 625.463 167.876L626.023 166.896C625.435 166.322 624.469 166.028 623.545 166.028C622.005 166.028 620.955 166.868 620.955 168.114C620.955 170.634 624.903 169.612 624.903 171.138C624.903 171.656 624.371 172.062 623.573 172.062C622.789 172.062 621.809 171.712 621.277 171.194L620.745 172.16C621.403 172.748 622.523 173.14 623.587 173.14ZM629.944 173.14C631.498 173.14 632.562 172.272 632.562 171.096C632.562 168.506 628.6 169.388 628.6 168.002C628.6 167.47 629.062 167.12 629.776 167.12C630.392 167.12 631.316 167.386 631.82 167.876L632.38 166.896C631.792 166.322 630.826 166.028 629.902 166.028C628.362 166.028 627.312 166.868 627.312 168.114C627.312 170.634 631.26 169.612 631.26 171.138C631.26 171.656 630.728 172.062 629.93 172.062C629.146 172.062 628.166 171.712 627.634 171.194L627.102 172.16C627.76 172.748 628.88 173.14 629.944 173.14ZM640.319 169.29C640.319 167.456 638.891 166.028 637.057 166.028C635.097 166.028 633.571 167.582 633.571 169.556C633.571 171.6 635.125 173.14 637.071 173.14C638.471 173.14 639.619 172.566 640.137 171.642L639.101 170.97C638.751 171.586 637.981 171.964 637.113 171.964C635.881 171.964 634.999 171.18 634.845 169.934H640.291C640.305 169.766 640.319 169.444 640.319 169.29ZM634.887 168.842C635.125 167.82 635.937 167.204 637.001 167.204C638.079 167.204 638.863 167.89 638.989 168.842H634.887ZM644.081 173.14C645.635 173.14 646.699 172.272 646.699 171.096C646.699 168.506 642.737 169.388 642.737 168.002C642.737 167.47 643.199 167.12 643.913 167.12C644.529 167.12 645.453 167.386 645.957 167.876L646.517 166.896C645.929 166.322 644.963 166.028 644.039 166.028C642.499 166.028 641.449 166.868 641.449 168.114C641.449 170.634 645.397 169.612 645.397 171.138C645.397 171.656 644.865 172.062 644.067 172.062C643.283 172.062 642.303 171.712 641.771 171.194L641.239 172.16C641.897 172.748 643.017 173.14 644.081 173.14ZM650.438 173.14C651.992 173.14 653.056 172.272 653.056 171.096C653.056 168.506 649.094 169.388 649.094 168.002C649.094 167.47 649.556 167.12 650.27 167.12C650.886 167.12 651.81 167.386 652.314 167.876L652.874 166.896C652.286 166.322 651.32 166.028 650.396 166.028C648.856 166.028 647.806 166.868 647.806 168.114C647.806 170.634 651.754 169.612 651.754 171.138C651.754 171.656 651.222 172.062 650.424 172.062C649.64 172.062 648.66 171.712 648.128 171.194L647.596 172.16C648.254 172.748 649.374 173.14 650.438 173.14Z" fill="white"/>
<path d="M618.476 62.2V66.274H613.352V62.2H611.994V72H613.352V67.562H618.476V72H619.834V62.2H618.476ZM624.89 65.028C622.902 65.028 621.362 66.582 621.362 68.598C621.362 70.6 622.902 72.14 624.89 72.14C626.864 72.14 628.418 70.6 628.418 68.598C628.418 66.582 626.864 65.028 624.89 65.028ZM624.89 66.26C626.164 66.26 627.158 67.268 627.158 68.598C627.158 69.9 626.164 70.908 624.89 70.908C623.602 70.908 622.622 69.9 622.622 68.598C622.622 67.268 623.602 66.26 624.89 66.26ZM631.149 62.2H629.847V72H631.149V62.2ZM638.037 62.2V66.162C637.673 65.518 636.721 65.028 635.755 65.028C633.865 65.028 632.423 66.582 632.423 68.584C632.423 70.586 633.865 72.14 635.755 72.14C636.707 72.14 637.659 71.65 638.037 71.006V72H639.339V62.2H638.037ZM636.007 70.922C634.691 70.922 633.683 69.914 633.683 68.584C633.683 67.24 634.691 66.246 636.007 66.246C636.847 66.246 637.673 66.722 638.037 67.394V69.788C637.673 70.446 636.847 70.922 636.007 70.922Z" fill="white"/>
<g opacity="0.2">
<circle cx="6" cy="6" r="6" transform="matrix(-1 0 0 1 627.301 448.202)" fill="#C2C2C2"/>
</g>
<g opacity="0.2">
<circle cx="6" cy="6" r="6" transform="matrix(-1 0 0 1 646.881 458.483)" fill="#C2C2C2"/>
</g>
<g opacity="0.2">
<circle cx="6" cy="6" r="6" transform="matrix(-1 0 0 1 632.195 470.721)" fill="#C2C2C2"/>
</g>
<g opacity="0.2">
<circle cx="6" cy="6" r="6" transform="matrix(-1 0 0 1 662.545 476.592)" fill="#C2C2C2"/>
</g>
<g opacity="0.2">
<circle cx="6" cy="6" r="6" transform="matrix(-1 0 0 1 679.188 464.358)" fill="#C2C2C2"/>
</g>
<g opacity="0.2">
<circle cx="6" cy="6" r="6" transform="matrix(-1 0 0 1 705.131 475.616)" fill="#C2C2C2"/>
</g>
<g opacity="0.2">
<circle cx="6" cy="6" r="6" transform="matrix(-1 0 0 1 692.893 415.409)" fill="#C2C2C2"/>
</g>
<g opacity="0.2">
<circle cx="6" cy="6" r="6" transform="matrix(-1 0 0 1 667.439 404.639)" fill="#C2C2C2"/>
</g>
<g opacity="0.2">
<circle cx="6" cy="6" r="6" transform="matrix(-1 0 0 1 649.818 420.303)" fill="#C2C2C2"/>
</g>
<g opacity="0.2">
<circle cx="6" cy="6" r="6" transform="matrix(-1 0 0 1 628.281 423.241)" fill="#C2C2C2"/>
</g>
<g opacity="0.2">
<circle cx="6" cy="6" r="6" transform="matrix(-1 0 0 1 623.875 405.62)" fill="#C2C2C2"/>
</g>
<g opacity="0.2">
<rect width="10.1823" height="10.1823" transform="matrix(-0.707107 -0.707107 -0.707107 0.707107 636.064 317.858)" fill="#C2C2C2"/>
</g>
<g opacity="0.2">
<rect width="10.1823" height="10.1823" transform="matrix(-0.707107 -0.707107 -0.707107 0.707107 683.545 344.292)" fill="#C2C2C2"/>
</g>
<g opacity="0.2">
<rect width="10.1823" height="10.1823" transform="matrix(-0.707107 -0.707107 -0.707107 0.707107 731.025 329.604)" fill="#C2C2C2"/>
</g>
<g opacity="0.2">
<rect width="10.1823" height="10.1823" transform="matrix(-0.707107 -0.707107 -0.707107 0.707107 747.178 377.084)" fill="#C2C2C2"/>
</g>
<g opacity="0.2">
<rect width="10.1823" height="10.1823" transform="matrix(-0.707107 -0.707107 -0.707107 0.707107 775.08 423.588)" fill="#C2C2C2"/>
</g>
<g opacity="0.2">
<rect width="10.1823" height="10.1823" transform="matrix(-0.707107 -0.707107 -0.707107 0.707107 796.617 391.772)" fill="#C2C2C2"/>
</g>
<g opacity="0.2">
<rect width="10.1823" height="10.1823" transform="matrix(-0.707107 -0.707107 -0.707107 0.707107 790.252 471.069)" fill="#C2C2C2"/>
</g>
<g opacity="0.2">
<rect width="10.8" height="10.8" transform="translate(637.818 231.361)" fill="#C2C2C2"/>
</g>
<g opacity="0.2">
<rect width="10.8" height="10.8" transform="translate(676.488 196.607)" fill="#C2C2C2"/>
</g>
<g opacity="0.2">
<rect width="10.8" height="10.8" transform="translate(737.184 239.193)" fill="#C2C2C2"/>
</g>
<g opacity="0.2">
<rect width="10.8" height="10.8" transform="translate(815.992 291.568)" fill="#C2C2C2"/>
</g>
<g opacity="0.2">
<rect width="10.8" height="10.8" transform="translate(864.453 377.228)" fill="#C2C2C2"/>
</g>
<g opacity="0.2">
<rect width="10.8" height="10.8" transform="translate(916.828 444.291)" fill="#C2C2C2"/>
</g>
<g opacity="0.2">
<rect width="10.8" height="10.8" transform="translate(873.262 427.158)" fill="#C2C2C2"/>
</g>
<g opacity="0.2">
<path d="M695.402 121.256L687.902 110.457L680.402 121.257L695.402 121.256Z" fill="#C2C2C2"/>
</g>
<g opacity="0.2">
<path d="M754.141 139.858L746.64 129.059L739.141 139.859L754.141 139.858Z" fill="#C2C2C2"/>
</g>
<g opacity="0.2">
<path d="M836.375 147.198L828.875 136.398L821.375 147.198L836.375 147.198Z" fill="#C2C2C2"/>
</g>
<g opacity="0.2">
<path d="M839.801 202.022L832.301 191.223L824.801 202.023L839.801 202.022Z" fill="#C2C2C2"/>
</g>
<g opacity="0.2">
<path d="M931.824 269.573L924.324 258.773L916.824 269.573L931.824 269.573Z" fill="#C2C2C2"/>
</g>
<g opacity="0.2">
<path d="M1005.25 424.249L997.748 413.449L990.248 424.249L1005.25 424.249Z" fill="#C2C2C2"/>
</g>
<g opacity="0.2">
<circle cx="6" cy="6" r="6" transform="matrix(-1 0 0 1 509.422 480.509)" fill="#C2C2C2"/>
</g>
<g opacity="0.2">
<circle cx="6" cy="6" r="6" transform="matrix(-1 0 0 1 534.385 476.595)" fill="#C2C2C2"/>
</g>
<g opacity="0.2">
<circle cx="6" cy="6" r="6" transform="matrix(-1 0 0 1 560.818 480.998)" fill="#C2C2C2"/>
</g>
<g opacity="0.2">
<circle cx="6" cy="6" r="6" transform="matrix(-1 0 0 1 588.719 481.978)" fill="#C2C2C2"/>
</g>
<g opacity="0.2">
<circle cx="6" cy="6" r="6" transform="matrix(-1 0 0 1 583.824 457.994)" fill="#C2C2C2"/>
</g>
<g opacity="0.2">
<circle cx="6" cy="6" r="6" transform="matrix(-1 0 0 1 560.328 458.482)" fill="#C2C2C2"/>
</g>
<g opacity="0.2">
<circle cx="6" cy="6" r="6" transform="matrix(-1 0 0 1 538.791 457.013)" fill="#C2C2C2"/>
</g>
<g opacity="0.2">
<circle cx="6" cy="6" r="6" transform="matrix(-1 0 0 1 519.211 460.439)" fill="#C2C2C2"/>
</g>
<g opacity="0.2">
<circle cx="6" cy="6" r="6" transform="matrix(-1 0 0 1 492.779 452.119)" fill="#C2C2C2"/>
</g>
<g opacity="0.2">
<circle cx="6" cy="6" r="6" transform="matrix(-1 0 0 1 503.059 431.56)" fill="#C2C2C2"/>
</g>
<g opacity="0.2">
<circle cx="6" cy="6" r="6" transform="matrix(-1 0 0 1 515.295 414.427)" fill="#C2C2C2"/>
</g>
<g opacity="0.2">
<circle cx="6" cy="6" r="6" transform="matrix(-1 0 0 1 522.637 437.435)" fill="#C2C2C2"/>
</g>
<g opacity="0.2">
<circle cx="6" cy="6" r="6" transform="matrix(-1 0 0 1 551.518 437.435)" fill="#C2C2C2"/>
</g>
<g opacity="0.2">
<circle cx="6" cy="6" r="6" transform="matrix(-1 0 0 1 569.629 437.435)" fill="#C2C2C2"/>
</g>
<g opacity="0.2">
<circle cx="6" cy="6" r="6" transform="matrix(-1 0 0 1 590.676 433.029)" fill="#C2C2C2"/>
</g>
<g opacity="0.2">
<circle cx="6" cy="6" r="6" transform="matrix(-1 0 0 1 591.166 410.025)" fill="#C2C2C2"/>
</g>
<g opacity="0.2">
<circle cx="6" cy="6" r="6" transform="matrix(-1 0 0 1 570.117 414.427)" fill="#C2C2C2"/>
</g>
<g opacity="0.2">
<circle cx="6" cy="6" r="6" transform="matrix(-1 0 0 1 544.176 411.001)" fill="#C2C2C2"/>
</g>
<g opacity="0.2">
<circle cx="6" cy="6" r="6" transform="matrix(-1 0 0 1 575.014 393.869)" fill="#C2C2C2"/>
</g>
<g opacity="0.2">
<circle cx="6" cy="6" r="6" transform="matrix(-1 0 0 1 591.166 381.634)" fill="#C2C2C2"/>
</g>
<g opacity="0.2">
<circle cx="6" cy="6" r="6" transform="matrix(-1 0 0 1 576.971 369.396)" fill="#C2C2C2"/>
</g>
<g opacity="0.2">
<rect width="10.1823" height="10.1823" transform="matrix(-0.707107 -0.707107 -0.707107 0.707107 403.467 427.015)" fill="#C2C2C2"/>
</g>
<g opacity="0.2">
<rect width="10.1823" height="10.1823" transform="matrix(-0.707107 -0.707107 -0.707107 0.707107 463.674 376.597)" fill="#C2C2C2"/>
</g>
<g opacity="0.2">
<rect width="10.1823" height="10.1823" transform="matrix(-0.707107 -0.707107 -0.707107 0.707107 480.316 329.604)" fill="#C2C2C2"/>
</g>
<g opacity="0.2">
<rect width="10.1823" height="10.1823" transform="matrix(-0.707107 -0.707107 -0.707107 0.707107 497.447 307.089)" fill="#C2C2C2"/>
</g>
<g opacity="0.2">
<rect width="10.1823" height="10.1823" transform="matrix(-0.707107 -0.707107 -0.707107 0.707107 569.402 286.53)" fill="#C2C2C2"/>
</g>
<g opacity="0.2">
<rect width="10.1823" height="10.1823" transform="matrix(-0.707107 -0.707107 -0.707107 0.707107 569.402 318.347)" fill="#C2C2C2"/>
</g>
<g opacity="0.2">
<rect width="10.8" height="10.8" transform="translate(287.336 424.708)" fill="#C2C2C2"/>
</g>
<g opacity="0.2">
<rect width="10.8" height="10.8" transform="translate(355.375 361.075)" fill="#C2C2C2"/>
</g>
<g opacity="0.2">
<rect width="10.8" height="10.8" transform="translate(333.838 309.677)" fill="#C2C2C2"/>
</g>
<g opacity="0.2">
<rect width="10.8" height="10.8" transform="translate(374.465 291.075)" fill="#C2C2C2"/>
</g>
<g opacity="0.2">
<rect width="10.8" height="10.8" transform="translate(453.762 239.685)" fill="#C2C2C2"/>
</g>
<g opacity="0.2">
<rect width="10.8" height="10.8" transform="translate(512.5 196.606)" fill="#C2C2C2"/>
</g>
<g opacity="0.2">
<rect width="10.8" height="10.8" transform="translate(553.127 231.36)" fill="#C2C2C2"/>
</g>
<g opacity="0.2">
<path d="M258.033 310.689L250.533 299.89L243.033 310.69L258.033 310.689Z" fill="#C2C2C2"/>
</g>
<g opacity="0.2">
<path d="M205.658 393.9L198.158 383.101L190.658 393.901L205.658 393.9Z" fill="#C2C2C2"/>
</g>
<g opacity="0.2">
<path d="M302.576 273.978L295.076 263.179L287.576 273.979L302.576 273.978Z" fill="#C2C2C2"/>
</g>
<g opacity="0.2">
<path d="M302.576 207.896L295.076 197.097L287.576 207.897L302.576 207.896Z" fill="#C2C2C2"/>
</g>
<g opacity="0.2">
<path d="M339.777 221.599L332.277 210.8L324.777 221.6L339.777 221.599Z" fill="#C2C2C2"/>
</g>
<g opacity="0.2">
<path d="M403.41 147.201L395.91 136.401L388.41 147.201L403.41 147.201Z" fill="#C2C2C2"/>
</g>
<g opacity="0.2">
<path d="M458.723 154.541L451.222 143.741L443.723 154.541L458.723 154.541Z" fill="#C2C2C2"/>
</g>
<g opacity="0.2">
<path d="M458.723 90.9078L451.222 80.1084L443.723 90.9084L458.723 90.9078Z" fill="#C2C2C2"/>
</g>
<g opacity="0.2">
<circle cx="6" cy="6" r="6" transform="matrix(-1 0 0 1 490.332 512.416)" fill="#C2C2C2"/>
</g>
<g opacity="0.2">
<circle cx="6" cy="6" r="6" transform="matrix(-1 0 0 1 515.297 510.947)" fill="#C2C2C2"/>
</g>
<g opacity="0.2">
<circle cx="6" cy="6" r="6" transform="matrix(-1 0 0 1 556.414 512.416)" fill="#C2C2C2"/>
</g>
<g opacity="0.2">
<circle cx="6" cy="6" r="6" transform="matrix(-1 0 0 1 577.461 521.225)" fill="#C2C2C2"/>
</g>
<g opacity="0.2">
<circle cx="6" cy="6" r="6" transform="matrix(-1 0 0 1 555.924 532.482)" fill="#C2C2C2"/>
</g>
<g opacity="0.2">
<circle cx="6" cy="6" r="6" transform="matrix(-1 0 0 1 529.492 527.588)" fill="#C2C2C2"/>
</g>
<g opacity="0.2">
<circle cx="6" cy="6" r="6" transform="matrix(-1 0 0 1 502.57 538.846)" fill="#C2C2C2"/>
</g>
<g opacity="0.2">
<circle cx="6" cy="6" r="6" transform="matrix(-1 0 0 1 522.639 554.021)" fill="#C2C2C2"/>
</g>
<g opacity="0.2">
<circle cx="6" cy="6" r="6" transform="matrix(-1 0 0 1 542.707 546.189)" fill="#C2C2C2"/>
</g>
<g opacity="0.2">
<circle cx="6" cy="6" r="6" transform="matrix(-1 0 0 1 566.203 549.127)" fill="#C2C2C2"/>
</g>
<g opacity="0.2">
<circle cx="6" cy="6" r="6" transform="matrix(-1 0 0 1 580.398 568.705)" fill="#C2C2C2"/>
</g>
<g opacity="0.2">
<circle cx="6" cy="6" r="6" transform="matrix(-1 0 0 1 551.029 568.705)" fill="#C2C2C2"/>
</g>
<g opacity="0.2">
<circle cx="6" cy="6" r="6" transform="matrix(-1 0 0 1 515.297 578.495)" fill="#C2C2C2"/>
</g>
<g opacity="0.2">
<circle cx="6" cy="6" r="6" transform="matrix(-1 0 0 1 542.707 587.307)" fill="#C2C2C2"/>
</g>
<g opacity="0.2">
<circle cx="6" cy="6" r="6" transform="matrix(-1 0 0 1 566.203 587.307)" fill="#C2C2C2"/>
</g>
<g opacity="0.2">
<circle cx="6" cy="6" r="6" transform="matrix(-1 0 0 1 580.398 587.307)" fill="#C2C2C2"/>
</g>
<g opacity="0.2">
<rect width="10.1823" height="10.1823" transform="matrix(-0.707107 -0.707107 -0.707107 0.707107 422.068 531.676)" fill="#C2C2C2"/>
</g>
<g opacity="0.2">
<rect width="10.1823" height="10.1823" transform="matrix(-0.707107 -0.707107 -0.707107 0.707107 403.467 573.281)" fill="#C2C2C2"/>
</g>
<g opacity="0.2">
<rect width="10.1823" height="10.1823" transform="matrix(-0.707107 -0.707107 -0.707107 0.707107 436.264 583.07)" fill="#C2C2C2"/>
</g>
<g opacity="0.2">
<rect width="10.1823" height="10.1823" transform="matrix(-0.707107 -0.707107 -0.707107 0.707107 463.674 626.637)" fill="#C2C2C2"/>
</g>
<g opacity="0.2">
<rect width="10.1823" height="10.1823" transform="matrix(-0.707107 -0.707107 -0.707107 0.707107 529.266 659.43)" fill="#C2C2C2"/>
</g>
<g opacity="0.2">
<rect width="10.1823" height="10.1823" transform="matrix(-0.707107 -0.707107 -0.707107 0.707107 529.266 659.43)" fill="#C2C2C2"/>
</g>
<g opacity="0.2">
<rect width="10.8" height="10.8" transform="translate(355.375 634.221)" fill="#C2C2C2"/>
</g>
<g opacity="0.2">
<rect width="10.8" height="10.8" transform="translate(453.271 756.592)" fill="#C2C2C2"/>
</g>
<g opacity="0.2">
<path d="M236.496 580.886L228.996 570.086L221.496 580.886L236.496 580.886Z" fill="#C2C2C2"/>
</g>
<g opacity="0.2">
<path d="M199.783 611.233L192.283 600.434L184.783 611.234L199.783 611.233Z" fill="#C2C2C2"/>
</g>
<g opacity="0.2">
<path d="M325.092 751.718L317.592 740.918L310.092 751.718L325.092 751.718Z" fill="#C2C2C2"/>
</g>
<g opacity="0.2">
<path d="M344.672 806.05L337.172 795.25L329.672 806.05L344.672 806.05Z" fill="#C2C2C2"/>
</g>
<g opacity="0.2">
<path d="M377.467 820.245L369.967 809.446L362.467 820.246L377.467 820.245Z" fill="#C2C2C2"/>
</g>
<g opacity="0.2">
<path d="M382.357 868.706L374.857 857.907L367.357 868.707L382.357 868.706Z" fill="#C2C2C2"/>
</g>
<g opacity="0.2">
<circle cx="6" cy="6" r="6" transform="matrix(-1 0 0 1 632.684 520.736)" fill="#C2C2C2"/>
</g>
<g opacity="0.2">
<circle cx="6" cy="6" r="6" transform="matrix(-1 0 0 1 655.691 512.904)" fill="#C2C2C2"/>
</g>
<g opacity="0.2">
<circle cx="6" cy="6" r="6" transform="matrix(-1 0 0 1 695.34 510.455)" fill="#C2C2C2"/>
</g>
<g opacity="0.2">
<circle cx="6" cy="6" r="6" transform="matrix(-1 0 0 1 719.812 512.904)" fill="#C2C2C2"/>
</g>
<g opacity="0.2">
<circle cx="6" cy="6" r="6" transform="matrix(-1 0 0 1 707.576 538.846)" fill="#C2C2C2"/>
</g>
<g opacity="0.2">
<circle cx="6" cy="6" r="6" transform="matrix(-1 0 0 1 683.102 527.588)" fill="#C2C2C2"/>
</g>
<g opacity="0.2">
<circle cx="6" cy="6" r="6" transform="matrix(-1 0 0 1 655.691 532.483)" fill="#C2C2C2"/>
</g>
<g opacity="0.2">
<circle cx="6" cy="6" r="6" transform="matrix(-1 0 0 1 669.396 548.146)" fill="#C2C2C2"/>
</g>
<g opacity="0.2">
<circle cx="6" cy="6" r="6" transform="matrix(-1 0 0 1 687.996 554.021)" fill="#C2C2C2"/>
</g>
<g opacity="0.2">
<circle cx="6" cy="6" r="6" transform="matrix(-1 0 0 1 695.34 576.537)" fill="#C2C2C2"/>
</g>
<g opacity="0.2">
<circle cx="6" cy="6" r="6" transform="matrix(-1 0 0 1 667.438 587.306)" fill="#C2C2C2"/>
</g>
<g opacity="0.2">
<circle cx="6" cy="6" r="6" transform="matrix(-1 0 0 1 659.117 567.728)" fill="#C2C2C2"/>
</g>
<g opacity="0.2">
<circle cx="6" cy="6" r="6" transform="matrix(-1 0 0 1 629.748 568.706)" fill="#C2C2C2"/>
</g>
<g opacity="0.2">
<circle cx="6" cy="6" r="6" transform="matrix(-1 0 0 1 626.811 586.818)" fill="#C2C2C2"/>
</g>
<g opacity="0.2">
<circle cx="6" cy="6" r="6" transform="matrix(-1 0 0 1 642.963 587.306)" fill="#C2C2C2"/>
</g>
<g opacity="0.2">
<rect width="10.1823" height="10.1823" transform="matrix(-0.707107 -0.707107 -0.707107 0.707107 679.629 659.431)" fill="#C2C2C2"/>
</g>
<g opacity="0.2">
<rect width="10.1823" height="10.1823" transform="matrix(-0.707107 -0.707107 -0.707107 0.707107 685.992 659.431)" fill="#C2C2C2"/>
</g>
<g opacity="0.2">
<rect width="10.1823" height="10.1823" transform="matrix(-0.707107 -0.707107 -0.707107 0.707107 748.158 626.634)" fill="#C2C2C2"/>
</g>
<g opacity="0.2">
<rect width="10.1823" height="10.1823" transform="matrix(-0.707107 -0.707107 -0.707107 0.707107 775.08 583.071)" fill="#C2C2C2"/>
</g>
<g opacity="0.2">
<rect width="10.1823" height="10.1823" transform="matrix(-0.707107 -0.707107 -0.707107 0.707107 808.854 579.153)" fill="#C2C2C2"/>
</g>
<g opacity="0.2">
<rect width="10.1823" height="10.1823" transform="matrix(-0.707107 -0.707107 -0.707107 0.707107 790.252 532.165)" fill="#C2C2C2"/>
</g>
<g opacity="0.2">
<rect width="10.8" height="10.8" transform="translate(860.045 635.201)" fill="#C2C2C2"/>
</g>
<g opacity="0.2">
<path d="M974.41 580.396L966.91 569.596L959.41 580.396L974.41 580.396Z" fill="#C2C2C2"/>
</g>
<g opacity="0.2">
<path d="M1005.25 608.786L997.748 597.987L990.248 608.787L1005.25 608.786Z" fill="#C2C2C2"/>
</g>
<rect x="14" y="701" width="192" height="32" rx="16" fill="#222222"/>
<path d="M34.9682 712.197H36.6088V722H34.9682V712.197ZM41.1998 712.197H42.6285L47.2633 718.835V712.197H48.9176V722H47.5025L42.8404 715.362V722H41.1998V712.197ZM53.5018 712.197H59.285V713.77H55.1424V716.299H58.8338V717.871H55.1424V722H53.5018V712.197ZM70.9307 722H68.9414L66.5078 718.069H65.0654V722H63.4248V712.197H67.1094C67.9343 712.197 68.6406 712.48 69.2285 713.045C69.821 713.605 70.1172 714.294 70.1172 715.109C70.1172 715.784 69.9509 716.367 69.6182 716.859C69.29 717.347 68.8366 717.689 68.2578 717.885L70.9307 722ZM65.0654 713.783V716.497H67.0547C67.4603 716.497 67.7953 716.367 68.0596 716.107C68.3285 715.843 68.4629 715.51 68.4629 715.109C68.4629 714.722 68.3285 714.405 68.0596 714.159C67.7953 713.909 67.4603 713.783 67.0547 713.783H65.0654ZM81.5852 722L80.8264 720.038H76.6838L75.9113 722H74.175L78.0852 712.197H79.4592L83.3625 722H81.5852ZM77.2854 718.473H80.2111L78.7551 714.72L77.2854 718.473ZM90.3734 712.061C90.9978 712.061 91.6244 712.195 92.2533 712.464C92.8822 712.728 93.3653 713.061 93.7025 713.462L92.7523 714.733C92.4242 714.396 92.0346 714.13 91.5834 713.934C91.1368 713.738 90.6925 713.64 90.2504 713.64C89.7992 713.64 89.4301 713.742 89.143 713.947C88.8604 714.152 88.7191 714.419 88.7191 714.747C88.7191 714.97 88.7784 715.166 88.8969 715.335C89.0154 715.499 89.1749 715.636 89.3754 715.745C89.5805 715.85 89.8129 715.946 90.0727 716.032C90.3324 716.119 90.6059 716.203 90.893 716.285C91.1846 716.367 91.474 716.456 91.7611 716.552C92.0528 716.647 92.3285 716.768 92.5883 716.914C92.8481 717.06 93.0782 717.229 93.2787 717.42C93.4838 717.611 93.6456 717.857 93.7641 718.158C93.8826 718.454 93.9418 718.792 93.9418 719.17C93.9418 719.562 93.8598 719.938 93.6957 720.298C93.5362 720.653 93.3083 720.968 93.0121 721.241C92.7204 721.515 92.3513 721.733 91.9047 721.897C91.4581 722.057 90.9704 722.137 90.4418 722.137C89.7126 722.137 88.9926 721.979 88.2816 721.665C87.5753 721.351 87.0033 720.95 86.5658 720.462L87.6186 719.259C88.0469 719.669 88.4844 719.988 88.9311 720.216C89.3822 720.444 89.8858 720.558 90.4418 720.558C90.9841 720.558 91.4216 720.432 91.7543 720.182C92.0915 719.926 92.2602 719.594 92.2602 719.184C92.2602 718.969 92.2009 718.783 92.0824 718.623C91.9639 718.464 91.8044 718.334 91.6039 718.233C91.4034 718.133 91.1732 718.042 90.9135 717.96C90.6537 717.878 90.3803 717.8 90.0932 717.728C89.8061 717.65 89.519 717.566 89.2318 717.475C88.9493 717.383 88.6781 717.267 88.4184 717.126C88.1586 716.985 87.9285 716.818 87.7279 716.627C87.5274 716.436 87.3679 716.192 87.2494 715.896C87.1309 715.599 87.0717 715.26 87.0717 714.877C87.0717 714.075 87.3816 713.405 88.0014 712.867C88.6212 712.329 89.4119 712.061 90.3734 712.061ZM104.897 712.197V713.77H101.889V722H100.255V713.77H97.2408V712.197H104.897ZM116.447 722H114.458L112.024 718.069H110.582V722H108.941V712.197H112.626C113.451 712.197 114.157 712.48 114.745 713.045C115.337 713.605 115.634 714.294 115.634 715.109C115.634 715.784 115.467 716.367 115.135 716.859C114.806 717.347 114.353 717.689 113.774 717.885L116.447 722ZM110.582 713.783V716.497H112.571C112.977 716.497 113.312 716.367 113.576 716.107C113.845 715.843 113.979 715.51 113.979 715.109C113.979 714.722 113.845 714.405 113.576 714.159C113.312 713.909 112.977 713.783 112.571 713.783H110.582ZM126.486 721.029C125.766 721.758 124.855 722.123 123.752 722.123C122.649 722.123 121.735 721.758 121.011 721.029C120.291 720.296 119.931 719.373 119.931 718.261V712.197H121.571V718.261C121.571 718.912 121.779 719.457 122.193 719.895C122.613 720.327 123.132 720.544 123.752 720.544C124.376 720.544 124.896 720.325 125.311 719.888C125.73 719.45 125.939 718.908 125.939 718.261V712.197H127.573V718.261C127.573 719.373 127.211 720.296 126.486 721.029ZM140.996 719.491C140.741 720.275 140.222 720.913 139.438 721.405C138.654 721.893 137.761 722.137 136.758 722.137C136.061 722.137 135.407 722.007 134.796 721.747C134.185 721.487 133.664 721.134 133.231 720.688C132.798 720.236 132.456 719.701 132.205 719.081C131.955 718.457 131.829 717.791 131.829 717.085C131.829 716.383 131.955 715.722 132.205 715.103C132.456 714.483 132.798 713.95 133.231 713.503C133.664 713.056 134.185 712.705 134.796 712.45C135.407 712.19 136.061 712.061 136.758 712.061C137.724 712.061 138.588 712.286 139.349 712.737C140.114 713.188 140.632 713.774 140.901 714.494L139.431 715.212C139.221 714.738 138.875 714.36 138.392 714.077C137.913 713.795 137.369 713.653 136.758 713.653C135.81 713.653 135.033 713.977 134.427 714.624C133.825 715.271 133.525 716.091 133.525 717.085C133.525 718.078 133.825 718.903 134.427 719.56C135.033 720.216 135.81 720.544 136.758 720.544C137.414 720.544 137.991 720.389 138.488 720.079C138.984 719.769 139.326 719.35 139.513 718.821L140.996 719.491ZM151.945 712.197V713.77H148.937V722H147.303V713.77H144.288V712.197H151.945ZM162.545 721.029C161.824 721.758 160.913 722.123 159.81 722.123C158.707 722.123 157.794 721.758 157.069 721.029C156.349 720.296 155.989 719.373 155.989 718.261V712.197H157.63V718.261C157.63 718.912 157.837 719.457 158.252 719.895C158.671 720.327 159.19 720.544 159.81 720.544C160.435 720.544 160.954 720.325 161.369 719.888C161.788 719.45 161.998 718.908 161.998 718.261V712.197H163.631V718.261C163.631 719.373 163.269 720.296 162.545 721.029ZM175.728 722H173.739L171.305 718.069H169.863V722H168.222V712.197H171.907C172.732 712.197 173.438 712.48 174.026 713.045C174.619 713.605 174.915 714.294 174.915 715.109C174.915 715.784 174.749 716.367 174.416 716.859C174.088 717.347 173.634 717.689 173.055 717.885L175.728 722ZM169.863 713.783V716.497H171.852C172.258 716.497 172.593 716.367 172.857 716.107C173.126 715.843 173.261 715.51 173.261 715.109C173.261 714.722 173.126 714.405 172.857 714.159C172.593 713.909 172.258 713.783 171.852 713.783H169.863ZM179.581 712.197H185.364V713.77H181.222V716.08H184.913V717.646H181.222V720.435H185.364V722H179.581V712.197Z" fill="#595959"/>
<rect x="0.5" y="134" width="291" height="32" rx="16" fill="#222222"/>
<path d="M21.8748 145.197H23.5154V153.435H28.2049V155H21.8748V145.197ZM38.9551 155L38.1963 153.038H34.0537L33.2812 155H31.5449L35.4551 145.197H36.8291L40.7324 155H38.9551ZM34.6553 151.473H37.5811L36.125 147.72L34.6553 151.473ZM44.551 145.197H45.9797L50.6145 151.835V145.197H52.2687V155H50.8537L46.1916 148.362V155H44.551V145.197ZM61.5287 150.994V149.429H65.5072V153.291C65.0606 153.87 64.4887 154.321 63.7914 154.645C63.0941 154.964 62.3171 155.123 61.4604 155.123C60.5398 155.123 59.7012 154.9 58.9447 154.453C58.1882 154.007 57.5935 153.396 57.1605 152.621C56.7322 151.846 56.518 150.992 56.518 150.058C56.518 149.123 56.7322 148.276 57.1605 147.515C57.5889 146.749 58.1791 146.15 58.9311 145.717C59.6876 145.279 60.5261 145.061 61.4467 145.061C62.4128 145.061 63.2764 145.286 64.0375 145.737C64.8031 146.188 65.3158 146.774 65.5756 147.494L64.1195 148.212C63.9008 147.738 63.5521 147.36 63.0736 147.077C62.5997 146.795 62.0574 146.653 61.4467 146.653C60.5033 146.653 59.7286 146.972 59.1225 147.61C58.5163 148.244 58.2133 149.06 58.2133 150.058C58.2133 151.069 58.5186 151.903 59.1293 152.56C59.7445 153.216 60.5215 153.544 61.4604 153.544C62.4447 153.544 63.2468 153.277 63.8666 152.744V150.994H61.5287ZM76.5719 154.029C75.8518 154.758 74.9404 155.123 73.8375 155.123C72.7346 155.123 71.8209 154.758 71.0963 154.029C70.3762 153.296 70.0162 152.373 70.0162 151.261V145.197H71.6568V151.261C71.6568 151.912 71.8642 152.457 72.2789 152.895C72.6982 153.327 73.2177 153.544 73.8375 153.544C74.4618 153.544 74.9814 153.325 75.3961 152.888C75.8154 152.45 76.025 151.908 76.025 151.261V145.197H77.6588V151.261C77.6588 152.373 77.2965 153.296 76.5719 154.029ZM88.3133 155L87.5545 153.038H83.4119L82.6395 155H80.9031L84.8133 145.197H86.1873L90.0906 155H88.3133ZM84.0135 151.473H86.9393L85.4832 147.72L84.0135 151.473ZM98.585 150.994V149.429H102.563V153.291C102.117 153.87 101.545 154.321 100.848 154.645C100.15 154.964 99.3734 155.123 98.5166 155.123C97.596 155.123 96.7575 154.9 96.001 154.453C95.2445 154.007 94.6497 153.396 94.2168 152.621C93.7884 151.846 93.5742 150.992 93.5742 150.058C93.5742 149.123 93.7884 148.276 94.2168 147.515C94.6452 146.749 95.2354 146.15 95.9873 145.717C96.7438 145.279 97.5824 145.061 98.5029 145.061C99.4691 145.061 100.333 145.286 101.094 145.737C101.859 146.188 102.372 146.774 102.632 147.494L101.176 148.212C100.957 147.738 100.608 147.36 100.13 147.077C99.6559 146.795 99.1136 146.653 98.5029 146.653C97.5596 146.653 96.7848 146.972 96.1787 147.61C95.5726 148.244 95.2695 149.06 95.2695 150.058C95.2695 151.069 95.5749 151.903 96.1855 152.56C96.8008 153.216 97.5778 153.544 98.5166 153.544C99.501 153.544 100.303 153.277 100.923 152.744V150.994H98.585ZM107.072 145.197H112.856V146.77H108.713V149.08H112.404V150.646H108.713V153.435H112.856V155H107.072V145.197ZM120.379 145.061C121.004 145.061 121.63 145.195 122.259 145.464C122.888 145.728 123.371 146.061 123.708 146.462L122.758 147.733C122.43 147.396 122.04 147.13 121.589 146.934C121.143 146.738 120.698 146.64 120.256 146.64C119.805 146.64 119.436 146.742 119.149 146.947C118.866 147.152 118.725 147.419 118.725 147.747C118.725 147.97 118.784 148.166 118.903 148.335C119.021 148.499 119.181 148.636 119.381 148.745C119.586 148.85 119.819 148.946 120.079 149.032C120.338 149.119 120.612 149.203 120.899 149.285C121.19 149.367 121.48 149.456 121.767 149.552C122.059 149.647 122.334 149.768 122.594 149.914C122.854 150.06 123.084 150.229 123.285 150.42C123.49 150.611 123.651 150.857 123.77 151.158C123.888 151.454 123.948 151.792 123.948 152.17C123.948 152.562 123.866 152.938 123.702 153.298C123.542 153.653 123.314 153.968 123.018 154.241C122.726 154.515 122.357 154.733 121.911 154.897C121.464 155.057 120.976 155.137 120.448 155.137C119.718 155.137 118.998 154.979 118.287 154.665C117.581 154.351 117.009 153.95 116.572 153.462L117.624 152.259C118.053 152.669 118.49 152.988 118.937 153.216C119.388 153.444 119.892 153.558 120.448 153.558C120.99 153.558 121.427 153.432 121.76 153.182C122.097 152.926 122.266 152.594 122.266 152.184C122.266 151.969 122.207 151.783 122.088 151.623C121.97 151.464 121.81 151.334 121.61 151.233C121.409 151.133 121.179 151.042 120.919 150.96C120.66 150.878 120.386 150.8 120.099 150.728C119.812 150.65 119.525 150.566 119.238 150.475C118.955 150.383 118.684 150.267 118.424 150.126C118.164 149.985 117.934 149.818 117.734 149.627C117.533 149.436 117.374 149.192 117.255 148.896C117.137 148.599 117.078 148.26 117.078 147.877C117.078 147.075 117.387 146.405 118.007 145.867C118.627 145.329 119.418 145.061 120.379 145.061ZM142.762 155H140.663L139.596 153.865C139.136 154.289 138.678 154.608 138.222 154.822C137.771 155.032 137.268 155.137 136.712 155.137C135.86 155.137 135.139 154.875 134.552 154.351C133.968 153.822 133.677 153.166 133.677 152.382C133.677 152.022 133.727 151.696 133.827 151.404C133.932 151.113 134.082 150.86 134.278 150.646C134.479 150.431 134.684 150.251 134.893 150.105C135.108 149.955 135.36 149.809 135.652 149.668C135.379 149.344 135.162 149.019 135.003 148.69C134.848 148.362 134.77 147.998 134.77 147.597C134.77 146.881 135.026 146.28 135.536 145.792C136.046 145.304 136.678 145.061 137.429 145.061C138.159 145.061 138.769 145.304 139.262 145.792C139.758 146.28 140.007 146.881 140.007 147.597C140.007 147.925 139.959 148.221 139.863 148.485C139.767 148.75 139.628 148.982 139.446 149.183C139.264 149.379 139.072 149.547 138.872 149.688C138.676 149.825 138.441 149.962 138.168 150.099L139.624 151.657L141.141 150.153L142.269 151.179L140.69 152.785L142.762 155ZM136.281 147.569C136.281 147.788 136.354 148.009 136.5 148.232C136.65 148.451 136.871 148.715 137.163 149.025C137.596 148.825 137.926 148.615 138.154 148.396C138.387 148.173 138.503 147.897 138.503 147.569C138.503 147.269 138.398 147.013 138.188 146.804C137.983 146.594 137.73 146.489 137.429 146.489C137.101 146.489 136.828 146.594 136.609 146.804C136.39 147.013 136.281 147.269 136.281 147.569ZM136.855 153.544C137.393 153.544 137.954 153.273 138.537 152.73L136.684 150.755C136.261 150.96 135.935 151.179 135.707 151.411C135.484 151.644 135.372 151.931 135.372 152.272C135.372 152.646 135.511 152.951 135.789 153.188C136.067 153.425 136.422 153.544 136.855 153.544ZM152.654 145.197H158.438V146.77H154.295V149.299H157.987V150.871H154.295V155H152.654V145.197ZM170.083 155H168.094L165.661 151.069H164.218V155H162.578V145.197H166.262C167.087 145.197 167.793 145.48 168.381 146.045C168.974 146.605 169.27 147.294 169.27 148.109C169.27 148.784 169.104 149.367 168.771 149.859C168.443 150.347 167.989 150.689 167.411 150.885L170.083 155ZM164.218 146.783V149.497H166.207C166.613 149.497 166.948 149.367 167.212 149.107C167.481 148.843 167.616 148.51 167.616 148.109C167.616 147.722 167.481 147.405 167.212 147.159C166.948 146.909 166.613 146.783 166.207 146.783H164.218ZM180.738 155L179.979 153.038H175.837L175.064 155H173.328L177.238 145.197H178.612L182.515 155H180.738ZM176.438 151.473H179.364L177.908 147.72L176.438 151.473ZM186.334 155V145.197H188.309L191.57 152.594L194.933 145.197H196.608V155H194.974V148.417L192.049 155H190.846L187.974 148.417V155H186.334ZM201.206 145.197H206.989V146.77H202.847V149.08H206.538V150.646H202.847V153.435H206.989V155H201.206V145.197ZM222.757 145.184H224.466L221.205 155H219.859L217.548 147.904L215.244 155H213.884L210.596 145.184H212.346L214.581 152.3L216.892 145.184H218.252L220.522 152.3L222.757 145.184ZM229.836 145.717C230.597 145.279 231.443 145.061 232.372 145.061C233.302 145.061 234.145 145.279 234.902 145.717C235.663 146.154 236.26 146.758 236.693 147.528C237.126 148.294 237.342 149.146 237.342 150.085C237.342 151.028 237.126 151.887 236.693 152.662C236.26 153.432 235.663 154.038 234.902 154.48C234.145 154.918 233.302 155.137 232.372 155.137C231.443 155.137 230.597 154.918 229.836 154.48C229.075 154.038 228.476 153.432 228.038 152.662C227.606 151.887 227.389 151.028 227.389 150.085C227.389 149.146 227.606 148.294 228.038 147.528C228.476 146.758 229.075 146.154 229.836 145.717ZM232.372 146.653C231.438 146.653 230.657 146.981 230.028 147.638C229.399 148.294 229.084 149.11 229.084 150.085C229.084 151.065 229.399 151.887 230.028 152.553C230.657 153.214 231.438 153.544 232.372 153.544C233.302 153.544 234.081 153.214 234.71 152.553C235.344 151.887 235.661 151.065 235.661 150.085C235.661 149.11 235.344 148.294 234.71 147.638C234.081 146.981 233.302 146.653 232.372 146.653ZM249.104 155H247.115L244.681 151.069H243.239V155H241.598V145.197H245.283C246.108 145.197 246.814 145.48 247.402 146.045C247.994 146.605 248.291 147.294 248.291 148.109C248.291 148.784 248.124 149.367 247.792 149.859C247.463 150.347 247.01 150.689 246.431 150.885L249.104 155ZM243.239 146.783V149.497H245.228C245.634 149.497 245.969 149.367 246.233 149.107C246.502 148.843 246.636 148.51 246.636 148.109C246.636 147.722 246.502 147.405 246.233 147.159C245.969 146.909 245.634 146.783 245.228 146.783H243.239ZM260.907 155H258.754L254.597 150.215V155H252.957V145.197H254.597V149.47L258.446 145.197H260.531L256.306 149.832L260.907 155ZM267.439 145.061C268.064 145.061 268.69 145.195 269.319 145.464C269.948 145.728 270.431 146.061 270.769 146.462L269.818 147.733C269.49 147.396 269.101 147.13 268.649 146.934C268.203 146.738 267.758 146.64 267.316 146.64C266.865 146.64 266.496 146.742 266.209 146.947C265.926 147.152 265.785 147.419 265.785 147.747C265.785 147.97 265.844 148.166 265.963 148.335C266.081 148.499 266.241 148.636 266.441 148.745C266.646 148.85 266.879 148.946 267.139 149.032C267.398 149.119 267.672 149.203 267.959 149.285C268.251 149.367 268.54 149.456 268.827 149.552C269.119 149.647 269.395 149.768 269.654 149.914C269.914 150.06 270.144 150.229 270.345 150.42C270.55 150.611 270.712 150.857 270.83 151.158C270.949 151.454 271.008 151.792 271.008 152.17C271.008 152.562 270.926 152.938 270.762 153.298C270.602 153.653 270.374 153.968 270.078 154.241C269.786 154.515 269.417 154.733 268.971 154.897C268.524 155.057 268.036 155.137 267.508 155.137C266.779 155.137 266.059 154.979 265.348 154.665C264.641 154.351 264.069 153.95 263.632 153.462L264.685 152.259C265.113 152.669 265.55 152.988 265.997 153.216C266.448 153.444 266.952 153.558 267.508 153.558C268.05 153.558 268.488 153.432 268.82 153.182C269.158 152.926 269.326 152.594 269.326 152.184C269.326 151.969 269.267 151.783 269.148 151.623C269.03 151.464 268.87 151.334 268.67 151.233C268.469 151.133 268.239 151.042 267.979 150.96C267.72 150.878 267.446 150.8 267.159 150.728C266.872 150.65 266.585 150.566 266.298 150.475C266.015 150.383 265.744 150.267 265.484 150.126C265.225 149.985 264.994 149.818 264.794 149.627C264.593 149.436 264.434 149.192 264.315 148.896C264.197 148.599 264.138 148.26 264.138 147.877C264.138 147.075 264.448 146.405 265.067 145.867C265.687 145.329 266.478 145.061 267.439 145.061Z" fill="#595959"/>
<rect x="891" y="183" width="245" height="32" rx="16" fill="#222222"/>
<path d="M915.855 194.197C916.757 194.197 917.504 194.482 918.097 195.052C918.694 195.621 918.992 196.337 918.992 197.198C918.992 198.073 918.694 198.796 918.097 199.365C917.504 199.935 916.757 200.22 915.855 200.22H913.742V204H912.102V194.197H915.855ZM915.855 198.654C916.279 198.654 916.632 198.515 916.914 198.237C917.197 197.959 917.338 197.613 917.338 197.198C917.338 196.793 917.197 196.453 916.914 196.18C916.632 195.906 916.279 195.77 915.855 195.77H913.742V198.654H915.855ZM928.28 204L927.521 202.038H923.378L922.606 204H920.87L924.78 194.197H926.154L930.057 204H928.28ZM923.98 200.473H926.906L925.45 196.72L923.98 200.473ZM942.708 201.491C942.452 202.275 941.933 202.913 941.149 203.405C940.365 203.893 939.472 204.137 938.469 204.137C937.772 204.137 937.118 204.007 936.507 203.747C935.897 203.487 935.375 203.134 934.942 202.688C934.509 202.236 934.167 201.701 933.917 201.081C933.666 200.457 933.541 199.791 933.541 199.085C933.541 198.383 933.666 197.722 933.917 197.103C934.167 196.483 934.509 195.95 934.942 195.503C935.375 195.056 935.897 194.705 936.507 194.45C937.118 194.19 937.772 194.061 938.469 194.061C939.435 194.061 940.299 194.286 941.06 194.737C941.826 195.188 942.343 195.774 942.612 196.494L941.142 197.212C940.933 196.738 940.586 196.36 940.103 196.077C939.625 195.795 939.08 195.653 938.469 195.653C937.521 195.653 936.744 195.977 936.138 196.624C935.537 197.271 935.236 198.091 935.236 199.085C935.236 200.078 935.537 200.903 936.138 201.56C936.744 202.216 937.521 202.544 938.469 202.544C939.126 202.544 939.702 202.389 940.199 202.079C940.696 201.769 941.037 201.35 941.224 200.821L942.708 201.491ZM954.825 204H952.672L948.515 199.215V204H946.875V194.197H948.515V198.47L952.364 194.197H954.449L950.224 198.832L954.825 204ZM965.213 204L964.454 202.038H960.312L959.539 204H957.803L961.713 194.197H963.087L966.99 204H965.213ZM960.913 200.473H963.839L962.383 196.72L960.913 200.473ZM975.485 199.994V198.429H979.463V202.291C979.016 202.87 978.445 203.321 977.747 203.645C977.05 203.964 976.273 204.123 975.416 204.123C974.496 204.123 973.657 203.9 972.901 203.453C972.144 203.007 971.549 202.396 971.116 201.621C970.688 200.846 970.474 199.992 970.474 199.058C970.474 198.123 970.688 197.276 971.116 196.515C971.545 195.749 972.135 195.15 972.887 194.717C973.643 194.279 974.482 194.061 975.403 194.061C976.369 194.061 977.232 194.286 977.993 194.737C978.759 195.188 979.272 195.774 979.531 196.494L978.075 197.212C977.857 196.738 977.508 196.36 977.029 196.077C976.556 195.795 976.013 195.653 975.403 195.653C974.459 195.653 973.684 195.972 973.078 196.61C972.472 197.244 972.169 198.06 972.169 199.058C972.169 200.069 972.474 200.903 973.085 201.56C973.7 202.216 974.477 202.544 975.416 202.544C976.401 202.544 977.203 202.277 977.822 201.744V199.994H975.485ZM983.972 194.197H989.755V195.77H985.613V198.08H989.304V199.646H985.613V202.435H989.755V204H983.972V194.197ZM997.279 194.061C997.903 194.061 998.53 194.195 999.159 194.464C999.788 194.728 1000.27 195.061 1000.61 195.462L999.658 196.733C999.33 196.396 998.94 196.13 998.489 195.934C998.042 195.738 997.598 195.64 997.156 195.64C996.705 195.64 996.336 195.742 996.048 195.947C995.766 196.152 995.625 196.419 995.625 196.747C995.625 196.97 995.684 197.166 995.802 197.335C995.921 197.499 996.08 197.636 996.281 197.745C996.486 197.85 996.718 197.946 996.978 198.032C997.238 198.119 997.511 198.203 997.798 198.285C998.09 198.367 998.379 198.456 998.667 198.552C998.958 198.647 999.234 198.768 999.494 198.914C999.754 199.06 999.984 199.229 1000.18 199.42C1000.39 199.611 1000.55 199.857 1000.67 200.158C1000.79 200.454 1000.85 200.792 1000.85 201.17C1000.85 201.562 1000.77 201.938 1000.6 202.298C1000.44 202.653 1000.21 202.968 999.918 203.241C999.626 203.515 999.257 203.733 998.81 203.897C998.364 204.057 997.876 204.137 997.347 204.137C996.618 204.137 995.898 203.979 995.187 203.665C994.481 203.351 993.909 202.95 993.471 202.462L994.524 201.259C994.952 201.669 995.39 201.988 995.837 202.216C996.288 202.444 996.791 202.558 997.347 202.558C997.89 202.558 998.327 202.432 998.66 202.182C998.997 201.926 999.166 201.594 999.166 201.184C999.166 200.969 999.106 200.783 998.988 200.623C998.869 200.464 998.71 200.334 998.509 200.233C998.309 200.133 998.079 200.042 997.819 199.96C997.559 199.878 997.286 199.8 996.999 199.728C996.712 199.65 996.424 199.566 996.137 199.475C995.855 199.383 995.584 199.267 995.324 199.126C995.064 198.985 994.834 198.818 994.633 198.627C994.433 198.436 994.273 198.192 994.155 197.896C994.036 197.599 993.977 197.26 993.977 196.877C993.977 196.075 994.287 195.405 994.907 194.867C995.527 194.329 996.317 194.061 997.279 194.061ZM1019.66 204H1017.56L1016.5 202.865C1016.04 203.289 1015.58 203.608 1015.12 203.822C1014.67 204.032 1014.17 204.137 1013.61 204.137C1012.76 204.137 1012.04 203.875 1011.45 203.351C1010.87 202.822 1010.58 202.166 1010.58 201.382C1010.58 201.022 1010.63 200.696 1010.73 200.404C1010.83 200.113 1010.98 199.86 1011.18 199.646C1011.38 199.431 1011.58 199.251 1011.79 199.105C1012.01 198.955 1012.26 198.809 1012.55 198.668C1012.28 198.344 1012.06 198.019 1011.9 197.69C1011.75 197.362 1011.67 196.998 1011.67 196.597C1011.67 195.881 1011.93 195.28 1012.44 194.792C1012.95 194.304 1013.58 194.061 1014.33 194.061C1015.06 194.061 1015.67 194.304 1016.16 194.792C1016.66 195.28 1016.91 195.881 1016.91 196.597C1016.91 196.925 1016.86 197.221 1016.76 197.485C1016.67 197.75 1016.53 197.982 1016.35 198.183C1016.16 198.379 1015.97 198.547 1015.77 198.688C1015.58 198.825 1015.34 198.962 1015.07 199.099L1016.52 200.657L1018.04 199.153L1019.17 200.179L1017.59 201.785L1019.66 204ZM1013.18 196.569C1013.18 196.788 1013.25 197.009 1013.4 197.232C1013.55 197.451 1013.77 197.715 1014.06 198.025C1014.5 197.825 1014.83 197.615 1015.05 197.396C1015.29 197.173 1015.4 196.897 1015.4 196.569C1015.4 196.269 1015.3 196.013 1015.09 195.804C1014.88 195.594 1014.63 195.489 1014.33 195.489C1014 195.489 1013.73 195.594 1013.51 195.804C1013.29 196.013 1013.18 196.269 1013.18 196.569ZM1013.75 202.544C1014.29 202.544 1014.85 202.273 1015.44 201.73L1013.58 199.755C1013.16 199.96 1012.83 200.179 1012.61 200.411C1012.38 200.644 1012.27 200.931 1012.27 201.272C1012.27 201.646 1012.41 201.951 1012.69 202.188C1012.97 202.425 1013.32 202.544 1013.75 202.544ZM1029.55 194.197H1031.19V202.435H1035.88V204H1029.55V194.197ZM1040 194.197H1041.64V204H1040V194.197ZM1046.23 204V194.197H1049.78C1050.6 194.197 1051.29 194.446 1051.86 194.942C1052.44 195.439 1052.72 196.036 1052.72 196.733C1052.72 197.216 1052.58 197.656 1052.29 198.053C1052.01 198.449 1051.66 198.704 1051.24 198.818C1051.8 198.91 1052.27 199.183 1052.64 199.639C1053.01 200.094 1053.2 200.63 1053.2 201.245C1053.2 202.015 1052.91 202.667 1052.33 203.2C1051.75 203.733 1051.05 204 1050.22 204H1046.23ZM1047.87 198.258H1049.74C1050.12 198.258 1050.43 198.135 1050.69 197.889C1050.95 197.643 1051.07 197.342 1051.07 196.986C1051.07 196.649 1050.94 196.362 1050.68 196.125C1050.42 195.888 1050.11 195.77 1049.74 195.77H1047.87V198.258ZM1047.87 202.435H1050.1C1050.51 202.435 1050.85 202.298 1051.12 202.024C1051.4 201.751 1051.53 201.416 1051.53 201.02C1051.53 200.618 1051.39 200.281 1051.12 200.008C1050.84 199.73 1050.51 199.591 1050.12 199.591H1047.87V202.435ZM1064.79 204H1062.8L1060.37 200.069H1058.93V204H1057.29V194.197H1060.97C1061.8 194.197 1062.5 194.48 1063.09 195.045C1063.68 195.605 1063.98 196.294 1063.98 197.109C1063.98 197.784 1063.81 198.367 1063.48 198.859C1063.15 199.347 1062.7 199.689 1062.12 199.885L1064.79 204ZM1058.93 195.783V198.497H1060.92C1061.32 198.497 1061.66 198.367 1061.92 198.107C1062.19 197.843 1062.32 197.51 1062.32 197.109C1062.32 196.722 1062.19 196.405 1061.92 196.159C1061.66 195.909 1061.32 195.783 1060.92 195.783H1058.93ZM1075.45 204L1074.69 202.038H1070.55L1069.77 204H1068.04L1071.95 194.197H1073.32L1077.22 204H1075.45ZM1071.15 200.473H1074.07L1072.62 196.72L1071.15 200.473ZM1088.55 204H1086.56L1084.13 200.069H1082.68V204H1081.04V194.197H1084.73C1085.55 194.197 1086.26 194.48 1086.85 195.045C1087.44 195.605 1087.73 196.294 1087.73 197.109C1087.73 197.784 1087.57 198.367 1087.24 198.859C1086.91 199.347 1086.45 199.689 1085.88 199.885L1088.55 204ZM1082.68 195.783V198.497H1084.67C1085.08 198.497 1085.41 198.367 1085.68 198.107C1085.95 197.843 1086.08 197.51 1086.08 197.109C1086.08 196.722 1085.95 196.405 1085.68 196.159C1085.41 195.909 1085.08 195.783 1084.67 195.783H1082.68ZM1092.4 194.197H1094.04V204H1092.4V194.197ZM1098.63 194.197H1104.42V195.77H1100.27V198.08H1103.96V199.646H1100.27V202.435H1104.42V204H1098.63V194.197ZM1111.94 194.061C1112.56 194.061 1113.19 194.195 1113.82 194.464C1114.45 194.728 1114.93 195.061 1115.27 195.462L1114.32 196.733C1113.99 196.396 1113.6 196.13 1113.15 195.934C1112.7 195.738 1112.26 195.64 1111.82 195.64C1111.37 195.64 1111 195.742 1110.71 195.947C1110.43 196.152 1110.29 196.419 1110.29 196.747C1110.29 196.97 1110.34 197.166 1110.46 197.335C1110.58 197.499 1110.74 197.636 1110.94 197.745C1111.15 197.85 1111.38 197.946 1111.64 198.032C1111.9 198.119 1112.17 198.203 1112.46 198.285C1112.75 198.367 1113.04 198.456 1113.33 198.552C1113.62 198.647 1113.89 198.768 1114.15 198.914C1114.41 199.06 1114.64 199.229 1114.84 199.42C1115.05 199.611 1115.21 199.857 1115.33 200.158C1115.45 200.454 1115.51 200.792 1115.51 201.17C1115.51 201.562 1115.43 201.938 1115.26 202.298C1115.1 202.653 1114.87 202.968 1114.58 203.241C1114.29 203.515 1113.92 203.733 1113.47 203.897C1113.02 204.057 1112.54 204.137 1112.01 204.137C1111.28 204.137 1110.56 203.979 1109.85 203.665C1109.14 203.351 1108.57 202.95 1108.13 202.462L1109.18 201.259C1109.61 201.669 1110.05 201.988 1110.5 202.216C1110.95 202.444 1111.45 202.558 1112.01 202.558C1112.55 202.558 1112.99 202.432 1113.32 202.182C1113.66 201.926 1113.83 201.594 1113.83 201.184C1113.83 200.969 1113.77 200.783 1113.65 200.623C1113.53 200.464 1113.37 200.334 1113.17 200.233C1112.97 200.133 1112.74 200.042 1112.48 199.96C1112.22 199.878 1111.95 199.8 1111.66 199.728C1111.37 199.65 1111.08 199.566 1110.8 199.475C1110.52 199.383 1110.24 199.267 1109.98 199.126C1109.72 198.985 1109.49 198.818 1109.29 198.627C1109.09 198.436 1108.93 198.192 1108.82 197.896C1108.7 197.599 1108.64 197.26 1108.64 196.877C1108.64 196.075 1108.95 195.405 1109.57 194.867C1110.19 194.329 1110.98 194.061 1111.94 194.061Z" fill="#595959"/>
<rect x="894" y="765" width="217" height="32" rx="16" fill="#222222"/>
<path d="M919.459 776.197C920.361 776.197 921.109 776.482 921.701 777.052C922.298 777.621 922.597 778.337 922.597 779.198C922.597 780.073 922.298 780.796 921.701 781.365C921.109 781.935 920.361 782.22 919.459 782.22H917.347V786H915.706V776.197H919.459ZM919.459 780.654C919.883 780.654 920.236 780.515 920.519 780.237C920.801 779.959 920.942 779.613 920.942 779.198C920.942 778.793 920.801 778.453 920.519 778.18C920.236 777.906 919.883 777.77 919.459 777.77H917.347V780.654H919.459ZM934.215 786H932.226L929.792 782.069H928.35V786H926.709V776.197H930.394C931.219 776.197 931.925 776.48 932.513 777.045C933.105 777.605 933.402 778.294 933.402 779.109C933.402 779.784 933.235 780.367 932.903 780.859C932.574 781.347 932.121 781.689 931.542 781.885L934.215 786ZM928.35 777.783V780.497H930.339C930.745 780.497 931.08 780.367 931.344 780.107C931.613 779.843 931.747 779.51 931.747 779.109C931.747 778.722 931.613 778.405 931.344 778.159C931.08 777.909 930.745 777.783 930.339 777.783H928.35ZM939.688 776.717C940.449 776.279 941.294 776.061 942.224 776.061C943.154 776.061 943.997 776.279 944.753 776.717C945.514 777.154 946.111 777.758 946.544 778.528C946.977 779.294 947.194 780.146 947.194 781.085C947.194 782.028 946.977 782.887 946.544 783.662C946.111 784.432 945.514 785.038 944.753 785.48C943.997 785.918 943.154 786.137 942.224 786.137C941.294 786.137 940.449 785.918 939.688 785.48C938.927 785.038 938.328 784.432 937.89 783.662C937.457 782.887 937.241 782.028 937.241 781.085C937.241 780.146 937.457 779.294 937.89 778.528C938.328 777.758 938.927 777.154 939.688 776.717ZM942.224 777.653C941.29 777.653 940.508 777.981 939.879 778.638C939.25 779.294 938.936 780.11 938.936 781.085C938.936 782.065 939.25 782.887 939.879 783.553C940.508 784.214 941.29 784.544 942.224 784.544C943.154 784.544 943.933 784.214 944.562 783.553C945.195 782.887 945.512 782.065 945.512 781.085C945.512 780.11 945.195 779.294 944.562 778.638C943.933 777.981 943.154 777.653 942.224 777.653ZM954.67 776.197C955.358 776.197 956.005 776.32 956.611 776.566C957.217 776.812 957.737 777.15 958.17 777.578C958.602 778.002 958.944 778.517 959.195 779.123C959.446 779.725 959.571 780.369 959.571 781.058C959.571 781.755 959.446 782.411 959.195 783.026C958.944 783.637 958.602 784.161 958.17 784.599C957.737 785.032 957.217 785.373 956.611 785.624C956.005 785.875 955.358 786 954.67 786H951.45V776.197H954.67ZM954.779 784.435C955.668 784.435 956.408 784.113 957.001 783.471C957.593 782.828 957.889 782.024 957.889 781.058C957.889 780.101 957.595 779.314 957.007 778.699C956.42 778.079 955.677 777.77 954.779 777.77H953.09V784.435H954.779ZM970.376 785.029C969.656 785.758 968.744 786.123 967.641 786.123C966.539 786.123 965.625 785.758 964.9 785.029C964.18 784.296 963.82 783.373 963.82 782.261V776.197H965.461V782.261C965.461 782.912 965.668 783.457 966.083 783.895C966.502 784.327 967.022 784.544 967.641 784.544C968.266 784.544 968.785 784.325 969.2 783.888C969.619 783.45 969.829 782.908 969.829 782.261V776.197H971.463V782.261C971.463 783.373 971.1 784.296 970.376 785.029ZM984.886 783.491C984.631 784.275 984.111 784.913 983.327 785.405C982.543 785.893 981.65 786.137 980.647 786.137C979.95 786.137 979.296 786.007 978.686 785.747C978.075 785.487 977.553 785.134 977.12 784.688C976.687 784.236 976.345 783.701 976.095 783.081C975.844 782.457 975.719 781.791 975.719 781.085C975.719 780.383 975.844 779.722 976.095 779.103C976.345 778.483 976.687 777.95 977.12 777.503C977.553 777.056 978.075 776.705 978.686 776.45C979.296 776.19 979.95 776.061 980.647 776.061C981.614 776.061 982.477 776.286 983.238 776.737C984.004 777.188 984.521 777.774 984.79 778.494L983.32 779.212C983.111 778.738 982.764 778.36 982.281 778.077C981.803 777.795 981.258 777.653 980.647 777.653C979.7 777.653 978.923 777.977 978.316 778.624C977.715 779.271 977.414 780.091 977.414 781.085C977.414 782.078 977.715 782.903 978.316 783.56C978.923 784.216 979.7 784.544 980.647 784.544C981.304 784.544 981.88 784.389 982.377 784.079C982.874 783.769 983.215 783.35 983.402 782.821L984.886 783.491ZM995.834 776.197V777.77H992.826V786H991.193V777.77H988.178V776.197H995.834ZM1002.62 776.061C1003.24 776.061 1003.87 776.195 1004.5 776.464C1005.13 776.728 1005.61 777.061 1005.95 777.462L1005 778.733C1004.67 778.396 1004.28 778.13 1003.83 777.934C1003.38 777.738 1002.94 777.64 1002.5 777.64C1002.05 777.64 1001.68 777.742 1001.39 777.947C1001.11 778.152 1000.97 778.419 1000.97 778.747C1000.97 778.97 1001.02 779.166 1001.14 779.335C1001.26 779.499 1001.42 779.636 1001.62 779.745C1001.83 779.85 1002.06 779.946 1002.32 780.032C1002.58 780.119 1002.85 780.203 1003.14 780.285C1003.43 780.367 1003.72 780.456 1004.01 780.552C1004.3 780.647 1004.57 780.768 1004.83 780.914C1005.09 781.06 1005.32 781.229 1005.52 781.42C1005.73 781.611 1005.89 781.857 1006.01 782.158C1006.13 782.454 1006.19 782.792 1006.19 783.17C1006.19 783.562 1006.11 783.938 1005.94 784.298C1005.78 784.653 1005.55 784.968 1005.26 785.241C1004.97 785.515 1004.6 785.733 1004.15 785.897C1003.7 786.057 1003.22 786.137 1002.69 786.137C1001.96 786.137 1001.24 785.979 1000.53 785.665C999.821 785.351 999.249 784.95 998.812 784.462L999.865 783.259C1000.29 783.669 1000.73 783.988 1001.18 784.216C1001.63 784.444 1002.13 784.558 1002.69 784.558C1003.23 784.558 1003.67 784.432 1004 784.182C1004.34 783.926 1004.51 783.594 1004.51 783.184C1004.51 782.969 1004.45 782.783 1004.33 782.623C1004.21 782.464 1004.05 782.334 1003.85 782.233C1003.65 782.133 1003.42 782.042 1003.16 781.96C1002.9 781.878 1002.63 781.8 1002.34 781.728C1002.05 781.65 1001.77 781.566 1001.48 781.475C1001.2 781.383 1000.92 781.267 1000.66 781.126C1000.4 780.985 1000.17 780.818 999.974 780.627C999.774 780.436 999.614 780.192 999.496 779.896C999.377 779.599 999.318 779.26 999.318 778.877C999.318 778.075 999.628 777.405 1000.25 776.867C1000.87 776.329 1001.66 776.061 1002.62 776.061ZM1025 786H1022.9L1021.84 784.865C1021.38 785.289 1020.92 785.608 1020.46 785.822C1020.01 786.032 1019.51 786.137 1018.95 786.137C1018.1 786.137 1017.38 785.875 1016.79 785.351C1016.21 784.822 1015.92 784.166 1015.92 783.382C1015.92 783.022 1015.97 782.696 1016.07 782.404C1016.17 782.113 1016.32 781.86 1016.52 781.646C1016.72 781.431 1016.92 781.251 1017.13 781.105C1017.35 780.955 1017.6 780.809 1017.89 780.668C1017.62 780.344 1017.4 780.019 1017.24 779.69C1017.09 779.362 1017.01 778.998 1017.01 778.597C1017.01 777.881 1017.27 777.28 1017.78 776.792C1018.29 776.304 1018.92 776.061 1019.67 776.061C1020.4 776.061 1021.01 776.304 1021.5 776.792C1022 777.28 1022.25 777.881 1022.25 778.597C1022.25 778.925 1022.2 779.221 1022.1 779.485C1022.01 779.75 1021.87 779.982 1021.69 780.183C1021.5 780.379 1021.31 780.547 1021.11 780.688C1020.92 780.825 1020.68 780.962 1020.41 781.099L1021.86 782.657L1023.38 781.153L1024.51 782.179L1022.93 783.785L1025 786ZM1018.52 778.569C1018.52 778.788 1018.59 779.009 1018.74 779.232C1018.89 779.451 1019.11 779.715 1019.4 780.025C1019.84 779.825 1020.17 779.615 1020.39 779.396C1020.63 779.173 1020.74 778.897 1020.74 778.569C1020.74 778.269 1020.64 778.013 1020.43 777.804C1020.22 777.594 1019.97 777.489 1019.67 777.489C1019.34 777.489 1019.07 777.594 1018.85 777.804C1018.63 778.013 1018.52 778.269 1018.52 778.569ZM1019.1 784.544C1019.63 784.544 1020.19 784.273 1020.78 783.73L1018.92 781.755C1018.5 781.96 1018.17 782.179 1017.95 782.411C1017.72 782.644 1017.61 782.931 1017.61 783.272C1017.61 783.646 1017.75 783.951 1018.03 784.188C1018.31 784.425 1018.66 784.544 1019.1 784.544ZM1042 776.197V777.77H1039V786H1037.36V777.77H1034.35V776.197H1042ZM1047.67 776.717C1048.43 776.279 1049.27 776.061 1050.2 776.061C1051.13 776.061 1051.98 776.279 1052.73 776.717C1053.49 777.154 1054.09 777.758 1054.52 778.528C1054.96 779.294 1055.17 780.146 1055.17 781.085C1055.17 782.028 1054.96 782.887 1054.52 783.662C1054.09 784.432 1053.49 785.038 1052.73 785.48C1051.98 785.918 1051.13 786.137 1050.2 786.137C1049.27 786.137 1048.43 785.918 1047.67 785.48C1046.91 785.038 1046.31 784.432 1045.87 783.662C1045.44 782.887 1045.22 782.028 1045.22 781.085C1045.22 780.146 1045.44 779.294 1045.87 778.528C1046.31 777.758 1046.91 777.154 1047.67 776.717ZM1050.2 777.653C1049.27 777.653 1048.49 777.981 1047.86 778.638C1047.23 779.294 1046.92 780.11 1046.92 781.085C1046.92 782.065 1047.23 782.887 1047.86 783.553C1048.49 784.214 1049.27 784.544 1050.2 784.544C1051.13 784.544 1051.91 784.214 1052.54 783.553C1053.18 782.887 1053.49 782.065 1053.49 781.085C1053.49 780.11 1053.18 779.294 1052.54 778.638C1051.91 777.981 1051.13 777.653 1050.2 777.653ZM1061.54 776.717C1062.3 776.279 1063.15 776.061 1064.08 776.061C1065.01 776.061 1065.85 776.279 1066.61 776.717C1067.37 777.154 1067.97 777.758 1068.4 778.528C1068.83 779.294 1069.05 780.146 1069.05 781.085C1069.05 782.028 1068.83 782.887 1068.4 783.662C1067.97 784.432 1067.37 785.038 1066.61 785.48C1065.85 785.918 1065.01 786.137 1064.08 786.137C1063.15 786.137 1062.3 785.918 1061.54 785.48C1060.78 785.038 1060.18 784.432 1059.74 783.662C1059.31 782.887 1059.1 782.028 1059.1 781.085C1059.1 780.146 1059.31 779.294 1059.74 778.528C1060.18 777.758 1060.78 777.154 1061.54 776.717ZM1064.08 777.653C1063.14 777.653 1062.36 777.981 1061.73 778.638C1061.11 779.294 1060.79 780.11 1060.79 781.085C1060.79 782.065 1061.11 782.887 1061.73 783.553C1062.36 784.214 1063.14 784.544 1064.08 784.544C1065.01 784.544 1065.79 784.214 1066.42 783.553C1067.05 782.887 1067.37 782.065 1067.37 781.085C1067.37 780.11 1067.05 779.294 1066.42 778.638C1065.79 777.981 1065.01 777.653 1064.08 777.653ZM1073.3 776.197H1074.95V784.435H1079.63V786H1073.3V776.197ZM1086.94 776.061C1087.56 776.061 1088.19 776.195 1088.82 776.464C1089.45 776.728 1089.93 777.061 1090.27 777.462L1089.32 778.733C1088.99 778.396 1088.6 778.13 1088.15 777.934C1087.7 777.738 1087.26 777.64 1086.82 777.64C1086.37 777.64 1086 777.742 1085.71 777.947C1085.43 778.152 1085.29 778.419 1085.29 778.747C1085.29 778.97 1085.34 779.166 1085.46 779.335C1085.58 779.499 1085.74 779.636 1085.94 779.745C1086.15 779.85 1086.38 779.946 1086.64 780.032C1086.9 780.119 1087.17 780.203 1087.46 780.285C1087.75 780.367 1088.04 780.456 1088.33 780.552C1088.62 780.647 1088.89 780.768 1089.15 780.914C1089.41 781.06 1089.64 781.229 1089.84 781.42C1090.05 781.611 1090.21 781.857 1090.33 782.158C1090.45 782.454 1090.51 782.792 1090.51 783.17C1090.51 783.562 1090.43 783.938 1090.26 784.298C1090.1 784.653 1089.87 784.968 1089.58 785.241C1089.29 785.515 1088.92 785.733 1088.47 785.897C1088.02 786.057 1087.54 786.137 1087.01 786.137C1086.28 786.137 1085.56 785.979 1084.85 785.665C1084.14 785.351 1083.57 784.95 1083.13 784.462L1084.18 783.259C1084.61 783.669 1085.05 783.988 1085.5 784.216C1085.95 784.444 1086.45 784.558 1087.01 784.558C1087.55 784.558 1087.99 784.432 1088.32 784.182C1088.66 783.926 1088.83 783.594 1088.83 783.184C1088.83 782.969 1088.77 782.783 1088.65 782.623C1088.53 782.464 1088.37 782.334 1088.17 782.233C1087.97 782.133 1087.74 782.042 1087.48 781.96C1087.22 781.878 1086.95 781.8 1086.66 781.728C1086.37 781.65 1086.08 781.566 1085.8 781.475C1085.52 781.383 1085.24 781.267 1084.98 781.126C1084.72 780.985 1084.49 780.818 1084.29 780.627C1084.09 780.436 1083.93 780.192 1083.82 779.896C1083.7 779.599 1083.64 779.26 1083.64 778.877C1083.64 778.075 1083.95 777.405 1084.57 776.867C1085.19 776.329 1085.98 776.061 1086.94 776.061Z" fill="#595959"/>
<defs>
<radialGradient id="paint0_radial_2929_31970" cx="0" cy="0" r="1" gradientUnits="userSpaceOnUse" gradientTransform="translate(603.5 499.614) rotate(90) scale(143.946 143.91)">
<stop offset="0.742857" stop-color="#111111" stop-opacity="0"/>
<stop offset="1" stop-color="#444444"/>
</radialGradient>
<radialGradient id="paint1_radial_2929_31970" cx="0" cy="0" r="1" gradientUnits="userSpaceOnUse" gradientTransform="translate(603.5 499.862) rotate(90) scale(247.083 246.774)">
<stop offset="0.875" stop-color="#111111" stop-opacity="0"/>
<stop offset="1" stop-color="#444444"/>
</radialGradient>
<radialGradient id="paint2_radial_2929_31970" cx="0" cy="0" r="1" gradientUnits="userSpaceOnUse" gradientTransform="translate(603.747 499.862) rotate(90) scale(349.972 349.884)">
<stop offset="0.917647" stop-color="#111111" stop-opacity="0"/>
<stop offset="1" stop-color="#444444"/>
</radialGradient>
<radialGradient id="paint3_radial_2929_31970" cx="0" cy="0" r="1" gradientUnits="userSpaceOnUse" gradientTransform="translate(603.501 499.614) rotate(90) scale(452.5 452.614)">
<stop offset="0.956818" stop-color="#111111" stop-opacity="0"/>
<stop offset="1" stop-color="#444444"/>
</radialGradient>
</defs>
</svg>
