<svg width="1962" height="2073" viewBox="0 0 1962 2073" fill="none" xmlns="http://www.w3.org/2000/svg">
<g clip-path="url(#clip0_1021_57252)">
<circle cx="1" cy="2048" r="647.629" fill="url(#paint0_radial_1021_57252)" fill-opacity="0.2" stroke="#333333" stroke-width="8"/>
<path d="M1114.4 2049.12C1114.4 2664.66 615.911 3163.64 1.00134 3163.64C-613.909 3163.64 -1112.4 2664.66 -1112.4 2049.12C-1112.4 1433.59 -613.909 934.603 1.00134 934.603C615.911 934.603 1114.4 1433.59 1114.4 2049.12Z" fill="url(#paint1_radial_1021_57252)" fill-opacity="0.2" stroke="#333333" stroke-width="8"/>
<path d="M1582.41 2049.12C1582.41 2921.89 874.889 3629.41 2.11975 3629.41C-870.649 3629.41 -1578.17 2921.89 -1578.17 2049.12C-1578.17 1176.35 -870.649 468.832 2.11975 468.832C874.889 468.832 1582.41 1176.35 1582.41 2049.12Z" fill="url(#paint2_radial_1021_57252)" fill-opacity="0.2" stroke="#333333" stroke-width="8"/>
<path d="M2033.87 2047.94C2033.87 3177.32 1118.32 4092.87 -11.0627 4092.87C-1140.45 4092.87 -2056 3177.32 -2056 2047.94C-2056 918.549 -1140.45 3 -11.0627 3C1118.32 3 2033.87 918.549 2033.87 2047.94Z" fill="url(#paint3_radial_1021_57252)" fill-opacity="0.2"/>
<path d="M2033.87 2047.94C2033.87 3177.32 1118.32 4092.87 -11.0627 4092.87C-1140.45 4092.87 -2056 3177.32 -2056 2047.94C-2056 918.549 -1140.45 3 -11.0627 3C1118.32 3 2033.87 918.549 2033.87 2047.94Z" fill="url(#paint4_angular_1021_57252)" fill-opacity="0.1"/>
<path d="M2033.87 2047.94C2033.87 3177.32 1118.32 4092.87 -11.0627 4092.87C-1140.45 4092.87 -2056 3177.32 -2056 2047.94C-2056 918.549 -1140.45 3 -11.0627 3C1118.32 3 2033.87 918.549 2033.87 2047.94Z" stroke="#333333" stroke-width="8"/>
<line x1="-2047.7" y1="2044" x2="2049.7" y2="2044" stroke="#333333" stroke-width="8"/>
<line x1="3.89209" y1="-1.41843e-07" x2="3.89231" y2="4100.43" stroke="#333333" stroke-width="8"/>
<circle cx="27.3067" cy="27.3067" r="27.3067" transform="matrix(-1 0 0 1 139.311 1796.86)" fill="#C2C2C2"/>
<circle cx="27.3067" cy="27.3067" r="27.3067" transform="matrix(-1 0 0 1 227.489 1843.16)" fill="#C2C2C2"/>
<circle cx="27.3067" cy="27.3067" r="27.3067" transform="matrix(-1 0 0 1 161.356 1898.26)" fill="#C2C2C2"/>
<circle cx="27.3067" cy="27.3067" r="27.3067" transform="matrix(-1 0 0 1 298.031 1924.71)" fill="#C2C2C2"/>
<circle cx="27.3067" cy="27.3067" r="27.3067" transform="matrix(-1 0 0 1 372.982 1869.61)" fill="#C2C2C2"/>
<circle cx="27.3067" cy="27.3067" r="27.3067" transform="matrix(-1 0 0 1 489.817 1920.3)" fill="#C2C2C2"/>
<circle cx="27.3067" cy="27.3067" r="27.3067" transform="matrix(-1 0 0 1 434.707 1649.15)" fill="#C2C2C2"/>
<circle cx="27.3067" cy="27.3067" r="27.3067" transform="matrix(-1 0 0 1 320.076 1600.66)" fill="#C2C2C2"/>
<circle cx="27.3067" cy="27.3067" r="27.3067" transform="matrix(-1 0 0 1 240.716 1671.21)" fill="#C2C2C2"/>
<circle cx="27.3067" cy="27.3067" r="27.3067" transform="matrix(-1 0 0 1 143.72 1684.44)" fill="#C2C2C2"/>
<circle cx="27.3067" cy="27.3067" r="27.3067" transform="matrix(-1 0 0 1 123.88 1605.08)" fill="#C2C2C2"/>
<rect width="46.341" height="46.341" transform="matrix(-0.707107 -0.707107 -0.707107 0.707107 178.892 1210.18)" fill="#C2C2C2"/>
<rect width="46.341" height="46.341" transform="matrix(-0.707107 -0.707107 -0.707107 0.707107 392.722 1329.22)" fill="#C2C2C2"/>
<rect width="46.341" height="46.341" transform="matrix(-0.707107 -0.707107 -0.707107 0.707107 606.555 1263.08)" fill="#C2C2C2"/>
<rect width="46.341" height="46.341" transform="matrix(-0.707107 -0.707107 -0.707107 0.707107 679.301 1476.93)" fill="#C2C2C2"/>
<rect width="46.341" height="46.341" transform="matrix(-0.707107 -0.707107 -0.707107 0.707107 804.955 1686.34)" fill="#C2C2C2"/>
<rect width="46.341" height="46.341" transform="matrix(-0.707107 -0.707107 -0.707107 0.707107 901.949 1543.06)" fill="#C2C2C2"/>
<rect width="46.341" height="46.341" transform="matrix(-0.707107 -0.707107 -0.707107 0.707107 873.292 1900.18)" fill="#C2C2C2"/>
<rect width="49.152" height="49.152" transform="translate(186.103 820.309)" fill="#C2C2C2"/>
<rect width="49.152" height="49.152" transform="translate(360.253 663.786)" fill="#C2C2C2"/>
<rect width="49.152" height="49.152" transform="translate(633.605 855.573)" fill="#C2C2C2"/>
<rect width="49.152" height="49.152" transform="translate(988.52 1091.46)" fill="#C2C2C2"/>
<rect width="49.152" height="49.152" transform="translate(1206.76 1477.23)" fill="#C2C2C2"/>
<rect width="49.152" height="49.152" transform="translate(1442.64 1779.24)" fill="#C2C2C2"/>
<rect width="49.152" height="49.152" transform="translate(1246.44 1702.08)" fill="#C2C2C2"/>
<path d="M446.156 324.946L412.022 275.797L377.889 324.949L446.156 324.946Z" fill="#C2C2C2"/>
<path d="M710.69 408.722L676.555 359.573L642.423 408.725L710.69 408.722Z" fill="#C2C2C2"/>
<path d="M1081.04 441.789L1046.9 392.64L1012.77 441.792L1081.04 441.789Z" fill="#C2C2C2"/>
<path d="M1096.47 688.68L1062.33 639.53L1028.2 688.682L1096.47 688.68Z" fill="#C2C2C2"/>
<path d="M1510.9 992.892L1476.77 943.743L1442.64 992.895L1510.9 992.892Z" fill="#C2C2C2"/>
<path d="M1841.57 1689.49L1807.44 1640.34L1773.3 1689.49L1841.57 1689.49Z" fill="#C2C2C2"/>
<g opacity="0.3">
<rect width="220.752" height="220.752" transform="translate(748 834)" fill="#FFDE00"/>
<rect width="220.752" height="220.752" transform="translate(748 834)" fill="url(#paint5_linear_1021_57252)"/>
</g>
<rect width="141.912" height="141.912" transform="translate(790.048 876.049)" fill="#FFDE00"/>
<rect width="141.912" height="141.912" transform="translate(790.048 876.049)" fill="url(#paint6_linear_1021_57252)"/>
<g filter="url(#filter0_d_1021_57252)">
<rect x="1048" y="828" width="544.727" height="232" rx="31.6363" fill="#111111" shape-rendering="crispEdges"/>
<path d="M1174.57 915.813V924.103H1158.71V967.5H1150.1V924.103H1134.2V915.813H1174.57ZM1206 947.856C1206 949.25 1205.91 950.439 1205.71 951.424H1178.25C1178.7 954.356 1179.87 956.651 1181.74 958.309C1183.64 959.967 1186.05 960.796 1188.95 960.796C1191 960.796 1192.87 960.387 1194.58 959.57C1196.28 958.729 1197.56 957.612 1198.4 956.218L1204.96 960.399C1203.61 962.85 1201.51 964.773 1198.65 966.166C1195.81 967.536 1192.53 968.221 1188.81 968.221C1185.37 968.221 1182.22 967.404 1179.37 965.77C1176.51 964.112 1174.23 961.829 1172.55 958.922C1170.89 956.014 1170.07 952.794 1170.07 949.262C1170.07 945.826 1170.88 942.69 1172.52 939.854C1174.17 936.995 1176.42 934.748 1179.26 933.114C1182.12 931.48 1185.25 930.663 1188.66 930.663C1191.86 930.663 1194.78 931.42 1197.42 932.934C1200.09 934.448 1202.18 936.526 1203.69 939.169C1205.23 941.789 1206 944.684 1206 947.856ZM1178.54 945.117H1197.35C1197.13 942.858 1196.17 941.02 1194.47 939.602C1192.76 938.16 1190.67 937.439 1188.2 937.439C1185.77 937.439 1183.71 938.124 1182.03 939.494C1180.35 940.839 1179.18 942.714 1178.54 945.117ZM1232.1 930.663C1236.62 930.663 1240.21 932.129 1242.87 935.06C1245.54 937.992 1246.88 941.945 1246.88 946.919V967.5H1238.62V948.216C1238.62 945.333 1237.84 943.05 1236.28 941.368C1234.74 939.686 1232.69 938.845 1230.12 938.845C1228.26 938.845 1226.51 939.302 1224.85 940.215C1223.22 941.128 1221.95 942.353 1221.03 943.891V967.5H1212.85V931.42H1221.03V936.286C1222.14 934.556 1223.69 933.186 1225.68 932.177C1227.68 931.168 1229.81 930.663 1232.1 930.663ZM1268.9 968.329C1265.97 968.329 1263.06 967.848 1260.18 966.887C1257.29 965.926 1254.97 964.653 1253.22 963.067L1256.46 956.867C1257.83 958.189 1259.68 959.27 1262.01 960.111C1264.37 960.952 1266.58 961.373 1268.65 961.373C1270.42 961.373 1271.87 961 1272.97 960.255C1274.08 959.486 1274.63 958.525 1274.63 957.372C1274.63 956.579 1274.34 955.906 1273.76 955.353C1273.19 954.8 1272.43 954.38 1271.49 954.092C1270.56 953.779 1269.49 953.467 1268.29 953.154C1267.08 952.818 1265.85 952.518 1264.57 952.253C1263.32 951.965 1262.1 951.557 1260.9 951.028C1259.7 950.475 1258.63 949.85 1257.69 949.154C1256.75 948.433 1255.99 947.46 1255.42 946.234C1254.84 945.009 1254.55 943.603 1254.55 942.017C1254.55 938.677 1255.85 935.949 1258.45 933.835C1261.06 931.72 1264.44 930.663 1268.57 930.663C1271.19 930.663 1273.7 931.035 1276.11 931.78C1278.53 932.525 1280.53 933.607 1282.09 935.024L1278.85 941.368C1277.5 940.191 1275.73 939.266 1273.55 938.593C1271.39 937.896 1269.46 937.547 1267.78 937.547C1266.27 937.547 1265.05 937.896 1264.14 938.593C1263.23 939.266 1262.77 940.191 1262.77 941.368C1262.77 942.185 1263.14 942.882 1263.89 943.459C1264.63 944.011 1265.59 944.468 1266.77 944.828C1267.97 945.189 1269.29 945.549 1270.74 945.91C1272.18 946.246 1273.61 946.691 1275.03 947.243C1276.47 947.772 1277.78 948.421 1278.95 949.19C1280.16 949.935 1281.13 950.992 1281.87 952.362C1282.62 953.707 1282.99 955.281 1282.99 957.083C1282.99 960.327 1281.67 963.019 1279.03 965.157C1276.38 967.272 1273.01 968.329 1268.9 968.329ZM1292.94 936.07C1296.52 932.465 1300.95 930.663 1306.24 930.663C1311.53 930.663 1315.97 932.465 1319.58 936.07C1323.18 939.674 1324.98 944.143 1324.98 949.478C1324.98 954.813 1323.18 959.27 1319.58 962.85C1315.97 966.431 1311.53 968.221 1306.24 968.221C1300.95 968.221 1296.52 966.431 1292.94 962.85C1289.36 959.27 1287.57 954.813 1287.57 949.478C1287.57 944.143 1289.36 939.674 1292.94 936.07ZM1313.81 941.692C1311.77 939.602 1309.24 938.557 1306.24 938.557C1303.24 938.557 1300.73 939.602 1298.71 941.692C1296.69 943.783 1295.68 946.378 1295.68 949.478C1295.68 952.554 1296.69 955.137 1298.71 957.227C1300.75 959.294 1303.26 960.327 1306.24 960.327C1309.24 960.327 1311.77 959.282 1313.81 957.191C1315.85 955.101 1316.87 952.53 1316.87 949.478C1316.87 946.378 1315.85 943.783 1313.81 941.692ZM1349.28 930.663C1350.93 930.663 1352.32 930.855 1353.42 931.24L1352.92 938.989C1351.52 938.509 1350.09 938.268 1348.63 938.268C1347.14 938.268 1345.56 938.833 1343.91 939.962C1342.25 941.068 1340.96 942.57 1340.05 944.468V967.5H1331.87V931.42H1340.05V936.358C1340.94 934.676 1342.27 933.306 1344.05 932.249C1345.83 931.192 1347.57 930.663 1349.28 930.663ZM1359.69 915.813H1390.19V924.103H1368.34V937.439H1387.81V945.729H1368.34V967.5H1359.69V915.813ZM1405.07 915.813V967.5H1396.89V915.813H1405.07ZM1416.64 936.07C1420.22 932.465 1424.66 930.663 1429.94 930.663C1435.23 930.663 1439.67 932.465 1443.28 936.07C1446.88 939.674 1448.69 944.143 1448.69 949.478C1448.69 954.813 1446.88 959.27 1443.28 962.85C1439.67 966.431 1435.23 968.221 1429.94 968.221C1424.66 968.221 1420.22 966.431 1416.64 962.85C1413.06 959.27 1411.27 954.813 1411.27 949.478C1411.27 944.143 1413.06 939.674 1416.64 936.07ZM1437.51 941.692C1435.47 939.602 1432.95 938.557 1429.94 938.557C1426.94 938.557 1424.43 939.602 1422.41 941.692C1420.39 943.783 1419.38 946.378 1419.38 949.478C1419.38 952.554 1420.39 955.137 1422.41 957.227C1424.45 959.294 1426.96 960.327 1429.94 960.327C1432.95 960.327 1435.47 959.282 1437.51 957.191C1439.55 955.101 1440.58 952.53 1440.58 949.478C1440.58 946.378 1439.55 943.783 1437.51 941.692ZM1463.5 967.5L1450.45 931.42H1459.21L1466.82 954.813L1475.25 931.42H1481.88L1490.39 954.813L1497.96 931.42H1506.75L1493.7 967.5H1487.11L1478.57 944.107L1469.99 967.5H1463.5Z" fill="#C2C2C2"/>
</g>
<g opacity="0.2">
<circle cx="27.3067" cy="27.3067" r="27.3067" transform="matrix(-1 0 0 1 410.172 2061.68)" fill="#C2C2C2"/>
</g>
<path d="M62.4688 70.354C66.8984 70.354 70.5898 71.7837 73.543 74.6431C76.4961 77.479 77.9727 81.0415 77.9727 85.3306C77.9727 89.6196 76.4961 93.2056 73.543 96.0884C70.5898 98.9478 66.8984 100.377 62.4688 100.377H50.0938V120.768H43.0977V70.354H62.4688ZM62.4688 93.7681C64.8828 93.7681 66.9102 92.9595 68.5508 91.3423C70.2148 89.7017 71.0469 87.6978 71.0469 85.3306C71.0469 82.9634 70.2148 80.9829 68.5508 79.3892C66.9102 77.7954 64.8828 76.9985 62.4688 76.9985H50.0938V93.7681H62.4688ZM103.145 84.9087C107.504 84.9087 110.996 86.3501 113.621 89.2329C116.246 92.0923 117.559 95.9126 117.559 100.694V120.768H110.914V101.608C110.914 98.5376 110.059 96.0767 108.348 94.2251C106.66 92.3735 104.422 91.4478 101.633 91.4478C99.5938 91.4478 97.6953 91.9517 95.9375 92.9595C94.1797 93.9438 92.7734 95.2915 91.7188 97.0024V120.768H85.0039V70.354H91.7188V90.6743C92.8906 88.9399 94.4961 87.5454 96.5352 86.4907C98.5977 85.436 100.801 84.9087 103.145 84.9087ZM153.77 85.647H160.484V120.768H153.77V115.67C152.785 117.334 151.191 118.717 148.988 119.819C146.785 120.92 144.465 121.471 142.027 121.471C138.84 121.471 135.934 120.674 133.309 119.081C130.684 117.463 128.621 115.26 127.121 112.471C125.645 109.659 124.906 106.565 124.906 103.19C124.906 99.8149 125.645 96.7329 127.121 93.9438C128.621 91.1313 130.684 88.9282 133.309 87.3345C135.934 85.7173 138.84 84.9087 142.027 84.9087C144.488 84.9087 146.82 85.4712 149.023 86.5962C151.25 87.6978 152.832 89.0806 153.77 90.7446V85.647ZM143.328 115.213C145.484 115.213 147.523 114.674 149.445 113.596C151.391 112.495 152.832 111.088 153.77 109.377V97.0728C152.832 95.3384 151.391 93.9204 149.445 92.8188C147.523 91.7173 145.484 91.1665 143.328 91.1665C139.93 91.1665 137.082 92.3149 134.785 94.6118C132.512 96.8853 131.375 99.7446 131.375 103.19C131.375 106.612 132.512 109.471 134.785 111.768C137.082 114.065 139.93 115.213 143.328 115.213ZM181.895 121.471C179.152 121.471 176.445 121.014 173.773 120.1C171.125 119.186 168.957 117.967 167.27 116.444L170.012 111.487C171.371 112.799 173.164 113.877 175.391 114.721C177.617 115.542 179.762 115.952 181.824 115.952C183.84 115.952 185.48 115.506 186.746 114.616C188.035 113.702 188.68 112.565 188.68 111.206C188.68 110.151 188.305 109.272 187.555 108.569C186.805 107.866 185.832 107.327 184.637 106.952C183.441 106.553 182.117 106.202 180.664 105.897C179.234 105.569 177.793 105.182 176.34 104.737C174.91 104.268 173.598 103.706 172.402 103.049C171.207 102.37 170.234 101.409 169.484 100.167C168.734 98.9009 168.359 97.3892 168.359 95.6313C168.359 92.4438 169.59 89.8657 172.051 87.897C174.512 85.9048 177.723 84.9087 181.684 84.9087C184.145 84.9087 186.512 85.2954 188.785 86.0688C191.082 86.8423 192.969 87.9438 194.445 89.3735L191.562 94.4009C190.344 93.2056 188.715 92.2681 186.676 91.5884C184.637 90.8853 182.762 90.5337 181.051 90.5337C179.223 90.5337 177.758 90.9556 176.656 91.7993C175.555 92.6196 175.004 93.7095 175.004 95.0688C175.004 96.0298 175.379 96.8384 176.129 97.4946C176.879 98.1274 177.852 98.6431 179.047 99.0415C180.242 99.4165 181.555 99.7798 182.984 100.131C184.438 100.459 185.891 100.881 187.344 101.397C188.797 101.889 190.121 102.499 191.316 103.225C192.512 103.952 193.484 104.971 194.234 106.284C194.984 107.596 195.359 109.155 195.359 110.959C195.359 114.006 194.105 116.526 191.598 118.518C189.09 120.487 185.855 121.471 181.895 121.471ZM235.262 101.678C235.262 102.334 235.215 103.249 235.121 104.42H207.031C207.336 107.795 208.555 110.491 210.688 112.506C212.844 114.499 215.539 115.495 218.773 115.495C221 115.495 223.039 115.026 224.891 114.088C226.742 113.151 228.113 111.897 229.004 110.327L234.312 113.772C232.977 116.163 230.914 118.049 228.125 119.432C225.336 120.792 222.148 121.471 218.562 121.471C216.102 121.471 213.758 121.002 211.531 120.065C209.305 119.127 207.383 117.85 205.766 116.233C204.172 114.592 202.906 112.635 201.969 110.362C201.031 108.065 200.562 105.627 200.562 103.049C200.562 99.7212 201.348 96.6743 202.918 93.9087C204.488 91.1196 206.645 88.9282 209.387 87.3345C212.152 85.7173 215.188 84.9087 218.492 84.9087C223.203 84.9087 227.176 86.5259 230.41 89.7603C233.645 92.9946 235.262 96.9673 235.262 101.678ZM207.312 99.3931H228.406C228.195 96.7681 227.141 94.6235 225.242 92.9595C223.344 91.2954 221 90.4634 218.211 90.4634C215.445 90.4634 213.09 91.272 211.145 92.8892C209.199 94.5063 207.922 96.6743 207.312 99.3931ZM268.73 70.354H275.445V120.768H268.73V115.67C267.746 117.334 266.152 118.717 263.949 119.819C261.746 120.92 259.426 121.471 256.988 121.471C253.801 121.471 250.895 120.674 248.27 119.081C245.645 117.463 243.582 115.26 242.082 112.471C240.605 109.659 239.867 106.565 239.867 103.19C239.867 99.8149 240.605 96.7329 242.082 93.9438C243.582 91.1313 245.645 88.9282 248.27 87.3345C250.895 85.7173 253.801 84.9087 256.988 84.9087C259.449 84.9087 261.781 85.4712 263.984 86.5962C266.211 87.6978 267.793 89.0806 268.73 90.7446V70.354ZM258.289 115.213C260.445 115.213 262.484 114.674 264.406 113.596C266.352 112.495 267.793 111.088 268.73 109.377V97.0728C267.793 95.3384 266.352 93.9204 264.406 92.8188C262.484 91.7173 260.445 91.1665 258.289 91.1665C254.891 91.1665 252.043 92.3149 249.746 94.6118C247.473 96.8853 246.336 99.7446 246.336 103.19C246.336 106.612 247.473 109.471 249.746 111.768C252.043 114.065 254.891 115.213 258.289 115.213ZM317.492 84.9087C320.844 84.9087 323.902 85.7173 326.668 87.3345C329.434 88.9282 331.613 91.1313 333.207 93.9438C334.824 96.7563 335.633 99.8618 335.633 103.26C335.633 108.393 333.875 112.717 330.359 116.233C326.867 119.725 322.578 121.471 317.492 121.471C314.141 121.471 311.07 120.674 308.281 119.081C305.516 117.487 303.336 115.295 301.742 112.506C300.148 109.717 299.352 106.635 299.352 103.26C299.352 98.0806 301.098 93.7329 304.59 90.2173C308.082 86.6782 312.383 84.9087 317.492 84.9087ZM317.492 91.2368C314.188 91.2368 311.41 92.3853 309.16 94.6821C306.934 96.979 305.82 99.8384 305.82 103.26C305.82 106.612 306.934 109.436 309.16 111.733C311.41 114.006 314.188 115.143 317.492 115.143C320.773 115.143 323.539 113.995 325.789 111.698C328.039 109.401 329.164 106.588 329.164 103.26C329.164 99.8384 328.039 96.979 325.789 94.6821C323.539 92.3853 320.773 91.2368 317.492 91.2368ZM368.891 85.647H375.535V120.768H368.891V115.67C367.812 117.428 366.23 118.834 364.145 119.889C362.059 120.944 359.809 121.471 357.395 121.471C353.035 121.471 349.543 120.042 346.918 117.182C344.293 114.323 342.98 110.526 342.98 105.792V85.647H349.695V104.772C349.695 107.866 350.527 110.338 352.191 112.19C353.879 114.018 356.117 114.932 358.906 114.932C360.969 114.932 362.902 114.428 364.707 113.42C366.535 112.389 367.93 111.018 368.891 109.307V85.647ZM404.117 114.651L404.469 120.487C403.344 120.956 402.078 121.19 400.672 121.19C396.875 121.19 393.805 120.042 391.461 117.745C389.141 115.424 387.98 112.213 387.98 108.112V91.9751H381.16V85.647H387.98V76.1196H394.625V85.647H404.117V91.9751H394.625V107.795C394.625 110.022 395.27 111.78 396.559 113.069C397.848 114.358 399.5 115.002 401.516 115.002C402.477 115.002 403.344 114.885 404.117 114.651Z" fill="white"/>
<path d="M67.8044 531.836C72.2341 531.836 75.9255 533.266 78.8787 536.125C81.8318 538.961 83.3083 542.524 83.3083 546.813C83.3083 551.102 81.8318 554.688 78.8787 557.571C75.9255 560.43 72.2341 561.86 67.8044 561.86H55.4294V582.25H48.4333V531.836H67.8044ZM67.8044 555.25C70.2185 555.25 72.2458 554.442 73.8865 552.825C75.5505 551.184 76.3826 549.18 76.3826 546.813C76.3826 544.446 75.5505 542.465 73.8865 540.872C72.2458 539.278 70.2185 538.481 67.8044 538.481H55.4294V555.25H67.8044ZM105.633 546.391C106.851 546.391 108.14 546.579 109.5 546.954L109.148 553.247C107.929 552.801 106.605 552.579 105.176 552.579C103.652 552.579 102.058 553.153 100.394 554.301C98.7537 555.426 97.4294 556.938 96.4216 558.836V582.25H89.7068V547.129H96.4216V552.227C97.3826 550.493 98.7302 549.086 100.465 548.008C102.199 546.93 103.922 546.391 105.633 546.391ZM129.187 546.391C132.539 546.391 135.597 547.2 138.363 548.817C141.129 550.411 143.308 552.614 144.902 555.426C146.519 558.239 147.328 561.344 147.328 564.743C147.328 569.875 145.57 574.2 142.054 577.715C138.562 581.208 134.273 582.954 129.187 582.954C125.836 582.954 122.765 582.157 119.976 580.563C117.211 578.969 115.031 576.778 113.437 573.989C111.844 571.2 111.047 568.118 111.047 564.743C111.047 559.563 112.793 555.215 116.285 551.7C119.777 548.161 124.078 546.391 129.187 546.391ZM129.187 552.719C125.883 552.719 123.105 553.868 120.855 556.165C118.629 558.461 117.515 561.321 117.515 564.743C117.515 568.094 118.629 570.918 120.855 573.215C123.105 575.489 125.883 576.625 129.187 576.625C132.469 576.625 135.234 575.477 137.484 573.18C139.734 570.883 140.859 568.071 140.859 564.743C140.859 561.321 139.734 558.461 137.484 556.165C135.234 553.868 132.469 552.719 129.187 552.719ZM195.492 546.391C199.804 546.391 203.273 547.715 205.898 550.364C208.523 553.012 209.836 556.563 209.836 561.016V582.25H203.191V562.176C203.191 559.223 202.406 556.891 200.836 555.18C199.265 553.446 197.133 552.579 194.437 552.579C192.656 552.579 190.91 553.118 189.199 554.196C187.511 555.25 186.199 556.563 185.261 558.133C185.402 558.719 185.508 559.411 185.578 560.208V582.25H178.933V562.176C178.933 559.247 178.136 556.915 176.543 555.18C174.972 553.446 172.886 552.579 170.285 552.579C168.34 552.579 166.582 553.083 165.011 554.09C163.441 555.075 162.234 556.399 161.39 558.063V582.25H154.676V547.129H161.39V552.086C162.445 550.54 163.886 549.204 165.715 548.079C167.566 546.954 169.793 546.391 172.394 546.391C177.621 546.391 181.336 548.477 183.539 552.649C184.875 550.868 186.574 549.379 188.636 548.184C190.722 546.989 193.008 546.391 195.492 546.391ZM222.457 531.344C223.652 531.344 224.695 531.79 225.586 532.68C226.476 533.571 226.922 534.614 226.922 535.809C226.922 537.028 226.476 538.083 225.586 538.973C224.695 539.84 223.652 540.274 222.457 540.274C221.215 540.274 220.16 539.84 219.293 538.973C218.426 538.106 217.992 537.051 217.992 535.809C217.992 534.614 218.426 533.571 219.293 532.68C220.183 531.79 221.238 531.344 222.457 531.344ZM219.082 547.129H225.797V582.25H219.082V547.129ZM247.207 582.954C244.465 582.954 241.758 582.497 239.086 581.583C236.437 580.668 234.269 579.45 232.582 577.926L235.324 572.969C236.683 574.282 238.476 575.36 240.703 576.204C242.929 577.024 245.074 577.434 247.136 577.434C249.152 577.434 250.793 576.989 252.058 576.098C253.347 575.184 253.992 574.047 253.992 572.688C253.992 571.633 253.617 570.754 252.867 570.051C252.117 569.348 251.144 568.809 249.949 568.434C248.754 568.036 247.429 567.684 245.976 567.379C244.547 567.051 243.105 566.665 241.652 566.219C240.222 565.75 238.91 565.188 237.715 564.532C236.519 563.852 235.547 562.891 234.797 561.649C234.047 560.383 233.672 558.872 233.672 557.114C233.672 553.926 234.902 551.348 237.363 549.379C239.824 547.387 243.035 546.391 246.996 546.391C249.457 546.391 251.824 546.778 254.097 547.551C256.394 548.325 258.281 549.426 259.758 550.856L256.875 555.883C255.656 554.688 254.027 553.75 251.988 553.071C249.949 552.368 248.074 552.016 246.363 552.016C244.535 552.016 243.07 552.438 241.969 553.282C240.867 554.102 240.316 555.192 240.316 556.551C240.316 557.512 240.691 558.321 241.441 558.977C242.191 559.61 243.164 560.125 244.359 560.524C245.554 560.899 246.867 561.262 248.297 561.614C249.75 561.942 251.203 562.364 252.656 562.879C254.109 563.372 255.433 563.981 256.629 564.708C257.824 565.434 258.797 566.454 259.547 567.766C260.297 569.079 260.672 570.637 260.672 572.442C260.672 575.489 259.418 578.008 256.91 580C254.402 581.969 251.168 582.954 247.207 582.954ZM271.324 531.344C272.519 531.344 273.562 531.79 274.453 532.68C275.344 533.571 275.789 534.614 275.789 535.809C275.789 537.028 275.344 538.083 274.453 538.973C273.562 539.84 272.519 540.274 271.324 540.274C270.082 540.274 269.027 539.84 268.16 538.973C267.293 538.106 266.859 537.051 266.859 535.809C266.859 534.614 267.293 533.571 268.16 532.68C269.051 531.79 270.105 531.344 271.324 531.344ZM267.949 547.129H274.664V582.25H267.949V547.129ZM301.98 546.391C306.363 546.391 309.855 547.833 312.457 550.715C315.082 553.575 316.394 557.395 316.394 562.176V582.25H309.75V563.09C309.75 559.997 308.906 557.536 307.219 555.708C305.531 553.856 303.281 552.93 300.469 552.93C298.429 552.93 296.508 553.446 294.703 554.477C292.898 555.485 291.515 556.844 290.554 558.555V582.25H283.84V547.129H290.554V552.227C291.633 550.469 293.215 549.063 295.301 548.008C297.386 546.93 299.613 546.391 301.98 546.391ZM352.676 547.129H359.39V581.02C359.39 585.801 357.785 589.657 354.574 592.586C351.363 595.54 347.25 597.016 342.234 597.016C339.07 597.016 336.035 596.477 333.129 595.399C330.222 594.321 328.031 592.868 326.554 591.04L329.929 586.504C331.265 587.934 333 589.047 335.133 589.844C337.289 590.641 339.609 591.04 342.094 591.04C345.14 591.04 347.66 590.09 349.652 588.192C351.668 586.293 352.676 583.879 352.676 580.95V576.625C351.691 578.266 350.086 579.625 347.859 580.704C345.656 581.782 343.347 582.321 340.933 582.321C337.746 582.321 334.84 581.536 332.215 579.965C329.59 578.372 327.527 576.204 326.027 573.461C324.551 570.696 323.812 567.649 323.812 564.321C323.812 561.836 324.246 559.493 325.113 557.29C326.004 555.063 327.199 553.153 328.699 551.559C330.222 549.965 332.039 548.711 334.148 547.797C336.281 546.86 338.543 546.391 340.933 546.391C343.394 546.391 345.726 546.942 347.929 548.043C350.156 549.122 351.738 550.493 352.676 552.157V547.129ZM342.234 576.133C344.39 576.133 346.429 575.606 348.351 574.551C350.297 573.473 351.738 572.102 352.676 570.438V558.344C351.738 556.657 350.297 555.274 348.351 554.196C346.429 553.118 344.39 552.579 342.234 552.579C338.836 552.579 335.988 553.692 333.691 555.918C331.418 558.145 330.281 560.946 330.281 564.321C330.281 567.696 331.418 570.508 333.691 572.758C335.988 575.008 338.836 576.133 342.234 576.133Z" fill="white"/>
<path d="M79.0693 998.779C83.499 998.779 87.1904 1000.21 90.1436 1003.07C93.0967 1005.9 94.5732 1009.47 94.5732 1013.76C94.5732 1018.04 93.0967 1021.63 90.1436 1024.51C87.1904 1027.37 83.499 1028.8 79.0693 1028.8H66.6943V1049.19H59.6982V998.779H79.0693ZM79.0693 1022.19C81.4834 1022.19 83.5107 1021.38 85.1514 1019.77C86.8154 1018.13 87.6475 1016.12 87.6475 1013.76C87.6475 1011.39 86.8154 1009.41 85.1514 1007.81C83.5107 1006.22 81.4834 1005.42 79.0693 1005.42H66.6943V1022.19H79.0693ZM116.897 1013.33C118.116 1013.33 119.405 1013.52 120.765 1013.9L120.413 1020.19C119.194 1019.74 117.87 1019.52 116.44 1019.52C114.917 1019.52 113.323 1020.1 111.659 1021.24C110.019 1022.37 108.694 1023.88 107.687 1025.78V1049.19H100.972V1014.07H107.687V1019.17C108.647 1017.44 109.995 1016.03 111.729 1014.95C113.464 1013.87 115.187 1013.33 116.897 1013.33ZM140.452 1013.33C143.804 1013.33 146.862 1014.14 149.628 1015.76C152.394 1017.35 154.573 1019.56 156.167 1022.37C157.784 1025.18 158.593 1028.29 158.593 1031.69C158.593 1036.82 156.835 1041.14 153.319 1044.66C149.827 1048.15 145.538 1049.9 140.452 1049.9C137.101 1049.9 134.03 1049.1 131.241 1047.51C128.476 1045.91 126.296 1043.72 124.702 1040.93C123.108 1038.14 122.312 1035.06 122.312 1031.69C122.312 1026.51 124.058 1022.16 127.55 1018.64C131.042 1015.1 135.343 1013.33 140.452 1013.33ZM140.452 1019.66C137.147 1019.66 134.37 1020.81 132.12 1023.11C129.894 1025.4 128.78 1028.26 128.78 1031.69C128.78 1035.04 129.894 1037.86 132.12 1040.16C134.37 1042.43 137.147 1043.57 140.452 1043.57C143.733 1043.57 146.499 1042.42 148.749 1040.12C150.999 1037.83 152.124 1035.01 152.124 1031.69C152.124 1028.26 150.999 1025.4 148.749 1023.11C146.499 1020.81 143.733 1019.66 140.452 1019.66ZM195.929 1014.07L181.093 1049.19H175.362L160.526 1014.07H167.733L178.245 1040.54L188.651 1014.07H195.929ZM232.597 1030.1C232.597 1030.76 232.55 1031.67 232.456 1032.85H204.366C204.671 1036.22 205.89 1038.92 208.022 1040.93C210.179 1042.92 212.874 1043.92 216.108 1043.92C218.335 1043.92 220.374 1043.45 222.226 1042.51C224.077 1041.58 225.448 1040.32 226.339 1038.75L231.647 1042.2C230.312 1044.59 228.249 1046.47 225.46 1047.86C222.671 1049.22 219.483 1049.9 215.897 1049.9C213.437 1049.9 211.093 1049.43 208.866 1048.49C206.64 1047.55 204.718 1046.28 203.101 1044.66C201.507 1043.02 200.241 1041.06 199.304 1038.79C198.366 1036.49 197.897 1034.05 197.897 1031.47C197.897 1028.15 198.683 1025.1 200.253 1022.33C201.823 1019.54 203.979 1017.35 206.722 1015.76C209.487 1014.14 212.522 1013.33 215.827 1013.33C220.538 1013.33 224.511 1014.95 227.745 1018.19C230.979 1021.42 232.597 1025.39 232.597 1030.1ZM204.647 1027.82H225.741C225.53 1025.19 224.476 1023.05 222.577 1021.38C220.679 1019.72 218.335 1018.89 215.546 1018.89C212.78 1018.89 210.425 1019.7 208.479 1021.31C206.534 1022.93 205.257 1025.1 204.647 1027.82ZM258.05 1013.33C262.433 1013.33 265.925 1014.78 268.526 1017.66C271.151 1020.52 272.464 1024.34 272.464 1029.12V1049.19H265.819V1030.03C265.819 1026.94 264.976 1024.48 263.288 1022.65C261.601 1020.8 259.351 1019.87 256.538 1019.87C254.499 1019.87 252.577 1020.39 250.772 1021.42C248.968 1022.43 247.585 1023.79 246.624 1025.5V1049.19H239.909V1014.07H246.624V1019.17C247.702 1017.41 249.284 1016.01 251.37 1014.95C253.456 1013.87 255.683 1013.33 258.05 1013.33Z" fill="white"/>
<path d="M63.2556 1465.72H70.2517V1516.14H63.2556V1465.72ZM98.1306 1480.28C102.513 1480.28 106.006 1481.72 108.607 1484.6C111.232 1487.46 112.545 1491.28 112.545 1496.06V1516.14H105.9V1496.98C105.9 1493.88 105.056 1491.42 103.369 1489.59C101.681 1487.74 99.4314 1486.82 96.6189 1486.82C94.5798 1486.82 92.658 1487.33 90.8533 1488.36C89.0486 1489.37 87.6658 1490.73 86.7048 1492.44V1516.14H79.99V1481.02H86.7048V1486.11C87.783 1484.36 89.365 1482.95 91.4509 1481.9C93.5369 1480.82 95.7634 1480.28 98.1306 1480.28ZM164.33 1481.02H170.974V1516.14H164.33V1511.04C163.252 1512.8 161.67 1514.2 159.584 1515.26C157.498 1516.31 155.248 1516.84 152.834 1516.84C148.474 1516.84 144.982 1515.41 142.357 1512.55C139.732 1509.69 138.42 1505.9 138.42 1501.16V1481.02H145.135V1500.14C145.135 1503.24 145.967 1505.71 147.631 1507.56C149.318 1509.39 151.556 1510.3 154.345 1510.3C156.408 1510.3 158.342 1509.8 160.146 1508.79C161.974 1507.76 163.369 1506.39 164.33 1504.68V1481.02ZM192.49 1516.84C189.748 1516.84 187.041 1516.38 184.369 1515.47C181.72 1514.56 179.552 1513.34 177.865 1511.81L180.607 1506.86C181.967 1508.17 183.76 1509.25 185.986 1510.09C188.213 1510.91 190.357 1511.32 192.42 1511.32C194.435 1511.32 196.076 1510.88 197.342 1509.99C198.631 1509.07 199.275 1507.93 199.275 1506.58C199.275 1505.52 198.9 1504.64 198.15 1503.94C197.4 1503.24 196.427 1502.7 195.232 1502.32C194.037 1501.92 192.713 1501.57 191.26 1501.27C189.83 1500.94 188.388 1500.55 186.935 1500.11C185.506 1499.64 184.193 1499.08 182.998 1498.42C181.802 1497.74 180.83 1496.78 180.08 1495.54C179.33 1494.27 178.955 1492.76 178.955 1491C178.955 1487.81 180.185 1485.24 182.646 1483.27C185.107 1481.27 188.318 1480.28 192.279 1480.28C194.74 1480.28 197.107 1480.67 199.381 1481.44C201.677 1482.21 203.564 1483.31 205.041 1484.74L202.158 1489.77C200.939 1488.58 199.31 1487.64 197.271 1486.96C195.232 1486.25 193.357 1485.9 191.646 1485.9C189.818 1485.9 188.353 1486.33 187.252 1487.17C186.15 1487.99 185.599 1489.08 185.599 1490.44C185.599 1491.4 185.974 1492.21 186.724 1492.86C187.474 1493.5 188.447 1494.01 189.642 1494.41C190.838 1494.79 192.15 1495.15 193.58 1495.5C195.033 1495.83 196.486 1496.25 197.939 1496.77C199.392 1497.26 200.717 1497.87 201.912 1498.59C203.107 1499.32 204.08 1500.34 204.83 1501.65C205.58 1502.97 205.955 1504.52 205.955 1506.33C205.955 1509.38 204.701 1511.9 202.193 1513.89C199.685 1515.86 196.451 1516.84 192.49 1516.84ZM245.857 1497.05C245.857 1497.7 245.81 1498.62 245.717 1499.79H217.627C217.931 1503.17 219.15 1505.86 221.283 1507.88C223.439 1509.87 226.135 1510.86 229.369 1510.86C231.595 1510.86 233.635 1510.4 235.486 1509.46C237.338 1508.52 238.709 1507.27 239.599 1505.7L244.908 1509.14C243.572 1511.53 241.51 1513.42 238.72 1514.8C235.931 1516.16 232.744 1516.84 229.158 1516.84C226.697 1516.84 224.353 1516.37 222.127 1515.43C219.9 1514.5 217.978 1513.22 216.361 1511.6C214.767 1509.96 213.502 1508 212.564 1505.73C211.627 1503.43 211.158 1501 211.158 1498.42C211.158 1495.09 211.943 1492.04 213.513 1489.28C215.084 1486.49 217.24 1484.3 219.982 1482.7C222.748 1481.09 225.783 1480.28 229.088 1480.28C233.799 1480.28 237.771 1481.9 241.006 1485.13C244.24 1488.36 245.857 1492.34 245.857 1497.05ZM217.908 1494.76H239.002C238.791 1492.14 237.736 1489.99 235.838 1488.33C233.939 1486.67 231.595 1485.83 228.806 1485.83C226.041 1485.83 223.685 1486.64 221.74 1488.26C219.795 1489.88 218.517 1492.04 217.908 1494.76Z" fill="white"/>
</g>
<defs>
<filter id="filter0_d_1021_57252" x="1005.82" y="828" width="629.091" height="337.454" filterUnits="userSpaceOnUse" color-interpolation-filters="sRGB">
<feFlood flood-opacity="0" result="BackgroundImageFix"/>
<feColorMatrix in="SourceAlpha" type="matrix" values="0 0 0 0 0 0 0 0 0 0 0 0 0 0 0 0 0 0 127 0" result="hardAlpha"/>
<feOffset dy="63.2727"/>
<feGaussianBlur stdDeviation="21.0909"/>
<feComposite in2="hardAlpha" operator="out"/>
<feColorMatrix type="matrix" values="0 0 0 0 0 0 0 0 0 0 0 0 0 0 0 0 0 0 0.1 0"/>
<feBlend mode="normal" in2="BackgroundImageFix" result="effect1_dropShadow_1021_57252"/>
<feBlend mode="normal" in="SourceGraphic" in2="effect1_dropShadow_1021_57252" result="shape"/>
</filter>
<radialGradient id="paint0_radial_1021_57252" cx="0" cy="0" r="1" gradientUnits="userSpaceOnUse" gradientTransform="translate(1 2048) rotate(90) scale(651.629)">
<stop offset="0.742857" stop-color="#111111" stop-opacity="0"/>
<stop offset="1" stop-color="#444444"/>
</radialGradient>
<radialGradient id="paint1_radial_1021_57252" cx="0" cy="0" r="1" gradientUnits="userSpaceOnUse" gradientTransform="translate(1.00134 2049.12) rotate(90) scale(1118.52 1117.4)">
<stop offset="0.875" stop-color="#111111" stop-opacity="0"/>
<stop offset="1" stop-color="#444444"/>
</radialGradient>
<radialGradient id="paint2_radial_1021_57252" cx="0" cy="0" r="1" gradientUnits="userSpaceOnUse" gradientTransform="translate(2.11975 2049.12) rotate(90) scale(1584.29 1584.29)">
<stop offset="0.917647" stop-color="#111111" stop-opacity="0"/>
<stop offset="1" stop-color="#444444"/>
</radialGradient>
<radialGradient id="paint3_radial_1021_57252" cx="0" cy="0" r="1" gradientUnits="userSpaceOnUse" gradientTransform="translate(-11.0627 2047.94) rotate(90) scale(2048.94 2048.94)">
<stop offset="0.956818" stop-color="#111111" stop-opacity="0"/>
<stop offset="1" stop-color="#444444"/>
</radialGradient>
<radialGradient id="paint4_angular_1021_57252" cx="0" cy="0" r="1" gradientUnits="userSpaceOnUse" gradientTransform="translate(-11.0627 2047.94) rotate(-90) scale(1182.8 1182.8)">
<stop stop-color="white"/>
<stop offset="1" stop-opacity="0"/>
</radialGradient>
<linearGradient id="paint5_linear_1021_57252" x1="355.656" y1="-82.782" x2="-113.501" y2="36.2973" gradientUnits="userSpaceOnUse">
<stop stop-color="#42F272"/>
<stop offset="1" stop-color="#42F272" stop-opacity="0"/>
</linearGradient>
<linearGradient id="paint6_linear_1021_57252" x1="228.636" y1="-53.217" x2="-72.965" y2="23.334" gradientUnits="userSpaceOnUse">
<stop stop-color="#42F272"/>
<stop offset="1" stop-color="#42F272" stop-opacity="0"/>
</linearGradient>
<clipPath id="clip0_1021_57252">
<rect width="1962" height="2073" fill="white"/>
</clipPath>
</defs>
</svg>
