<svg width="4096" height="1710" viewBox="0 0 4096 1710" fill="none" xmlns="http://www.w3.org/2000/svg">
<g clip-path="url(#clip0_1021_56640)">
<circle cx="2048" cy="2048.3" r="648.899" fill="url(#paint0_radial_1021_56640)" fill-opacity="0.2" stroke="#333333" stroke-width="5.46133"/>
<path d="M3162.67 2049.42C3162.67 2665.66 2663.61 3165.21 2048 3165.21C1432.39 3165.21 933.332 2665.66 933.332 2049.42C933.332 1433.19 1432.39 933.635 2048 933.635C2663.61 933.635 3162.67 1433.19 3162.67 2049.42Z" fill="url(#paint1_radial_1021_56640)" fill-opacity="0.2" stroke="#333333" stroke-width="5.46133"/>
<path d="M3630.68 2049.42C3630.68 2922.89 2922.59 3630.98 2049.12 3630.98C1175.65 3630.98 467.563 2922.89 467.563 2049.42C467.563 1175.95 1175.65 467.864 2049.12 467.864C2922.59 467.864 3630.68 1175.95 3630.68 2049.42Z" fill="url(#paint2_radial_1021_56640)" fill-opacity="0.2" stroke="#333333" stroke-width="5.46133"/>
<path d="M4094.21 2048.3C4094.21 3178.39 3178.09 4094.51 2048 4094.51C917.91 4094.51 1.79195 3178.39 1.79195 2048.3C1.79195 918.211 917.91 2.09297 2048 2.09297C3178.09 2.09297 4094.21 918.211 4094.21 2048.3Z" fill="url(#paint3_radial_1021_56640)" fill-opacity="0.2"/>
<path d="M4094.21 2048.3C4094.21 3178.39 3178.09 4094.51 2048 4094.51C917.91 4094.51 1.79195 3178.39 1.79195 2048.3C1.79195 918.211 917.91 2.09297 2048 2.09297C3178.09 2.09297 4094.21 918.211 4094.21 2048.3Z" fill="url(#paint4_angular_1021_56640)" fill-opacity="0.1"/>
<path d="M4094.21 2048.3C4094.21 3178.39 3178.09 4094.51 2048 4094.51C917.91 4094.51 1.79195 3178.39 1.79195 2048.3C1.79195 918.211 917.91 2.09297 2048 2.09297C3178.09 2.09297 4094.21 918.211 4094.21 2048.3Z" stroke="#333333" stroke-width="5.46133"/>
<line x1="2049.62" y1="0.301758" x2="2049.62" y2="4100.73" stroke="#333333" stroke-width="5.46133"/>
<circle cx="27.3067" cy="27.3067" r="27.3067" transform="matrix(-1 0 0 1 2481.71 1649.45)" fill="#C2C2C2"/>
<circle cx="27.3067" cy="27.3067" r="27.3067" transform="matrix(-1 0 0 1 2367.08 1600.96)" fill="#C2C2C2"/>
<circle cx="27.3067" cy="27.3067" r="27.3067" transform="matrix(-1 0 0 1 2287.72 1671.51)" fill="#C2C2C2"/>
<circle cx="27.3067" cy="27.3067" r="27.3067" transform="matrix(-1 0 0 1 2190.72 1684.74)" fill="#C2C2C2"/>
<circle cx="27.3067" cy="27.3067" r="27.3067" transform="matrix(-1 0 0 1 2170.88 1605.38)" fill="#C2C2C2"/>
<rect width="46.341" height="46.341" transform="matrix(-0.707107 -0.707107 -0.707107 0.707107 2225.89 1210.48)" fill="#C2C2C2"/>
<rect width="46.341" height="46.341" transform="matrix(-0.707107 -0.707107 -0.707107 0.707107 2439.72 1329.52)" fill="#C2C2C2"/>
<rect width="46.341" height="46.341" transform="matrix(-0.707107 -0.707107 -0.707107 0.707107 2653.55 1263.38)" fill="#C2C2C2"/>
<rect width="46.341" height="46.341" transform="matrix(-0.707107 -0.707107 -0.707107 0.707107 2726.3 1477.23)" fill="#C2C2C2"/>
<rect width="46.341" height="46.341" transform="matrix(-0.707107 -0.707107 -0.707107 0.707107 2851.95 1686.64)" fill="#C2C2C2"/>
<rect width="46.341" height="46.341" transform="matrix(-0.707107 -0.707107 -0.707107 0.707107 2948.95 1543.36)" fill="#C2C2C2"/>
<g opacity="0.3">
<rect width="109.227" height="109.227" transform="matrix(0.707107 -0.707107 -0.707107 -0.707107 2386.6 1196.33)" fill="#FFDE00"/>
<rect width="109.227" height="109.227" transform="matrix(0.707107 -0.707107 -0.707107 -0.707107 2386.6 1196.33)" fill="url(#paint5_linear_1021_56640)"/>
</g>
<rect width="68.2667" height="68.2667" transform="matrix(0.707107 -0.707107 -0.707107 -0.707107 2386.6 1165.42)" fill="#FFDE00"/>
<rect width="68.2667" height="68.2667" transform="matrix(0.707107 -0.707107 -0.707107 -0.707107 2386.6 1165.42)" fill="url(#paint6_linear_1021_56640)"/>
<g filter="url(#filter0_d_1021_56640)">
<rect x="2498.56" y="1057.07" width="308.381" height="120.149" rx="16.384" fill="#111111" shape-rendering="crispEdges"/>
<path d="M2554.94 1102.38C2557.41 1102.38 2559.45 1103.15 2561.07 1104.71C2562.7 1106.27 2563.51 1108.22 2563.51 1110.57C2563.51 1112.96 2562.7 1114.93 2561.07 1116.49C2559.45 1118.04 2557.41 1118.82 2554.94 1118.82H2549.18V1129.14H2544.7V1102.38H2554.94ZM2554.94 1114.55C2556.1 1114.55 2557.07 1114.17 2557.84 1113.41C2558.61 1112.65 2558.99 1111.7 2558.99 1110.57C2558.99 1109.46 2558.61 1108.54 2557.84 1107.79C2557.07 1107.04 2556.1 1106.67 2554.94 1106.67H2549.18V1114.55H2554.94ZM2579.71 1110.46H2584.31L2573.74 1135.72H2569.17L2572.53 1128.16L2565.12 1110.46H2569.69L2574.71 1123.19L2579.71 1110.46ZM2597.88 1125.21L2598.12 1128.96C2597.51 1129.26 2596.74 1129.41 2595.82 1129.41C2593.72 1129.41 2592.02 1128.76 2590.73 1127.48C2589.43 1126.19 2588.79 1124.41 2588.79 1122.14V1114.51H2585.2V1110.46H2588.79V1105.44H2593.02V1110.46H2597.93V1114.51H2593.02V1121.96C2593.02 1123.02 2593.35 1123.86 2593.99 1124.5C2594.65 1125.12 2595.47 1125.43 2596.44 1125.43C2596.9 1125.43 2597.38 1125.36 2597.88 1125.21ZM2611.45 1110.07C2613.8 1110.07 2615.66 1110.83 2617.03 1112.34C2618.41 1113.86 2619.1 1115.91 2619.1 1118.49V1129.14H2614.83V1119.16C2614.83 1117.65 2614.43 1116.47 2613.63 1115.61C2612.84 1114.74 2611.77 1114.3 2610.42 1114.3C2609.48 1114.3 2608.57 1114.54 2607.71 1115.01C2606.86 1115.49 2606.2 1116.12 2605.75 1116.92V1129.14H2601.52V1102.38H2605.75V1112.98C2606.3 1112.08 2607.09 1111.37 2608.11 1110.85C2609.14 1110.33 2610.25 1110.07 2611.45 1110.07ZM2625.45 1112.87C2627.3 1111 2629.6 1110.07 2632.34 1110.07C2635.07 1110.07 2637.38 1111 2639.24 1112.87C2641.11 1114.73 2642.04 1117.05 2642.04 1119.81C2642.04 1122.57 2641.11 1124.88 2639.24 1126.74C2637.38 1128.59 2635.07 1129.52 2632.34 1129.52C2629.6 1129.52 2627.3 1128.59 2625.45 1126.74C2623.59 1124.88 2622.67 1122.57 2622.67 1119.81C2622.67 1117.05 2623.59 1114.73 2625.45 1112.87ZM2636.26 1115.78C2635.2 1114.7 2633.89 1114.16 2632.34 1114.16C2630.78 1114.16 2629.48 1114.7 2628.43 1115.78C2627.39 1116.86 2626.87 1118.21 2626.87 1119.81C2626.87 1121.4 2627.39 1122.74 2628.43 1123.82C2629.49 1124.89 2630.79 1125.43 2632.34 1125.43C2633.89 1125.43 2635.2 1124.89 2636.26 1123.81C2637.31 1122.72 2637.84 1121.39 2637.84 1119.81C2637.84 1118.21 2637.31 1116.86 2636.26 1115.78ZM2655.58 1110.07C2657.92 1110.07 2659.78 1110.83 2661.16 1112.34C2662.54 1113.86 2663.23 1115.91 2663.23 1118.49V1129.14H2658.95V1119.16C2658.95 1117.66 2658.55 1116.48 2657.74 1115.61C2656.94 1114.74 2655.88 1114.3 2654.55 1114.3C2653.59 1114.3 2652.68 1114.54 2651.82 1115.01C2650.98 1115.49 2650.32 1116.12 2649.85 1116.92V1129.14H2645.61V1110.46H2649.85V1112.98C2650.42 1112.08 2651.22 1111.37 2652.25 1110.85C2653.29 1110.33 2654.39 1110.07 2655.58 1110.07ZM2676.3 1102.38H2692.09V1106.67H2680.78V1113.58H2690.86V1117.87H2680.78V1129.14H2676.3V1102.38ZM2699.8 1102.38V1129.14H2695.56V1102.38H2699.8ZM2717.94 1110.46H2722.2V1129.14H2717.94V1126.62C2717.44 1127.47 2716.63 1128.17 2715.51 1128.72C2714.41 1129.25 2713.23 1129.52 2711.99 1129.52C2709.47 1129.52 2707.34 1128.58 2705.6 1126.7C2703.87 1124.82 2703.01 1122.51 2703.01 1119.77C2703.01 1117.06 2703.87 1114.76 2705.6 1112.89C2707.34 1111.01 2709.47 1110.07 2711.99 1110.07C2713.22 1110.07 2714.39 1110.34 2715.51 1110.89C2716.63 1111.44 2717.44 1112.13 2717.94 1112.98V1110.46ZM2712.86 1125.47C2713.91 1125.47 2714.9 1125.21 2715.83 1124.68C2716.78 1124.16 2717.48 1123.49 2717.94 1122.69V1116.96C2717.48 1116.12 2716.78 1115.44 2715.85 1114.92C2714.92 1114.39 2713.92 1114.12 2712.86 1114.12C2711.26 1114.12 2709.91 1114.66 2708.83 1115.74C2707.75 1116.81 2707.21 1118.16 2707.21 1119.77C2707.21 1121.39 2707.75 1122.75 2708.83 1123.84C2709.91 1124.93 2711.26 1125.47 2712.86 1125.47ZM2733.62 1129.57C2732.1 1129.57 2730.6 1129.32 2729.1 1128.83C2727.61 1128.33 2726.41 1127.67 2725.5 1126.85L2727.18 1123.64C2727.89 1124.32 2728.85 1124.88 2730.06 1125.32C2731.28 1125.75 2732.42 1125.97 2733.49 1125.97C2734.41 1125.97 2735.16 1125.78 2735.73 1125.39C2736.3 1124.99 2736.59 1124.5 2736.59 1123.9C2736.59 1123.49 2736.44 1123.14 2736.14 1122.85C2735.84 1122.57 2735.45 1122.35 2734.97 1122.2C2734.48 1122.04 2733.93 1121.88 2733.3 1121.72C2732.68 1121.54 2732.04 1121.39 2731.38 1121.25C2730.73 1121.1 2730.1 1120.89 2729.48 1120.61C2728.85 1120.33 2728.3 1120 2727.82 1119.64C2727.33 1119.27 2726.94 1118.77 2726.64 1118.13C2726.34 1117.5 2726.19 1116.77 2726.19 1115.95C2726.19 1114.22 2726.86 1112.8 2728.21 1111.71C2729.56 1110.61 2731.31 1110.07 2733.45 1110.07C2734.81 1110.07 2736.11 1110.26 2737.35 1110.65C2738.61 1111.03 2739.64 1111.59 2740.45 1112.33L2738.77 1115.61C2738.08 1115 2737.16 1114.52 2736.03 1114.17C2734.91 1113.81 2733.91 1113.63 2733.04 1113.63C2732.26 1113.63 2731.63 1113.81 2731.16 1114.17C2730.68 1114.52 2730.45 1115 2730.45 1115.61C2730.45 1116.03 2730.64 1116.4 2731.03 1116.69C2731.41 1116.98 2731.91 1117.22 2732.52 1117.4C2733.14 1117.59 2733.83 1117.78 2734.57 1117.96C2735.32 1118.14 2736.06 1118.37 2736.79 1118.65C2737.54 1118.93 2738.22 1119.26 2738.83 1119.66C2739.45 1120.05 2739.96 1120.6 2740.34 1121.3C2740.73 1122 2740.92 1122.82 2740.92 1123.75C2740.92 1125.43 2740.24 1126.82 2738.87 1127.93C2737.5 1129.03 2735.75 1129.57 2733.62 1129.57ZM2762.09 1129.14H2756.58L2748.63 1120.32V1129.14H2744.39V1102.38H2748.63V1118.52L2756.21 1110.46H2761.51L2752.92 1119.44L2762.09 1129.14Z" fill="#C2C2C2"/>
</g>
<rect width="49.152" height="49.152" transform="translate(2233.1 820.61)" fill="#C2C2C2"/>
<rect width="49.152" height="49.152" transform="translate(2407.25 664.088)" fill="#C2C2C2"/>
<rect width="49.152" height="49.152" transform="translate(2680.61 855.875)" fill="#C2C2C2"/>
<rect width="49.152" height="49.152" transform="translate(3035.52 1091.76)" fill="#C2C2C2"/>
<rect width="49.152" height="49.152" transform="translate(3253.76 1477.53)" fill="#C2C2C2"/>
<rect width="49.152" height="49.152" transform="translate(3293.44 1702.38)" fill="#C2C2C2"/>
<path d="M2493.16 325.248L2459.02 276.099L2424.89 325.251L2493.16 325.248Z" fill="#C2C2C2"/>
<path d="M2757.69 409.024L2723.56 359.875L2689.42 409.027L2757.69 409.024Z" fill="#C2C2C2"/>
<path d="M3128.04 442.091L3093.9 392.941L3059.77 442.093L3128.04 442.091Z" fill="#C2C2C2"/>
<path d="M3143.47 688.981L3109.33 639.832L3075.2 688.984L3143.47 688.981Z" fill="#C2C2C2"/>
<path d="M3557.9 993.194L3523.77 944.045L3489.64 993.197L3557.9 993.194Z" fill="#C2C2C2"/>
<path d="M3888.57 1689.79L3854.44 1640.64L3820.3 1689.79L3888.57 1689.79Z" fill="#C2C2C2"/>
<g opacity="0.2">
<circle cx="27.3067" cy="27.3067" r="27.3067" transform="matrix(-1 0 0 1 1636.38 1656.28)" fill="#C2C2C2"/>
</g>
<g opacity="0.2">
<circle cx="27.3067" cy="27.3067" r="27.3067" transform="matrix(-1 0 0 1 1972.2 1636.91)" fill="#C2C2C2"/>
</g>
<g opacity="0.2">
<circle cx="27.3067" cy="27.3067" r="27.3067" transform="matrix(-1 0 0 1 1877.48 1656.28)" fill="#C2C2C2"/>
</g>
<g opacity="0.2">
<circle cx="27.3067" cy="27.3067" r="27.3067" transform="matrix(-1 0 0 1 1763.39 1641.22)" fill="#C2C2C2"/>
</g>
<g opacity="0.2">
<circle cx="27.3067" cy="27.3067" r="27.3067" transform="matrix(-1 0 0 1 1899.01 1565.87)" fill="#C2C2C2"/>
</g>
<g opacity="0.2">
<circle cx="27.3067" cy="27.3067" r="27.3067" transform="matrix(-1 0 0 1 1977.68 1512.07)" fill="#C2C2C2"/>
</g>
<g opacity="0.2">
<circle cx="27.3067" cy="27.3067" r="27.3067" transform="matrix(-1 0 0 1 1899.99 1458.24)" fill="#C2C2C2"/>
</g>
<g opacity="0.2">
<rect width="46.341" height="46.341" transform="matrix(-0.707107 -0.707107 -0.707107 0.707107 1140.82 1712.75)" fill="#C2C2C2"/>
</g>
<g opacity="0.2">
<rect width="46.341" height="46.341" transform="matrix(-0.707107 -0.707107 -0.707107 0.707107 1405.6 1491.01)" fill="#C2C2C2"/>
</g>
<g opacity="0.2">
<rect width="46.341" height="46.341" transform="matrix(-0.707107 -0.707107 -0.707107 0.707107 1478.79 1284.35)" fill="#C2C2C2"/>
</g>
<g opacity="0.2">
<rect width="46.341" height="46.341" transform="matrix(-0.707107 -0.707107 -0.707107 0.707107 1554.14 1185.33)" fill="#C2C2C2"/>
</g>
<g opacity="0.2">
<rect width="46.341" height="46.341" transform="matrix(-0.707107 -0.707107 -0.707107 0.707107 1872.42 1094.92)" fill="#C2C2C2"/>
</g>
<g opacity="0.2">
<rect width="46.341" height="46.341" transform="matrix(-0.707107 -0.707107 -0.707107 0.707107 1883.58 1234.84)" fill="#C2C2C2"/>
</g>
<g opacity="0.2">
<rect width="49.152" height="49.152" transform="translate(652.624 1701.49)" fill="#C2C2C2"/>
</g>
<g opacity="0.2">
<rect width="49.152" height="49.152" transform="translate(951.851 1421.63)" fill="#C2C2C2"/>
</g>
<g opacity="0.2">
<rect width="49.152" height="49.152" transform="translate(857.133 1195.61)" fill="#C2C2C2"/>
</g>
<g opacity="0.2">
<rect width="49.152" height="49.152" transform="translate(1035.81 1113.79)" fill="#C2C2C2"/>
</g>
<g opacity="0.2">
<rect width="49.152" height="49.152" transform="translate(1384.55 887.769)" fill="#C2C2C2"/>
</g>
<g opacity="0.2">
<rect width="49.152" height="49.152" transform="translate(1642.87 698.328)" fill="#C2C2C2"/>
</g>
<g opacity="0.2">
<rect width="49.152" height="49.152" transform="translate(1821.55 851.16)" fill="#C2C2C2"/>
</g>
<g opacity="0.2">
<path d="M500.274 1201.71L466.14 1152.56L432.008 1201.71L500.274 1201.71Z" fill="#C2C2C2"/>
</g>
<g opacity="0.2">
<path d="M269.934 1567.66L235.8 1518.51L201.667 1567.66L269.934 1567.66Z" fill="#C2C2C2"/>
</g>
<g opacity="0.2">
<path d="M696.172 1040.26L662.038 991.107L627.905 1040.26L696.172 1040.26Z" fill="#C2C2C2"/>
</g>
<g opacity="0.2">
<path d="M696.172 749.633L662.038 700.483L627.905 749.635L696.172 749.633Z" fill="#C2C2C2"/>
</g>
<g opacity="0.2">
<path d="M859.777 809.899L825.643 760.75L791.51 809.902L859.777 809.899Z" fill="#C2C2C2"/>
</g>
<g opacity="0.2">
<path d="M1139.63 482.688L1105.5 433.539L1071.36 482.691L1139.63 482.688Z" fill="#C2C2C2"/>
</g>
<g opacity="0.2">
<path d="M1382.89 514.987L1348.75 465.838L1314.62 514.99L1382.89 514.987Z" fill="#C2C2C2"/>
</g>
<g opacity="0.2">
<path d="M1588.76 235.137L1554.63 185.987L1520.49 235.139L1588.76 235.137Z" fill="#C2C2C2"/>
</g>
<rect x="2796.2" y="202.371" width="794.227" height="87.3813" rx="43.6907" fill="#C2C2C2"/>
<path d="M2854.17 231.794H2858.65V254.287H2871.46V258.562H2854.17V231.794ZM2900.81 258.562L2898.74 253.204H2887.43L2885.32 258.562H2880.58L2891.26 231.794H2895.01L2905.67 258.562H2900.81ZM2889.07 248.93H2897.06L2893.09 238.682L2889.07 248.93ZM2916.09 231.794H2920L2932.65 249.919V231.794H2937.17V258.562H2933.3L2920.57 240.436V258.562H2916.09V231.794ZM2962.45 247.623V243.348H2973.32V253.895C2972.1 255.475 2970.54 256.707 2968.63 257.591C2966.73 258.462 2964.61 258.898 2962.27 258.898C2959.75 258.898 2957.46 258.288 2955.4 257.068C2953.33 255.849 2951.71 254.181 2950.53 252.066C2949.36 249.95 2948.77 247.617 2948.77 245.066C2948.77 242.514 2949.36 240.2 2950.53 238.122C2951.7 236.031 2953.31 234.394 2955.36 233.212C2957.43 232.018 2959.72 231.42 2962.23 231.42C2964.87 231.42 2967.23 232.036 2969.31 233.268C2971.4 234.5 2972.8 236.099 2973.51 238.066L2969.53 240.026C2968.93 238.731 2967.98 237.698 2966.67 236.927C2965.38 236.155 2963.9 235.77 2962.23 235.77C2959.65 235.77 2957.54 236.641 2955.88 238.383C2954.23 240.113 2953.4 242.34 2953.4 245.066C2953.4 247.828 2954.23 250.106 2955.9 251.898C2957.58 253.69 2959.7 254.586 2962.27 254.586C2964.96 254.586 2967.15 253.858 2968.84 252.402V247.623H2962.45ZM3003.53 255.911C3001.57 257.902 2999.08 258.898 2996.07 258.898C2993.05 258.898 2990.56 257.902 2988.58 255.911C2986.61 253.907 2985.63 251.387 2985.63 248.351V231.794H2990.11V248.351C2990.11 250.13 2990.68 251.618 2991.81 252.812C2992.95 253.994 2994.37 254.586 2996.07 254.586C2997.77 254.586 2999.19 253.988 3000.32 252.794C3001.47 251.599 3002.04 250.118 3002.04 248.351V231.794H3006.5V248.351C3006.5 251.387 3005.51 253.907 3003.53 255.911ZM3035.59 258.562L3033.52 253.204H3022.21L3020.1 258.562H3015.36L3026.04 231.794H3029.79L3040.45 258.562H3035.59ZM3023.85 248.93H3031.84L3027.87 238.682L3023.85 248.93ZM3063.64 247.623V243.348H3074.51V253.895C3073.29 255.475 3071.73 256.707 3069.82 257.591C3067.92 258.462 3065.8 258.898 3063.46 258.898C3060.94 258.898 3058.65 258.288 3056.59 257.068C3054.52 255.849 3052.9 254.181 3051.71 252.066C3050.54 249.95 3049.96 247.617 3049.96 245.066C3049.96 242.514 3050.54 240.2 3051.71 238.122C3052.88 236.031 3054.5 234.394 3056.55 233.212C3058.62 232.018 3060.9 231.42 3063.42 231.42C3066.06 231.42 3068.42 232.036 3070.49 233.268C3072.58 234.5 3073.98 236.099 3074.69 238.066L3070.72 240.026C3070.12 238.731 3069.17 237.698 3067.86 236.927C3066.57 236.155 3065.09 235.77 3063.42 235.77C3060.84 235.77 3058.73 236.641 3057.07 238.383C3055.42 240.113 3054.59 242.34 3054.59 245.066C3054.59 247.828 3055.42 250.106 3057.09 251.898C3058.77 253.69 3060.89 254.586 3063.46 254.586C3066.14 254.586 3068.33 253.858 3070.03 252.402V247.623H3063.64ZM3086.82 231.794H3102.61V236.087H3091.3V242.396H3101.38V246.671H3091.3V254.287H3102.61V258.562H3086.82V231.794ZM3123.16 231.42C3124.86 231.42 3126.57 231.787 3128.29 232.522C3130.01 233.243 3131.33 234.152 3132.25 235.247L3129.65 238.719C3128.76 237.798 3127.69 237.07 3126.46 236.535C3125.24 236 3124.03 235.732 3122.82 235.732C3121.59 235.732 3120.58 236.012 3119.8 236.572C3119.02 237.132 3118.64 237.86 3118.64 238.756C3118.64 239.366 3118.8 239.901 3119.12 240.362C3119.45 240.81 3119.88 241.183 3120.43 241.482C3120.99 241.768 3121.63 242.029 3122.33 242.266C3123.04 242.502 3123.79 242.732 3124.57 242.956C3125.37 243.18 3126.16 243.423 3126.95 243.684C3127.74 243.946 3128.49 244.275 3129.2 244.674C3129.91 245.072 3130.54 245.532 3131.09 246.055C3131.65 246.578 3132.09 247.25 3132.41 248.071C3132.74 248.88 3132.9 249.801 3132.9 250.834C3132.9 251.904 3132.68 252.93 3132.23 253.914C3131.79 254.884 3131.17 255.743 3130.36 256.49C3129.56 257.236 3128.56 257.834 3127.34 258.282C3126.12 258.717 3124.79 258.935 3123.34 258.935C3121.35 258.935 3119.39 258.506 3117.44 257.647C3115.51 256.788 3113.95 255.693 3112.76 254.362L3115.63 251.076C3116.8 252.196 3118 253.067 3119.22 253.69C3120.45 254.312 3121.82 254.623 3123.34 254.623C3124.82 254.623 3126.02 254.281 3126.93 253.596C3127.85 252.899 3128.31 251.991 3128.31 250.871C3128.31 250.286 3128.15 249.776 3127.82 249.34C3127.5 248.905 3127.06 248.55 3126.52 248.276C3125.97 248.002 3125.34 247.754 3124.63 247.53C3123.92 247.306 3123.17 247.094 3122.39 246.895C3121.61 246.683 3120.82 246.453 3120.04 246.204C3119.27 245.955 3118.53 245.638 3117.82 245.252C3117.11 244.866 3116.48 244.412 3115.93 243.89C3115.38 243.367 3114.95 242.701 3114.63 241.892C3114.3 241.083 3114.14 240.156 3114.14 239.111C3114.14 236.921 3114.99 235.091 3116.68 233.623C3118.37 232.154 3120.53 231.42 3123.16 231.42ZM3184.27 258.562H3178.54L3175.63 255.463C3174.37 256.62 3173.12 257.491 3171.88 258.076C3170.65 258.649 3169.27 258.935 3167.75 258.935C3165.43 258.935 3163.46 258.219 3161.86 256.788C3160.26 255.345 3159.47 253.553 3159.47 251.412C3159.47 250.429 3159.6 249.539 3159.88 248.743C3160.16 247.946 3160.57 247.256 3161.11 246.671C3161.66 246.086 3162.22 245.594 3162.79 245.196C3163.37 244.786 3164.06 244.387 3164.86 244.002C3164.11 243.118 3163.52 242.228 3163.09 241.332C3162.66 240.436 3162.45 239.441 3162.45 238.346C3162.45 236.392 3163.15 234.749 3164.54 233.418C3165.94 232.086 3167.66 231.42 3169.71 231.42C3171.71 231.42 3173.37 232.086 3174.72 233.418C3176.07 234.749 3176.75 236.392 3176.75 238.346C3176.75 239.242 3176.62 240.05 3176.36 240.772C3176.1 241.494 3175.72 242.129 3175.22 242.676C3174.72 243.211 3174.2 243.672 3173.65 244.058C3173.12 244.431 3172.48 244.804 3171.73 245.178L3175.71 249.434L3179.85 245.327L3182.93 248.127L3178.62 252.514L3184.27 258.562ZM3166.58 238.271C3166.58 238.868 3166.78 239.472 3167.18 240.082C3167.59 240.679 3168.19 241.401 3168.99 242.247C3170.17 241.699 3171.07 241.127 3171.69 240.53C3172.33 239.92 3172.64 239.167 3172.64 238.271C3172.64 237.45 3172.36 236.753 3171.79 236.18C3171.23 235.608 3170.54 235.322 3169.71 235.322C3168.82 235.322 3168.07 235.608 3167.47 236.18C3166.88 236.753 3166.58 237.45 3166.58 238.271ZM3168.15 254.586C3169.61 254.586 3171.15 253.845 3172.74 252.364L3167.68 246.97C3166.52 247.53 3165.63 248.127 3165.01 248.762C3164.4 249.396 3164.1 250.18 3164.1 251.114C3164.1 252.134 3164.47 252.968 3165.23 253.615C3165.99 254.262 3166.96 254.586 3168.15 254.586ZM3211.29 231.794H3227.08V236.087H3215.77V242.994H3225.85V247.287H3215.77V258.562H3211.29V231.794ZM3258.88 258.562H3253.45L3246.8 247.828H3242.86V258.562H3238.38V231.794H3248.45C3250.7 231.794 3252.63 232.565 3254.23 234.108C3255.85 235.639 3256.66 237.518 3256.66 239.746C3256.66 241.587 3256.21 243.18 3255.3 244.524C3254.4 245.856 3253.16 246.789 3251.58 247.324L3258.88 258.562ZM3242.86 236.124V243.535H3248.3C3249.4 243.535 3250.32 243.18 3251.04 242.471C3251.78 241.749 3252.14 240.841 3252.14 239.746C3252.14 238.688 3251.78 237.823 3251.04 237.151C3250.32 236.466 3249.4 236.124 3248.3 236.124H3242.86ZM3287.97 258.562L3285.9 253.204H3274.59L3272.48 258.562H3267.74L3278.42 231.794H3282.17L3292.83 258.562H3287.97ZM3276.23 248.93H3284.22L3280.25 238.682L3276.23 248.93ZM3303.26 258.562V231.794H3308.65L3317.55 251.991L3326.74 231.794H3331.31V258.562H3326.85V240.586L3318.86 258.562H3315.58L3307.74 240.586V258.562H3303.26ZM3343.87 231.794H3359.66V236.087H3348.35V242.396H3358.43V246.671H3348.35V254.287H3359.66V258.562H3343.87V231.794ZM3402.72 231.756H3407.38L3398.48 258.562H3394.8L3388.49 239.186L3382.2 258.562H3378.49L3369.51 231.756H3374.29L3380.39 251.188L3386.7 231.756H3390.41L3396.61 251.188L3402.72 231.756ZM3422.05 233.212C3424.12 232.018 3426.43 231.42 3428.97 231.42C3431.51 231.42 3433.81 232.018 3435.88 233.212C3437.96 234.407 3439.59 236.056 3440.77 238.159C3441.95 240.25 3442.54 242.577 3442.54 245.14C3442.54 247.716 3441.95 250.062 3440.77 252.178C3439.59 254.281 3437.96 255.936 3435.88 257.143C3433.81 258.338 3431.51 258.935 3428.97 258.935C3426.43 258.935 3424.12 258.338 3422.05 257.143C3419.97 255.936 3418.33 254.281 3417.14 252.178C3415.95 250.062 3415.36 247.716 3415.36 245.14C3415.36 242.577 3415.95 240.25 3417.14 238.159C3418.33 236.056 3419.97 234.407 3422.05 233.212ZM3428.97 235.77C3426.42 235.77 3424.29 236.666 3422.57 238.458C3420.85 240.25 3419.99 242.477 3419.99 245.14C3419.99 247.816 3420.85 250.062 3422.57 251.879C3424.29 253.683 3426.42 254.586 3428.97 254.586C3431.51 254.586 3433.64 253.683 3435.36 251.879C3437.09 250.062 3437.95 247.816 3437.95 245.14C3437.95 242.477 3437.09 240.25 3435.36 238.458C3433.64 236.666 3431.51 235.77 3428.97 235.77ZM3474.66 258.562H3469.23L3462.58 247.828H3458.64V258.562H3454.16V231.794H3464.23C3466.48 231.794 3468.41 232.565 3470.01 234.108C3471.63 235.639 3472.44 237.518 3472.44 239.746C3472.44 241.587 3471.98 243.18 3471.08 244.524C3470.18 245.856 3468.94 246.789 3467.36 247.324L3474.66 258.562ZM3458.64 236.124V243.535H3464.08C3465.18 243.535 3466.1 243.18 3466.82 242.471C3467.55 241.749 3467.92 240.841 3467.92 239.746C3467.92 238.688 3467.55 237.823 3466.82 237.151C3466.1 236.466 3465.18 236.124 3464.08 236.124H3458.64ZM3506.89 258.562H3501.01L3489.66 245.495V258.562H3485.18V231.794H3489.66V243.46L3500.17 231.794H3505.86L3494.33 244.45L3506.89 258.562ZM3524.73 231.42C3526.43 231.42 3528.14 231.787 3529.86 232.522C3531.58 233.243 3532.9 234.152 3533.82 235.247L3531.22 238.719C3530.33 237.798 3529.26 237.07 3528.03 236.535C3526.81 236 3525.6 235.732 3524.39 235.732C3523.16 235.732 3522.15 236.012 3521.37 236.572C3520.6 237.132 3520.21 237.86 3520.21 238.756C3520.21 239.366 3520.37 239.901 3520.7 240.362C3521.02 240.81 3521.46 241.183 3522 241.482C3522.56 241.768 3523.2 242.029 3523.91 242.266C3524.62 242.502 3525.36 242.732 3526.15 242.956C3526.94 243.18 3527.73 243.423 3528.52 243.684C3529.31 243.946 3530.07 244.275 3530.78 244.674C3531.49 245.072 3532.11 245.532 3532.66 246.055C3533.22 246.578 3533.66 247.25 3533.99 248.071C3534.31 248.88 3534.47 249.801 3534.47 250.834C3534.47 251.904 3534.25 252.93 3533.8 253.914C3533.36 254.884 3532.74 255.743 3531.93 256.49C3531.14 257.236 3530.13 257.834 3528.91 258.282C3527.69 258.717 3526.36 258.935 3524.91 258.935C3522.92 258.935 3520.96 258.506 3519.02 257.647C3517.09 256.788 3515.53 255.693 3514.33 254.362L3517.21 251.076C3518.38 252.196 3519.57 253.067 3520.79 253.69C3522.02 254.312 3523.4 254.623 3524.91 254.623C3526.4 254.623 3527.59 254.281 3528.5 253.596C3529.42 252.899 3529.88 251.991 3529.88 250.871C3529.88 250.286 3529.72 249.776 3529.39 249.34C3529.07 248.905 3528.64 248.55 3528.09 248.276C3527.54 248.002 3526.91 247.754 3526.2 247.53C3525.49 247.306 3524.75 247.094 3523.96 246.895C3523.18 246.683 3522.39 246.453 3521.61 246.204C3520.84 245.955 3520.1 245.638 3519.39 245.252C3518.68 244.866 3518.05 244.412 3517.5 243.89C3516.96 243.367 3516.52 242.701 3516.2 241.892C3515.87 241.083 3515.71 240.156 3515.71 239.111C3515.71 236.921 3516.56 235.091 3518.25 233.623C3519.94 232.154 3522.1 231.42 3524.73 231.42Z" fill="#333333"/>
<rect x="409.6" y="409.901" width="524.227" height="87.3813" rx="43.6907" fill="#222222"/>
<path d="M466.796 439.324H471.276V466.092H466.796V439.324ZM483.812 439.324H487.714L500.37 457.449V439.324H504.887V466.092H501.023L488.292 447.966V466.092H483.812V439.324ZM517.405 439.324H533.197V443.617H521.885V450.524H531.965V454.817H521.885V466.092H517.405V439.324ZM564.997 466.092H559.565L552.92 455.358H548.981V466.092H544.501V439.324H554.563C556.815 439.324 558.744 440.095 560.349 441.638C561.967 443.169 562.776 445.048 562.776 447.276C562.776 449.118 562.322 450.71 561.413 452.054C560.517 453.386 559.279 454.319 557.699 454.854L564.997 466.092ZM548.981 443.654V451.065H554.413C555.521 451.065 556.436 450.71 557.157 450.001C557.892 449.279 558.259 448.371 558.259 447.276C558.259 446.218 557.892 445.353 557.157 444.681C556.436 443.997 555.521 443.654 554.413 443.654H548.981ZM594.091 466.092L592.019 460.734H580.707L578.598 466.092H573.857L584.534 439.324H588.286L598.945 466.092H594.091ZM582.35 456.46H590.339L586.363 446.212L582.35 456.46ZM618.089 438.95C619.794 438.95 621.505 439.318 623.222 440.052C624.94 440.774 626.259 441.682 627.18 442.777L624.585 446.249C623.689 445.328 622.625 444.6 621.393 444.065C620.174 443.53 618.96 443.262 617.753 443.262C616.521 443.262 615.513 443.542 614.729 444.102C613.958 444.662 613.572 445.39 613.572 446.286C613.572 446.896 613.734 447.431 614.057 447.892C614.381 448.34 614.816 448.713 615.364 449.012C615.924 449.298 616.558 449.559 617.268 449.796C617.977 450.032 618.724 450.262 619.508 450.486C620.304 450.71 621.094 450.953 621.878 451.214C622.675 451.476 623.428 451.806 624.137 452.204C624.846 452.602 625.475 453.062 626.022 453.585C626.582 454.108 627.024 454.78 627.348 455.601C627.671 456.41 627.833 457.331 627.833 458.364C627.833 459.434 627.609 460.461 627.161 461.444C626.726 462.414 626.103 463.273 625.294 464.02C624.498 464.766 623.49 465.364 622.27 465.812C621.051 466.247 619.719 466.465 618.276 466.465C616.285 466.465 614.318 466.036 612.377 465.177C610.448 464.318 608.886 463.223 607.692 461.892L610.566 458.606C611.736 459.726 612.931 460.598 614.15 461.22C615.382 461.842 616.758 462.153 618.276 462.153C619.757 462.153 620.951 461.811 621.86 461.126C622.781 460.43 623.241 459.521 623.241 458.401C623.241 457.816 623.079 457.306 622.756 456.87C622.432 456.435 621.997 456.08 621.449 455.806C620.902 455.533 620.273 455.284 619.564 455.06C618.854 454.836 618.108 454.624 617.324 454.425C616.54 454.214 615.756 453.983 614.972 453.734C614.2 453.486 613.46 453.168 612.75 452.782C612.041 452.397 611.413 451.942 610.865 451.42C610.318 450.897 609.882 450.231 609.558 449.422C609.235 448.614 609.073 447.686 609.073 446.641C609.073 444.451 609.919 442.622 611.612 441.153C613.304 439.685 615.463 438.95 618.089 438.95ZM657.748 439.324V443.617H649.535V466.092H645.074V443.617H636.842V439.324H657.748ZM689.288 466.092H683.856L677.21 455.358H673.272V466.092H668.792V439.324H678.853C681.105 439.324 683.034 440.095 684.64 441.638C686.257 443.169 687.066 445.048 687.066 447.276C687.066 449.118 686.612 450.71 685.704 452.054C684.808 453.386 683.569 454.319 681.989 454.854L689.288 466.092ZM673.272 443.654V451.065H678.704C679.811 451.065 680.726 450.71 681.448 450.001C682.182 449.279 682.549 448.371 682.549 447.276C682.549 446.218 682.182 445.353 681.448 444.681C680.726 443.997 679.811 443.654 678.704 443.654H673.272ZM716.701 463.441C714.735 465.432 712.246 466.428 709.235 466.428C706.223 466.428 703.728 465.432 701.749 463.441C699.783 461.438 698.8 458.918 698.8 455.881V439.324H703.28V455.881C703.28 457.661 703.846 459.148 704.979 460.342C706.124 461.525 707.542 462.116 709.235 462.116C710.94 462.116 712.358 461.518 713.491 460.324C714.636 459.129 715.208 457.648 715.208 455.881V439.324H719.669V455.881C719.669 458.918 718.68 461.438 716.701 463.441ZM756.323 459.241C755.626 461.382 754.208 463.124 752.067 464.468C749.927 465.799 747.488 466.465 744.75 466.465C742.846 466.465 741.06 466.11 739.393 465.401C737.725 464.692 736.3 463.727 735.118 462.508C733.936 461.276 733.002 459.814 732.318 458.121C731.633 456.416 731.291 454.599 731.291 452.67C731.291 450.754 731.633 448.95 732.318 447.257C733.002 445.565 733.936 444.109 735.118 442.889C736.3 441.67 737.725 440.711 739.393 440.014C741.06 439.305 742.846 438.95 744.75 438.95C747.388 438.95 749.746 439.566 751.825 440.798C753.915 442.03 755.328 443.63 756.062 445.596L752.049 447.556C751.476 446.262 750.53 445.229 749.211 444.457C747.905 443.686 746.417 443.3 744.75 443.3C742.161 443.3 740.04 444.183 738.385 445.95C736.742 447.718 735.921 449.958 735.921 452.67C735.921 455.383 736.742 457.636 738.385 459.428C740.04 461.22 742.161 462.116 744.75 462.116C746.542 462.116 748.116 461.693 749.473 460.846C750.829 460 751.762 458.855 752.273 457.412L756.323 459.241ZM786.22 439.324V443.617H778.006V466.092H773.545V443.617H765.313V439.324H786.22ZM815.164 463.441C813.198 465.432 810.709 466.428 807.698 466.428C804.686 466.428 802.191 465.432 800.212 463.441C798.246 461.438 797.263 458.918 797.263 455.881V439.324H801.743V455.881C801.743 457.661 802.309 459.148 803.442 460.342C804.587 461.525 806.005 462.116 807.698 462.116C809.403 462.116 810.821 461.518 811.954 460.324C813.099 459.129 813.671 457.648 813.671 455.881V439.324H818.132V455.881C818.132 458.918 817.143 461.438 815.164 463.441ZM851.165 466.092H845.733L839.088 455.358H835.149V466.092H830.669V439.324H840.73C842.983 439.324 844.912 440.095 846.517 441.638C848.135 443.169 848.944 445.048 848.944 447.276C848.944 449.118 848.489 450.71 847.581 452.054C846.685 453.386 845.447 454.319 843.866 454.854L851.165 466.092ZM835.149 443.654V451.065H840.581C841.688 451.065 842.603 450.71 843.325 450.001C844.059 449.279 844.426 448.371 844.426 447.276C844.426 446.218 844.059 445.353 843.325 444.681C842.603 443.997 841.688 443.654 840.581 443.654H835.149ZM861.685 439.324H877.477V443.617H866.165V449.926H876.245V454.201H866.165V461.817H877.477V466.092H861.685V439.324Z" fill="#595959"/>
<path d="M2097.99 48.9996C2100.34 48.9996 2102.3 49.7587 2103.87 51.2769C2105.44 52.7827 2106.22 54.6742 2106.22 56.9516C2106.22 59.2289 2105.44 61.1329 2103.87 62.6636C2102.3 64.1818 2100.34 64.9409 2097.99 64.9409H2091.42V75.7676H2087.71V48.9996H2097.99ZM2097.99 61.4316C2099.27 61.4316 2100.35 61.0022 2101.22 60.1436C2102.1 59.2725 2102.55 58.2085 2102.55 56.9516C2102.55 55.6947 2102.1 54.6431 2101.22 53.7969C2100.35 52.9507 2099.27 52.5276 2097.99 52.5276H2091.42V61.4316H2097.99ZM2119.59 56.7276C2121.9 56.7276 2123.76 57.4929 2125.15 59.0236C2126.55 60.5418 2127.24 62.5702 2127.24 65.1089V75.7676H2123.71V65.5942C2123.71 63.964 2123.26 62.6574 2122.35 61.6742C2121.46 60.6911 2120.27 60.1996 2118.79 60.1996C2117.7 60.1996 2116.7 60.4671 2115.76 61.0022C2114.83 61.5249 2114.08 62.2405 2113.52 63.1489V75.7676H2109.96V48.9996H2113.52V59.7889C2114.14 58.868 2115 58.1276 2116.08 57.5676C2117.18 57.0076 2118.34 56.7276 2119.59 56.7276ZM2146.47 57.1196H2150.03V75.7676H2146.47V73.0609C2145.95 73.9445 2145.1 74.6787 2143.93 75.2636C2142.76 75.8485 2141.53 76.1409 2140.23 76.1409C2138.54 76.1409 2137 75.7178 2135.61 74.8716C2134.21 74.0129 2133.12 72.8431 2132.32 71.3622C2131.54 69.8689 2131.14 68.2262 2131.14 66.4342C2131.14 64.6422 2131.54 63.0058 2132.32 61.5249C2133.12 60.0316 2134.21 58.8618 2135.61 58.0156C2137 57.1569 2138.54 56.7276 2140.23 56.7276C2141.54 56.7276 2142.78 57.0262 2143.95 57.6236C2145.13 58.2085 2145.97 58.9427 2146.47 59.8262V57.1196ZM2140.93 72.8182C2142.07 72.8182 2143.15 72.532 2144.17 71.9596C2145.21 71.3747 2145.97 70.628 2146.47 69.7196V63.1862C2145.97 62.2654 2145.21 61.5125 2144.17 60.9276C2143.15 60.3427 2142.07 60.0502 2140.93 60.0502C2139.12 60.0502 2137.61 60.66 2136.39 61.8796C2135.18 63.0867 2134.58 64.6049 2134.58 66.4342C2134.58 68.2511 2135.18 69.7694 2136.39 70.9889C2137.61 72.2085 2139.12 72.8182 2140.93 72.8182ZM2161.4 76.1409C2159.95 76.1409 2158.51 75.8982 2157.09 75.4129C2155.68 74.9276 2154.53 74.2805 2153.64 73.4716L2155.09 70.8396C2155.82 71.5365 2156.77 72.1089 2157.95 72.5569C2159.13 72.9925 2160.27 73.2102 2161.37 73.2102C2162.44 73.2102 2163.31 72.9738 2163.98 72.5009C2164.66 72.0156 2165.01 71.412 2165.01 70.6902C2165.01 70.1302 2164.81 69.6636 2164.41 69.2902C2164.01 68.9169 2163.49 68.6307 2162.86 68.4316C2162.22 68.22 2161.52 68.0334 2160.75 67.8716C2159.99 67.6974 2159.22 67.492 2158.45 67.2556C2157.69 67.0067 2157 66.708 2156.36 66.3596C2155.73 65.9987 2155.21 65.4885 2154.81 64.8289C2154.42 64.1569 2154.22 63.3542 2154.22 62.4209C2154.22 60.7285 2154.87 59.3596 2156.18 58.3142C2157.48 57.2565 2159.19 56.7276 2161.29 56.7276C2162.6 56.7276 2163.85 56.9329 2165.06 57.3436C2166.28 57.7542 2167.28 58.3391 2168.07 59.0982L2166.54 61.7676C2165.89 61.1329 2165.02 60.6351 2163.94 60.2742C2162.86 59.9009 2161.86 59.7142 2160.95 59.7142C2159.98 59.7142 2159.21 59.9382 2158.62 60.3862C2158.04 60.8218 2157.74 61.4005 2157.74 62.1222C2157.74 62.6325 2157.94 63.0618 2158.34 63.4102C2158.74 63.7462 2159.26 64.02 2159.89 64.2316C2160.53 64.4307 2161.22 64.6236 2161.98 64.8102C2162.75 64.9845 2163.52 65.2085 2164.3 65.4822C2165.07 65.7436 2165.77 66.0671 2166.41 66.4529C2167.04 66.8387 2167.56 67.38 2167.95 68.0769C2168.35 68.7738 2168.55 69.6014 2168.55 70.5596C2168.55 72.1774 2167.89 73.5151 2166.55 74.5729C2165.22 75.6182 2163.51 76.1409 2161.4 76.1409ZM2189.74 65.6316C2189.74 65.98 2189.71 66.4654 2189.66 67.0876H2174.75C2174.91 68.8796 2175.56 70.3107 2176.69 71.3809C2177.84 72.4387 2179.27 72.9676 2180.98 72.9676C2182.17 72.9676 2183.25 72.7187 2184.23 72.2209C2185.22 71.7231 2185.94 71.0574 2186.42 70.2236L2189.23 72.0529C2188.53 73.3222 2187.43 74.324 2185.95 75.0582C2184.47 75.78 2182.78 76.1409 2180.87 76.1409C2179.57 76.1409 2178.32 75.892 2177.14 75.3942C2175.96 74.8965 2174.94 74.2182 2174.08 73.3596C2173.23 72.4885 2172.56 71.4494 2172.06 70.2422C2171.56 69.0227 2171.31 67.7285 2171.31 66.3596C2171.31 64.5925 2171.73 62.9747 2172.57 61.5062C2173.4 60.0254 2174.54 58.8618 2176 58.0156C2177.47 57.1569 2179.08 56.7276 2180.83 56.7276C2183.34 56.7276 2185.45 57.5862 2187.16 59.3036C2188.88 61.0209 2189.74 63.1302 2189.74 65.6316ZM2174.9 64.4182H2186.1C2185.99 63.0245 2185.43 61.8858 2184.42 61.0022C2183.41 60.1187 2182.17 59.6769 2180.69 59.6769C2179.22 59.6769 2177.97 60.1062 2176.93 60.9649C2175.9 61.8236 2175.22 62.9747 2174.9 64.4182ZM2207.51 48.9996H2211.07V75.7676H2207.51V73.0609C2206.99 73.9445 2206.14 74.6787 2204.97 75.2636C2203.8 75.8485 2202.57 76.1409 2201.27 76.1409C2199.58 76.1409 2198.04 75.7178 2196.65 74.8716C2195.25 74.0129 2194.16 72.8431 2193.36 71.3622C2192.58 69.8689 2192.18 68.2262 2192.18 66.4342C2192.18 64.6422 2192.58 63.0058 2193.36 61.5249C2194.16 60.0316 2195.25 58.8618 2196.65 58.0156C2198.04 57.1569 2199.58 56.7276 2201.27 56.7276C2202.58 56.7276 2203.82 57.0262 2204.99 57.6236C2206.17 58.2085 2207.01 58.9427 2207.51 59.8262V48.9996ZM2201.97 72.8182C2203.11 72.8182 2204.19 72.532 2205.21 71.9596C2206.25 71.3747 2207.01 70.628 2207.51 69.7196V63.1862C2207.01 62.2654 2206.25 61.5125 2205.21 60.9276C2204.19 60.3427 2203.11 60.0502 2201.97 60.0502C2200.16 60.0502 2198.65 60.66 2197.43 61.8796C2196.22 63.0867 2195.62 64.6049 2195.62 66.4342C2195.62 68.2511 2196.22 69.7694 2197.43 70.9889C2198.65 72.2085 2200.16 72.8182 2201.97 72.8182ZM2233.4 56.7276C2235.18 56.7276 2236.8 57.1569 2238.27 58.0156C2239.74 58.8618 2240.9 60.0316 2241.74 61.5249C2242.6 63.0182 2243.03 64.6671 2243.03 66.4716C2243.03 69.1969 2242.1 71.4929 2240.23 73.3596C2238.38 75.2138 2236.1 76.1409 2233.4 76.1409C2231.62 76.1409 2229.99 75.7178 2228.51 74.8716C2227.04 74.0254 2225.88 72.8618 2225.04 71.3809C2224.19 69.9 2223.77 68.2636 2223.77 66.4716C2223.77 63.7214 2224.7 61.4129 2226.55 59.5462C2228.4 57.6671 2230.69 56.7276 2233.4 56.7276ZM2233.4 60.0876C2231.65 60.0876 2230.17 60.6974 2228.98 61.9169C2227.79 63.1365 2227.2 64.6547 2227.2 66.4716C2227.2 68.2511 2227.79 69.7507 2228.98 70.9702C2230.17 72.1774 2231.65 72.7809 2233.4 72.7809C2235.14 72.7809 2236.61 72.1711 2237.81 70.9516C2239 69.732 2239.6 68.2387 2239.6 66.4716C2239.6 64.6547 2239 63.1365 2237.81 61.9169C2236.61 60.6974 2235.14 60.0876 2233.4 60.0876ZM2260.69 57.1196H2264.22V75.7676H2260.69V73.0609C2260.12 73.9942 2259.28 74.7409 2258.17 75.3009C2257.06 75.8609 2255.87 76.1409 2254.59 76.1409C2252.27 76.1409 2250.42 75.3818 2249.02 73.8636C2247.63 72.3454 2246.93 70.3294 2246.93 67.8156V57.1196H2250.5V67.2742C2250.5 68.9169 2250.94 70.2298 2251.82 71.2129C2252.72 72.1836 2253.91 72.6689 2255.39 72.6689C2256.48 72.6689 2257.51 72.4014 2258.47 71.8662C2259.44 71.3187 2260.18 70.5907 2260.69 69.6822V57.1196ZM2279.39 72.5196L2279.58 75.6182C2278.98 75.8671 2278.31 75.9916 2277.57 75.9916C2275.55 75.9916 2273.92 75.3818 2272.67 74.1622C2271.44 72.9302 2270.83 71.2254 2270.83 69.0476V60.4796H2267.21V57.1196H2270.83V52.0609H2274.35V57.1196H2279.39V60.4796H2274.35V68.8796C2274.35 70.0618 2274.7 70.9951 2275.38 71.6796C2276.07 72.364 2276.94 72.7062 2278.01 72.7062C2278.52 72.7062 2278.98 72.644 2279.39 72.5196Z" fill="white"/>
<path d="M2103.33 510.482C2105.68 510.482 2107.64 511.241 2109.21 512.759C2110.78 514.265 2111.56 516.157 2111.56 518.434C2111.56 520.711 2110.78 522.615 2109.21 524.146C2107.64 525.664 2105.68 526.423 2103.33 526.423H2096.76V537.25H2093.04V510.482H2103.33ZM2103.33 522.914C2104.61 522.914 2105.69 522.485 2106.56 521.626C2107.44 520.755 2107.88 519.691 2107.88 518.434C2107.88 517.177 2107.44 516.126 2106.56 515.279C2105.69 514.433 2104.61 514.01 2103.33 514.01H2096.76V522.914H2103.33ZM2123.41 518.21C2124.06 518.21 2124.74 518.31 2125.47 518.509L2125.28 521.85C2124.63 521.614 2123.93 521.495 2123.17 521.495C2122.36 521.495 2121.52 521.8 2120.63 522.41C2119.76 523.007 2119.06 523.81 2118.52 524.818V537.25H2114.96V518.602H2118.52V521.309C2119.03 520.388 2119.75 519.641 2120.67 519.069C2121.59 518.496 2122.5 518.21 2123.41 518.21ZM2135.92 518.21C2137.7 518.21 2139.32 518.639 2140.79 519.498C2142.26 520.344 2143.42 521.514 2144.26 523.007C2145.12 524.501 2145.55 526.15 2145.55 527.954C2145.55 530.679 2144.62 532.975 2142.75 534.842C2140.9 536.696 2138.62 537.623 2135.92 537.623C2134.14 537.623 2132.51 537.2 2131.03 536.354C2129.56 535.508 2128.4 534.344 2127.56 532.863C2126.71 531.382 2126.29 529.746 2126.29 527.954C2126.29 525.204 2127.21 522.895 2129.07 521.029C2130.92 519.15 2133.21 518.21 2135.92 518.21ZM2135.92 521.57C2134.17 521.57 2132.69 522.18 2131.5 523.399C2130.31 524.619 2129.72 526.137 2129.72 527.954C2129.72 529.734 2130.31 531.233 2131.5 532.453C2132.69 533.66 2134.17 534.263 2135.92 534.263C2137.66 534.263 2139.13 533.654 2140.33 532.434C2141.52 531.214 2142.12 529.721 2142.12 527.954C2142.12 526.137 2141.52 524.619 2140.33 523.399C2139.13 522.18 2137.66 521.57 2135.92 521.57ZM2171.13 518.21C2173.41 518.21 2175.26 518.913 2176.65 520.319C2178.04 521.726 2178.74 523.611 2178.74 525.975V537.25H2175.21V526.591C2175.21 525.023 2174.8 523.785 2173.96 522.877C2173.13 521.956 2172 521.495 2170.57 521.495C2169.62 521.495 2168.69 521.782 2167.78 522.354C2166.89 522.914 2166.19 523.611 2165.69 524.445C2165.77 524.756 2165.82 525.123 2165.86 525.546V537.25H2162.33V526.591C2162.33 525.036 2161.91 523.798 2161.06 522.877C2160.23 521.956 2159.12 521.495 2157.74 521.495C2156.71 521.495 2155.77 521.763 2154.94 522.298C2154.11 522.821 2153.47 523.524 2153.02 524.407V537.25H2149.45V518.602H2153.02V521.234C2153.58 520.413 2154.34 519.703 2155.31 519.106C2156.3 518.509 2157.48 518.21 2158.86 518.21C2161.64 518.21 2163.61 519.318 2164.78 521.533C2165.49 520.587 2166.39 519.797 2167.49 519.162C2168.59 518.527 2169.81 518.21 2171.13 518.21ZM2185.44 510.221C2186.08 510.221 2186.63 510.457 2187.1 510.93C2187.58 511.403 2187.81 511.957 2187.81 512.591C2187.81 513.238 2187.58 513.798 2187.1 514.271C2186.63 514.732 2186.08 514.962 2185.44 514.962C2184.78 514.962 2184.22 514.732 2183.76 514.271C2183.3 513.811 2183.07 513.251 2183.07 512.591C2183.07 511.957 2183.3 511.403 2183.76 510.93C2184.24 510.457 2184.8 510.221 2185.44 510.221ZM2183.65 518.602H2187.22V537.25H2183.65V518.602ZM2198.58 537.623C2197.13 537.623 2195.69 537.381 2194.27 536.895C2192.87 536.41 2191.71 535.763 2190.82 534.954L2192.27 532.322C2193 533.019 2193.95 533.591 2195.13 534.039C2196.31 534.475 2197.45 534.693 2198.55 534.693C2199.62 534.693 2200.49 534.456 2201.16 533.983C2201.84 533.498 2202.19 532.894 2202.19 532.173C2202.19 531.613 2201.99 531.146 2201.59 530.773C2201.19 530.399 2200.67 530.113 2200.04 529.914C2199.41 529.702 2198.7 529.516 2197.93 529.354C2197.17 529.18 2196.41 528.974 2195.63 528.738C2194.88 528.489 2194.18 528.19 2193.54 527.842C2192.91 527.481 2192.39 526.971 2191.99 526.311C2191.6 525.639 2191.4 524.837 2191.4 523.903C2191.4 522.211 2192.05 520.842 2193.36 519.797C2194.66 518.739 2196.37 518.21 2198.47 518.21C2199.78 518.21 2201.04 518.415 2202.24 518.826C2203.46 519.237 2204.46 519.822 2205.25 520.581L2203.72 523.25C2203.07 522.615 2202.21 522.118 2201.12 521.757C2200.04 521.383 2199.04 521.197 2198.14 521.197C2197.17 521.197 2196.39 521.421 2195.8 521.869C2195.22 522.304 2194.93 522.883 2194.93 523.605C2194.93 524.115 2195.12 524.544 2195.52 524.893C2195.92 525.229 2196.44 525.502 2197.07 525.714C2197.71 525.913 2198.4 526.106 2199.16 526.293C2199.93 526.467 2200.71 526.691 2201.48 526.965C2202.25 527.226 2202.95 527.55 2203.59 527.935C2204.22 528.321 2204.74 528.862 2205.14 529.559C2205.53 530.256 2205.73 531.084 2205.73 532.042C2205.73 533.66 2205.07 534.998 2203.74 536.055C2202.4 537.101 2200.69 537.623 2198.58 537.623ZM2211.39 510.221C2212.02 510.221 2212.58 510.457 2213.05 510.93C2213.52 511.403 2213.76 511.957 2213.76 512.591C2213.76 513.238 2213.52 513.798 2213.05 514.271C2212.58 514.732 2212.02 514.962 2211.39 514.962C2210.73 514.962 2210.17 514.732 2209.71 514.271C2209.25 513.811 2209.02 513.251 2209.02 512.591C2209.02 511.957 2209.25 511.403 2209.71 510.93C2210.18 510.457 2210.74 510.221 2211.39 510.221ZM2209.6 518.602H2213.16V537.25H2209.6V518.602ZM2227.67 518.21C2229.99 518.21 2231.85 518.975 2233.23 520.506C2234.62 522.024 2235.32 524.053 2235.32 526.591V537.25H2231.79V527.077C2231.79 525.434 2231.34 524.127 2230.45 523.157C2229.55 522.174 2228.36 521.682 2226.86 521.682C2225.78 521.682 2224.76 521.956 2223.8 522.503C2222.84 523.038 2222.11 523.76 2221.6 524.669V537.25H2218.03V518.602H2221.6V521.309C2222.17 520.375 2223.01 519.629 2224.12 519.069C2225.23 518.496 2226.41 518.21 2227.67 518.21ZM2254.58 518.602H2258.15V536.597C2258.15 539.135 2257.3 541.182 2255.59 542.738C2253.89 544.306 2251.7 545.09 2249.04 545.09C2247.36 545.09 2245.75 544.804 2244.21 544.231C2242.66 543.659 2241.5 542.887 2240.71 541.917L2242.51 539.509C2243.22 540.268 2244.14 540.859 2245.27 541.282C2246.41 541.705 2247.65 541.917 2248.97 541.917C2250.58 541.917 2251.92 541.413 2252.98 540.405C2254.05 539.397 2254.58 538.115 2254.58 536.559V534.263C2254.06 535.134 2253.21 535.856 2252.03 536.429C2250.86 537.001 2249.63 537.287 2248.35 537.287C2246.66 537.287 2245.11 536.87 2243.72 536.037C2242.33 535.19 2241.23 534.039 2240.43 532.583C2239.65 531.115 2239.26 529.497 2239.26 527.73C2239.26 526.411 2239.49 525.166 2239.95 523.997C2240.42 522.814 2241.06 521.8 2241.85 520.954C2242.66 520.108 2243.63 519.442 2244.75 518.957C2245.88 518.459 2247.08 518.21 2248.35 518.21C2249.66 518.21 2250.89 518.502 2252.06 519.087C2253.25 519.66 2254.09 520.388 2254.58 521.271V518.602ZM2249.04 534.002C2250.18 534.002 2251.27 533.722 2252.29 533.162C2253.32 532.59 2254.09 531.862 2254.58 530.978V524.557C2254.09 523.661 2253.32 522.926 2252.29 522.354C2251.27 521.782 2250.18 521.495 2249.04 521.495C2247.24 521.495 2245.72 522.086 2244.5 523.269C2243.3 524.451 2242.69 525.938 2242.69 527.73C2242.69 529.522 2243.3 531.015 2244.5 532.21C2245.72 533.405 2247.24 534.002 2249.04 534.002Z" fill="white"/>
<path d="M2114.59 977.425C2116.94 977.425 2118.9 978.184 2120.47 979.703C2122.04 981.208 2122.82 983.1 2122.82 985.377C2122.82 987.655 2122.04 989.559 2120.47 991.089C2118.9 992.608 2116.94 993.367 2114.59 993.367H2108.02V1004.19H2104.31V977.425H2114.59ZM2114.59 989.857C2115.87 989.857 2116.95 989.428 2117.82 988.569C2118.71 987.698 2119.15 986.634 2119.15 985.377C2119.15 984.12 2118.71 983.069 2117.82 982.223C2116.95 981.376 2115.87 980.953 2114.59 980.953H2108.02V989.857H2114.59ZM2134.68 985.153C2135.33 985.153 2136.01 985.253 2136.73 985.452L2136.54 988.793C2135.9 988.557 2135.19 988.439 2134.44 988.439C2133.63 988.439 2132.78 988.744 2131.9 989.353C2131.03 989.951 2130.32 990.753 2129.79 991.761V1004.19H2126.22V985.545H2129.79V988.252C2130.3 987.331 2131.01 986.584 2131.93 986.012C2132.85 985.44 2133.77 985.153 2134.68 985.153ZM2147.18 985.153C2148.96 985.153 2150.59 985.583 2152.06 986.441C2153.53 987.288 2154.68 988.457 2155.53 989.951C2156.39 991.444 2156.82 993.093 2156.82 994.897C2156.82 997.623 2155.88 999.919 2154.02 1001.79C2152.16 1003.64 2149.89 1004.57 2147.18 1004.57C2145.41 1004.57 2143.77 1004.14 2142.29 1003.3C2140.83 1002.45 2139.67 1001.29 2138.82 999.807C2137.98 998.326 2137.55 996.689 2137.55 994.897C2137.55 992.147 2138.48 989.839 2140.33 987.972C2142.19 986.093 2144.47 985.153 2147.18 985.153ZM2147.18 988.513C2145.43 988.513 2143.96 989.123 2142.76 990.343C2141.58 991.562 2140.99 993.08 2140.99 994.897C2140.99 996.677 2141.58 998.176 2142.76 999.396C2143.96 1000.6 2145.43 1001.21 2147.18 1001.21C2148.93 1001.21 2150.4 1000.6 2151.59 999.377C2152.78 998.158 2153.38 996.664 2153.38 994.897C2153.38 993.08 2152.78 991.562 2151.59 990.343C2150.4 989.123 2148.93 988.513 2147.18 988.513ZM2176.64 985.545L2168.76 1004.19H2165.72L2157.84 985.545H2161.67L2167.25 999.601L2172.78 985.545H2176.64ZM2196.11 994.057C2196.11 994.406 2196.09 994.891 2196.04 995.513H2181.12C2181.28 997.305 2181.93 998.736 2183.06 999.807C2184.21 1000.86 2185.64 1001.39 2187.36 1001.39C2188.54 1001.39 2189.62 1001.14 2190.6 1000.65C2191.59 1000.15 2192.31 999.483 2192.79 998.649L2195.61 1000.48C2194.9 1001.75 2193.8 1002.75 2192.32 1003.48C2190.84 1004.21 2189.15 1004.57 2187.24 1004.57C2185.94 1004.57 2184.69 1004.32 2183.51 1003.82C2182.33 1003.32 2181.31 1002.64 2180.45 1001.79C2179.6 1000.91 2178.93 999.875 2178.43 998.668C2177.93 997.448 2177.69 996.154 2177.69 994.785C2177.69 993.018 2178.1 991.4 2178.94 989.932C2179.77 988.451 2180.92 987.288 2182.37 986.441C2183.84 985.583 2185.45 985.153 2187.21 985.153C2189.71 985.153 2191.82 986.012 2193.53 987.729C2195.25 989.447 2196.11 991.556 2196.11 994.057ZM2181.27 992.844H2192.47C2192.36 991.45 2191.8 990.312 2190.79 989.428C2189.78 988.544 2188.54 988.103 2187.06 988.103C2185.59 988.103 2184.34 988.532 2183.3 989.391C2182.27 990.249 2181.59 991.4 2181.27 992.844ZM2209.62 985.153C2211.95 985.153 2213.81 985.919 2215.19 987.449C2216.58 988.968 2217.28 990.996 2217.28 993.535V1004.19H2213.75V994.02C2213.75 992.377 2213.3 991.071 2212.41 990.1C2211.51 989.117 2210.32 988.625 2208.82 988.625C2207.74 988.625 2206.72 988.899 2205.76 989.447C2204.8 989.982 2204.07 990.704 2203.56 991.612V1004.19H2199.99V985.545H2203.56V988.252C2204.13 987.319 2204.97 986.572 2206.08 986.012C2207.19 985.44 2208.37 985.153 2209.62 985.153Z" fill="white"/>
<path d="M2107.86 1444.37H2111.58V1471.14H2107.86V1444.37ZM2126.38 1452.1C2128.71 1452.1 2130.56 1452.86 2131.94 1454.39C2133.34 1455.91 2134.04 1457.94 2134.04 1460.48V1471.14H2130.51V1460.96C2130.51 1459.32 2130.06 1458.02 2129.16 1457.04C2128.27 1456.06 2127.07 1455.57 2125.58 1455.57C2124.5 1455.57 2123.48 1455.84 2122.52 1456.39C2121.56 1456.93 2120.83 1457.65 2120.32 1458.56V1471.14H2116.75V1452.49H2120.32V1455.2C2120.89 1454.26 2121.73 1453.52 2122.84 1452.96C2123.94 1452.38 2125.13 1452.1 2126.38 1452.1ZM2161.53 1452.49H2165.06V1471.14H2161.53V1468.43C2160.96 1469.36 2160.12 1470.11 2159.01 1470.67C2157.9 1471.23 2156.71 1471.51 2155.43 1471.51C2153.11 1471.51 2151.26 1470.75 2149.86 1469.23C2148.47 1467.72 2147.77 1465.7 2147.77 1463.19V1452.49H2151.34V1462.64C2151.34 1464.29 2151.78 1465.6 2152.66 1466.58C2153.56 1467.55 2154.75 1468.04 2156.23 1468.04C2157.33 1468.04 2158.35 1467.77 2159.31 1467.24C2160.28 1466.69 2161.02 1465.96 2161.53 1465.05V1452.49ZM2176.48 1471.51C2175.03 1471.51 2173.59 1471.27 2172.17 1470.78C2170.77 1470.3 2169.61 1469.65 2168.72 1468.84L2170.17 1466.21C2170.9 1466.91 2171.85 1467.48 2173.03 1467.93C2174.21 1468.36 2175.35 1468.58 2176.45 1468.58C2177.52 1468.58 2178.39 1468.34 2179.06 1467.87C2179.74 1467.39 2180.09 1466.78 2180.09 1466.06C2180.09 1465.5 2179.89 1465.03 2179.49 1464.66C2179.09 1464.29 2178.57 1464 2177.94 1463.8C2177.3 1463.59 2176.6 1463.4 2175.83 1463.24C2175.07 1463.07 2174.31 1462.86 2173.53 1462.63C2172.77 1462.38 2172.08 1462.08 2171.44 1461.73C2170.81 1461.37 2170.29 1460.86 2169.89 1460.2C2169.5 1459.53 2169.3 1458.72 2169.3 1457.79C2169.3 1456.1 2169.95 1454.73 2171.26 1453.68C2172.56 1452.63 2174.27 1452.1 2176.37 1452.1C2177.68 1452.1 2178.93 1452.3 2180.14 1452.71C2181.36 1453.12 2182.36 1453.71 2183.15 1454.47L2181.62 1457.14C2180.97 1456.5 2180.1 1456.01 2179.02 1455.64C2177.94 1455.27 2176.94 1455.08 2176.04 1455.08C2175.06 1455.08 2174.29 1455.31 2173.7 1455.76C2173.12 1456.19 2172.82 1456.77 2172.82 1457.49C2172.82 1458 2173.02 1458.43 2173.42 1458.78C2173.82 1459.12 2174.34 1459.39 2174.97 1459.6C2175.61 1459.8 2176.3 1459.99 2177.06 1460.18C2177.83 1460.35 2178.61 1460.58 2179.38 1460.85C2180.15 1461.11 2180.85 1461.44 2181.49 1461.82C2182.12 1462.21 2182.64 1462.75 2183.04 1463.45C2183.43 1464.14 2183.63 1464.97 2183.63 1465.93C2183.63 1467.55 2182.97 1468.89 2181.64 1469.94C2180.3 1470.99 2178.59 1471.51 2176.48 1471.51ZM2204.82 1461C2204.82 1461.35 2204.79 1461.84 2204.74 1462.46H2189.83C2189.99 1464.25 2190.64 1465.68 2191.77 1466.75C2192.92 1467.81 2194.35 1468.34 2196.06 1468.34C2197.25 1468.34 2198.33 1468.09 2199.31 1467.59C2200.3 1467.09 2201.02 1466.43 2201.5 1465.59L2204.32 1467.42C2203.61 1468.69 2202.51 1469.69 2201.03 1470.43C2199.55 1471.15 2197.86 1471.51 2195.95 1471.51C2194.65 1471.51 2193.4 1471.26 2192.22 1470.76C2191.04 1470.27 2190.02 1469.59 2189.16 1468.73C2188.31 1467.86 2187.64 1466.82 2187.14 1465.61C2186.64 1464.39 2186.4 1463.1 2186.4 1461.73C2186.4 1459.96 2186.81 1458.34 2187.65 1456.88C2188.48 1455.4 2189.62 1454.23 2191.08 1453.39C2192.55 1452.53 2194.16 1452.1 2195.92 1452.1C2198.42 1452.1 2200.53 1452.96 2202.24 1454.67C2203.96 1456.39 2204.82 1458.5 2204.82 1461ZM2189.98 1459.79H2201.18C2201.07 1458.39 2200.51 1457.26 2199.5 1456.37C2198.49 1455.49 2197.25 1455.05 2195.77 1455.05C2194.3 1455.05 2193.05 1455.48 2192.01 1456.34C2190.98 1457.19 2190.3 1458.34 2189.98 1459.79Z" fill="white"/>
</g>
<defs>
<filter id="filter0_d_1021_56640" x="2476.71" y="1057.07" width="352.072" height="174.763" filterUnits="userSpaceOnUse" color-interpolation-filters="sRGB">
<feFlood flood-opacity="0" result="BackgroundImageFix"/>
<feColorMatrix in="SourceAlpha" type="matrix" values="0 0 0 0 0 0 0 0 0 0 0 0 0 0 0 0 0 0 127 0" result="hardAlpha"/>
<feOffset dy="32.768"/>
<feGaussianBlur stdDeviation="10.9227"/>
<feComposite in2="hardAlpha" operator="out"/>
<feColorMatrix type="matrix" values="0 0 0 0 0 0 0 0 0 0 0 0 0 0 0 0 0 0 0.1 0"/>
<feBlend mode="normal" in2="BackgroundImageFix" result="effect1_dropShadow_1021_56640"/>
<feBlend mode="normal" in="SourceGraphic" in2="effect1_dropShadow_1021_56640" result="shape"/>
</filter>
<radialGradient id="paint0_radial_1021_56640" cx="0" cy="0" r="1" gradientUnits="userSpaceOnUse" gradientTransform="translate(2048 2048.3) rotate(90) scale(651.629)">
<stop offset="0.742857" stop-color="#111111" stop-opacity="0"/>
<stop offset="1" stop-color="#444444"/>
</radialGradient>
<radialGradient id="paint1_radial_1021_56640" cx="0" cy="0" r="1" gradientUnits="userSpaceOnUse" gradientTransform="translate(2048 2049.42) rotate(90) scale(1118.52 1117.4)">
<stop offset="0.875" stop-color="#111111" stop-opacity="0"/>
<stop offset="1" stop-color="#444444"/>
</radialGradient>
<radialGradient id="paint2_radial_1021_56640" cx="0" cy="0" r="1" gradientUnits="userSpaceOnUse" gradientTransform="translate(2049.12 2049.42) rotate(90) scale(1584.29 1584.29)">
<stop offset="0.917647" stop-color="#111111" stop-opacity="0"/>
<stop offset="1" stop-color="#444444"/>
</radialGradient>
<radialGradient id="paint3_radial_1021_56640" cx="0" cy="0" r="1" gradientUnits="userSpaceOnUse" gradientTransform="translate(2048 2048.3) rotate(90) scale(2048.94 2048.94)">
<stop offset="0.956818" stop-color="#111111" stop-opacity="0"/>
<stop offset="1" stop-color="#444444"/>
</radialGradient>
<radialGradient id="paint4_angular_1021_56640" cx="0" cy="0" r="1" gradientUnits="userSpaceOnUse" gradientTransform="translate(2048 2048.3) rotate(-90) scale(1182.8 1182.8)">
<stop stop-color="white"/>
<stop offset="1" stop-opacity="0"/>
</radialGradient>
<linearGradient id="paint5_linear_1021_56640" x1="175.976" y1="-40.96" x2="-56.1596" y2="17.9596" gradientUnits="userSpaceOnUse">
<stop stop-color="#42F272"/>
<stop offset="1" stop-color="#42F272" stop-opacity="0"/>
</linearGradient>
<linearGradient id="paint6_linear_1021_56640" x1="109.985" y1="-25.6" x2="-35.0998" y2="11.2248" gradientUnits="userSpaceOnUse">
<stop stop-color="#42F272"/>
<stop offset="1" stop-color="#42F272" stop-opacity="0"/>
</linearGradient>
<clipPath id="clip0_1021_56640">
<rect width="4096" height="1709.4" fill="white" transform="translate(0 0.301758)"/>
</clipPath>
</defs>
</svg>
