<svg width="20" height="20" viewBox="0 0 20 20" fill="none" xmlns="http://www.w3.org/2000/svg">
<path d="M16.4 4.83594V10.4271" stroke="black" stroke-width="1.5" stroke-linecap="round" stroke-linejoin="round"/>
<path d="M17.1999 15.2281H12.3999" stroke="black" stroke-width="1.5" stroke-linecap="round" stroke-linejoin="round"/>
<path d="M15.5996 13.625L17.1996 15.225L15.5996 16.825" stroke="black" stroke-width="1.5" stroke-linecap="round" stroke-linejoin="round"/>
<path d="M9.1998 13.6271H4.3998C3.5158 13.6271 2.7998 12.9111 2.7998 12.0271V4.83594" stroke="black" stroke-width="1.5" stroke-linecap="round" stroke-linejoin="round"/>
<path fill-rule="evenodd" clip-rule="evenodd" d="M4.4086 3.22656H14.7918C15.6798 3.22656 16.4006 3.94656 16.4006 4.83536V4.83536C16.4006 5.36896 16.1358 5.86736 15.6942 6.16656L11.4086 9.07136C10.3166 9.81136 8.883 9.81136 7.791 9.07136L3.5062 6.16736C3.0646 5.86816 2.7998 5.36896 2.7998 4.83616V4.83536C2.7998 3.94656 3.5198 3.22656 4.4086 3.22656Z" stroke="black" stroke-width="1.5" stroke-linecap="round" stroke-linejoin="round"/>
</svg>
