<svg width="12" height="12" viewBox="0 0 12 12" fill="none" xmlns="http://www.w3.org/2000/svg">
<path d="M5.4165 3.08464H6.58317V4.2513H5.4165V3.08464ZM5.4165 5.41797H6.58317V8.91797H5.4165V5.41797ZM5.99984 0.167969C2.77984 0.167969 0.166504 2.7813 0.166504 6.0013C0.166504 9.2213 2.77984 11.8346 5.99984 11.8346C9.21984 11.8346 11.8332 9.2213 11.8332 6.0013C11.8332 2.7813 9.21984 0.167969 5.99984 0.167969ZM5.99984 10.668C3.42734 10.668 1.33317 8.5738 1.33317 6.0013C1.33317 3.4288 3.42734 1.33464 5.99984 1.33464C8.57234 1.33464 10.6665 3.4288 10.6665 6.0013C10.6665 8.5738 8.57234 10.668 5.99984 10.668Z" fill="white"/>
</svg>
