<svg width="175" height="50" viewBox="0 0 175 50" fill="none" xmlns="http://www.w3.org/2000/svg">
<path d="M27.0254 23.3861L22.2616 18.679L24.4696 16.4973L27.0254 19.0228L31.3658 14.7341L19.8267 3.3174L2.37436 20.5619L13.9135 31.9785L18.269 27.6898L15.7131 25.1644L17.9211 22.9827L22.685 27.6898L16.1366 34.1603L19.8419 37.8213L37.2941 20.5769L33.5889 16.9157L27.0254 23.3861ZM12.008 21.4884L10.42 19.9193L19.1764 11.2672L20.7644 12.8213L12.008 21.4884ZM33.7402 13.7627L19.8267 0L0 19.5906V30.4095L13.7471 43.9929V44.0078L19.8267 50L39.6534 30.4095V19.5906L33.7402 13.7627ZM38.6704 29.9911L19.8267 48.6103L14.7302 43.5894V41.9606L13.9135 42.7675L0.983017 29.9911V19.994L19.8267 1.37478L32.7571 14.1512V15.7801L33.5738 14.9731L38.6704 19.994V29.9911Z" fill="white"/>
<path d="M62.1893 18.788V20.492C61.5653 19.388 59.9333 18.548 58.2773 18.548C55.0373 18.548 52.5653 21.212 52.5653 24.644C52.5653 28.076 55.0373 30.74 58.2773 30.74C59.9093 30.74 61.5413 29.9 62.1893 28.796V30.5H64.4213V18.788H62.1893ZM58.7093 28.652C56.4533 28.652 54.7253 26.924 54.7253 24.644C54.7253 22.34 56.4533 20.636 58.7093 20.636C60.1493 20.636 61.5653 21.452 62.1893 22.604V26.708C61.5653 27.836 60.1493 28.652 58.7093 28.652ZM73.6302 18.548C71.9982 18.548 70.3662 19.388 69.7182 20.492V18.788H67.4862V34.772H69.7182V28.796C70.3422 29.9 71.9982 30.74 73.6302 30.74C76.8702 30.74 79.3422 28.076 79.3422 24.644C79.3422 21.212 76.8702 18.548 73.6302 18.548ZM73.1982 28.652C71.7582 28.652 70.3422 27.836 69.7182 26.684V22.58C70.3422 21.452 71.7582 20.636 73.1982 20.636C75.4542 20.636 77.1822 22.364 77.1822 24.644C77.1822 26.948 75.4542 28.652 73.1982 28.652ZM87.9271 18.548C86.2951 18.548 84.6631 19.388 84.0151 20.492V18.788H81.7831V34.772H84.0151V28.796C84.6391 29.9 86.2951 30.74 87.9271 30.74C91.1671 30.74 93.6391 28.076 93.6391 24.644C93.6391 21.212 91.1671 18.548 87.9271 18.548ZM87.4951 28.652C86.0551 28.652 84.6391 27.836 84.0151 26.684V22.58C84.6391 21.452 86.0551 20.636 87.4951 20.636C89.7511 20.636 91.4791 22.364 91.4791 24.644C91.4791 26.948 89.7511 28.652 87.4951 28.652ZM102.137 28.46C101.897 28.532 101.537 28.58 101.273 28.58C99.9769 28.58 98.9689 27.692 98.9689 26.18V20.9H102.137V18.788H98.9689V15.62H96.7609V18.788H94.4809V20.9H96.7609V26.276C96.7609 29.06 98.5129 30.644 100.985 30.644C101.441 30.644 101.921 30.548 102.257 30.404L102.137 28.46ZM114.758 24.14C114.758 20.996 112.31 18.548 109.166 18.548C105.806 18.548 103.19 21.212 103.19 24.596C103.19 28.1 105.854 30.74 109.19 30.74C111.59 30.74 113.558 29.756 114.446 28.172L112.67 27.02C112.07 28.076 110.75 28.724 109.262 28.724C107.15 28.724 105.638 27.38 105.374 25.244H114.71C114.734 24.956 114.758 24.404 114.758 24.14ZM105.446 23.372C105.854 21.62 107.246 20.564 109.07 20.564C110.918 20.564 112.262 21.74 112.478 23.372H105.446ZM123.245 18.548C121.661 18.548 120.149 19.316 119.429 20.492V18.788H117.197V30.5H119.429V22.604C120.077 21.452 121.397 20.732 122.741 20.732C124.613 20.732 125.837 22.052 125.837 24.116V30.5H128.045V23.804C128.045 20.612 126.173 18.548 123.245 18.548ZM135.222 30.74C137.886 30.74 139.71 29.252 139.71 27.236C139.71 22.796 132.918 24.308 132.918 21.932C132.918 21.02 133.71 20.42 134.934 20.42C135.99 20.42 137.574 20.876 138.438 21.716L139.398 20.036C138.39 19.052 136.734 18.548 135.15 18.548C132.51 18.548 130.71 19.988 130.71 22.124C130.71 26.444 137.478 24.692 137.478 27.308C137.478 28.196 136.566 28.892 135.198 28.892C133.854 28.892 132.174 28.292 131.262 27.404L130.35 29.06C131.478 30.068 133.398 30.74 135.222 30.74ZM143.263 13.532C142.447 13.532 141.775 14.228 141.775 15.02C141.775 15.836 142.447 16.508 143.263 16.508C144.055 16.508 144.751 15.836 144.751 15.02C144.751 14.228 144.055 13.532 143.263 13.532ZM142.135 18.788V30.5H144.367V18.788H142.135ZM152.856 18.548C149.448 18.548 146.808 21.212 146.808 24.668C146.808 28.1 149.448 30.74 152.856 30.74C156.24 30.74 158.904 28.1 158.904 24.668C158.904 21.212 156.24 18.548 152.856 18.548ZM152.856 20.66C155.04 20.66 156.744 22.388 156.744 24.668C156.744 26.9 155.04 28.628 152.856 28.628C150.648 28.628 148.968 26.9 148.968 24.668C148.968 22.388 150.648 20.66 152.856 20.66ZM167.401 18.548C165.817 18.548 164.305 19.316 163.585 20.492V18.788H161.353V30.5H163.585V22.604C164.233 21.452 165.553 20.732 166.897 20.732C168.769 20.732 169.993 22.052 169.993 24.116V30.5H172.201V23.804C172.201 20.612 170.329 18.548 167.401 18.548Z" fill="white"/>
</svg>
