<svg width="19" height="19" viewBox="0 0 19 19" fill="none" xmlns="http://www.w3.org/2000/svg">
<path fill-rule="evenodd" clip-rule="evenodd" d="M11.7174 17.2224L11.7264 17.2277C13.3674 18.2724 15.5138 18.037 16.8894 16.6614L17.4699 16.0809C18.0097 15.5404 18.0097 14.6647 17.4699 14.1242L15.0241 11.6799C14.4836 11.1401 13.6079 11.1401 13.0674 11.6799C12.8081 11.9395 12.4563 12.0854 12.0894 12.0854C11.7225 12.0854 11.3706 11.9395 11.1114 11.6799L7.19786 7.76564C6.658 7.2251 6.658 6.34943 7.19786 5.80889C7.45745 5.54963 7.60331 5.19779 7.60331 4.83089C7.60331 4.46401 7.45745 4.11217 7.19786 3.85289L4.75286 1.40489C4.21232 0.865035 3.33665 0.865035 2.79611 1.40489L2.21561 1.98539C0.840323 3.36101 0.604638 5.50711 1.64861 7.14839L1.65461 7.15739C4.33467 11.1248 7.75059 14.5415 11.7174 17.2224Z" stroke="white" stroke-linecap="round" stroke-linejoin="round"/>
</svg>
