<svg width="24" height="24" viewBox="0 0 24 24" fill="none" xmlns="http://www.w3.org/2000/svg">
<path d="M11.9906 1.78906C6.19453 1.78672 1.5 6.47891 1.5 12.2703C1.5 16.85 4.43672 20.743 8.52656 22.1727C9.07734 22.3109 8.99297 21.9195 8.99297 21.6523V19.8359C5.8125 20.2086 5.68359 18.1039 5.47031 17.7523C5.03906 17.0164 4.01953 16.8289 4.32422 16.4773C5.04844 16.1047 5.78672 16.5711 6.64219 17.8344C7.26094 18.7508 8.46797 18.5961 9.07969 18.4438C9.21328 17.893 9.49922 17.4008 9.89297 17.0187C6.59766 16.4281 5.22422 14.4172 5.22422 12.0266C5.22422 10.8664 5.60625 9.8 6.35625 8.93984C5.87812 7.52188 6.40078 6.30781 6.47109 6.12734C7.83281 6.00547 9.24844 7.10234 9.35859 7.18906C10.132 6.98047 11.0156 6.87031 12.0047 6.87031C12.9984 6.87031 13.8844 6.98516 14.6648 7.19609C14.9297 6.99453 16.2422 6.05234 17.5078 6.16719C17.5758 6.34766 18.0867 7.53359 17.6367 8.93281C18.3961 9.79531 18.7828 10.8711 18.7828 12.0336C18.7828 14.4289 17.4 16.4422 14.0953 17.0234C14.3784 17.3018 14.6031 17.6338 14.7564 18C14.9098 18.3662 14.9886 18.7593 14.9883 19.1562V21.793C15.007 22.0039 14.9883 22.2125 15.3398 22.2125C19.4906 20.8133 22.4789 16.8922 22.4789 12.2727C22.4789 6.47891 17.782 1.78906 11.9906 1.78906Z" fill="white"/>
</svg>
