<svg width="24" height="24" viewBox="0 0 24 24" fill="none" xmlns="http://www.w3.org/2000/svg">
<path d="M11.9991 7.19445C9.33898 7.19445 7.1921 9.34132 7.1921 12.0015C7.1921 14.6616 9.33898 16.8085 11.9991 16.8085C14.6593 16.8085 16.8062 14.6616 16.8062 12.0015C16.8062 9.34132 14.6593 7.19445 11.9991 7.19445ZM11.9991 15.1257C10.2788 15.1257 8.87492 13.7218 8.87492 12.0015C8.87492 10.2812 10.2788 8.87726 11.9991 8.87726C13.7194 8.87726 15.1234 10.2812 15.1234 12.0015C15.1234 13.7218 13.7194 15.1257 11.9991 15.1257ZM17.003 5.87726C16.3819 5.87726 15.8804 6.37882 15.8804 6.99992C15.8804 7.62101 16.3819 8.12257 17.003 8.12257C17.6241 8.12257 18.1257 7.62335 18.1257 6.99992C18.1259 6.85243 18.097 6.70637 18.0406 6.57008C17.9843 6.43378 17.9016 6.30995 17.7973 6.20567C17.693 6.10138 17.5692 6.01869 17.4329 5.96234C17.2966 5.90599 17.1505 5.87707 17.003 5.87726ZM21.3694 12.0015C21.3694 10.7077 21.3812 9.4257 21.3085 8.13429C21.2359 6.63429 20.8937 5.30304 19.7968 4.20617C18.6976 3.10695 17.3687 2.7671 15.8687 2.69445C14.5749 2.62179 13.2929 2.63351 12.0015 2.63351C10.7077 2.63351 9.4257 2.62179 8.13429 2.69445C6.63429 2.7671 5.30304 3.10929 4.20617 4.20617C3.10695 5.30538 2.7671 6.63429 2.69445 8.13429C2.62179 9.42804 2.63351 10.7101 2.63351 12.0015C2.63351 13.2929 2.62179 14.5773 2.69445 15.8687C2.7671 17.3687 3.10929 18.6999 4.20617 19.7968C5.30538 20.896 6.63429 21.2359 8.13429 21.3085C9.42804 21.3812 10.7101 21.3694 12.0015 21.3694C13.2952 21.3694 14.5773 21.3812 15.8687 21.3085C17.3687 21.2359 18.6999 20.8937 19.7968 19.7968C20.896 18.6976 21.2359 17.3687 21.3085 15.8687C21.3835 14.5773 21.3694 13.2952 21.3694 12.0015ZM19.3069 17.528C19.1359 17.9546 18.9296 18.2734 18.5991 18.6015C18.2687 18.9319 17.9523 19.1382 17.5257 19.3093C16.2929 19.7991 13.3655 19.689 11.9991 19.689C10.6327 19.689 7.70304 19.7991 6.47023 19.3116C6.04367 19.1405 5.72492 18.9343 5.39679 18.6038C5.06632 18.2734 4.86007 17.9569 4.68898 17.5304C4.20148 16.2952 4.31163 13.3679 4.31163 12.0015C4.31163 10.6351 4.20148 7.70538 4.68898 6.47257C4.86007 6.04601 5.06632 5.72726 5.39679 5.39913C5.72726 5.07101 6.04367 4.86242 6.47023 4.69132C7.70304 4.20382 10.6327 4.31398 11.9991 4.31398C13.3655 4.31398 16.2952 4.20382 17.528 4.69132C17.9546 4.86242 18.2734 5.06867 18.6015 5.39913C18.9319 5.7296 19.1382 6.04601 19.3093 6.47257C19.7968 7.70538 19.6866 10.6351 19.6866 12.0015C19.6866 13.3679 19.7968 16.2952 19.3069 17.528Z" fill="white"/>
</svg>
