<svg width="24" height="24" viewBox="0 0 24 24" fill="none" xmlns="http://www.w3.org/2000/svg">
<path d="M20.625 2.625H3.375C2.96016 2.625 2.625 2.96016 2.625 3.375V20.625C2.625 21.0398 2.96016 21.375 3.375 21.375H20.625C21.0398 21.375 21.375 21.0398 21.375 20.625V3.375C21.375 2.96016 21.0398 2.625 20.625 2.625ZM18.4594 8.09766H16.9617C15.7875 8.09766 15.5602 8.65547 15.5602 9.47578V11.2828H18.3633L17.9977 14.1117H15.5602V21.375H12.6375V14.1141H10.193V11.2828H12.6375V9.19687C12.6375 6.77578 14.1164 5.45625 16.2773 5.45625C17.3133 5.45625 18.2016 5.53359 18.4617 5.56875V8.09766H18.4594Z" fill="white"/>
</svg>
