<svg width="24" height="24" viewBox="0 0 24 24" fill="none" xmlns="http://www.w3.org/2000/svg">
<path d="M14.8594 6.89531H19.5352V8.02968H14.8594V6.89531ZM10.1742 11.3836C11.2078 10.8891 11.7492 10.1367 11.7492 8.97421C11.7492 6.675 10.0383 6.11719 8.0625 6.11719H2.625V17.6578H8.21484C10.3102 17.6578 12.2766 16.65 12.2766 14.3062C12.2766 12.8578 11.5922 11.7867 10.1742 11.3836ZM5.16094 8.08593H7.53984C8.45625 8.08593 9.27891 8.3414 9.27891 9.40546C9.27891 10.3851 8.63906 10.7789 7.73203 10.7789H5.16094V8.08593ZM7.86797 15.6984H5.15859V12.5203H7.92188C9.0375 12.5203 9.74297 12.9867 9.74297 14.1679C9.74297 15.3304 8.90156 15.6984 7.86797 15.6984ZM21.3633 13.6008C21.3633 11.1281 19.9172 9.06796 17.3016 9.06796C14.7586 9.06796 13.0289 10.9828 13.0289 13.4929C13.0289 16.0945 14.6672 17.8804 17.3016 17.8804C19.2961 17.8804 20.5875 16.9828 21.2086 15.0679H19.1859C18.9656 15.7828 18.0703 16.1578 17.3742 16.1578C16.0289 16.1578 15.3258 15.3703 15.3258 14.032H21.3469C21.3539 13.8937 21.3633 13.7484 21.3633 13.6008ZM15.3258 12.5836C15.3984 11.4844 16.132 10.7976 17.2289 10.7976C18.382 10.7976 18.9586 11.475 19.0594 12.5836H15.3258Z" fill="white"/>
</svg>
