<svg width="16" height="16" viewBox="0 0 16 16" fill="none" xmlns="http://www.w3.org/2000/svg">
<path fill-rule="evenodd" clip-rule="evenodd" d="M8.0013 2.66683C7.47087 2.66683 6.96216 2.87754 6.58709 3.25262C6.21202 3.62769 6.0013 4.1364 6.0013 4.66683C6.0013 5.19726 6.21202 5.70597 6.58709 6.08104C6.96216 6.45612 7.47087 6.66683 8.0013 6.66683C8.53173 6.66683 9.04044 6.45612 9.41552 6.08104C9.79059 5.70597 10.0013 5.19726 10.0013 4.66683C10.0013 4.1364 9.79059 3.62769 9.41552 3.25262C9.04044 2.87754 8.53173 2.66683 8.0013 2.66683ZM5.64428 2.30981C6.2694 1.68469 7.11725 1.3335 8.0013 1.3335C8.88536 1.3335 9.7332 1.68469 10.3583 2.30981C10.9834 2.93493 11.3346 3.78277 11.3346 4.66683C11.3346 5.55088 10.9834 6.39873 10.3583 7.02385C9.7332 7.64897 8.88536 8.00016 8.0013 8.00016C7.11725 8.00016 6.2694 7.64897 5.64428 7.02385C5.01916 6.39873 4.66797 5.55088 4.66797 4.66683C4.66797 3.78277 5.01916 2.93493 5.64428 2.30981ZM4.23007 10.2289C5.23026 9.22873 6.58681 8.66683 8.0013 8.66683C9.41579 8.66683 10.7723 9.22873 11.7725 10.2289C12.7727 11.2291 13.3346 12.5857 13.3346 14.0002C13.3346 14.3684 13.0362 14.6668 12.668 14.6668H3.33464C3.15782 14.6668 2.98826 14.5966 2.86323 14.4716C2.73821 14.3465 2.66797 14.177 2.66797 14.0002C2.66797 12.5857 3.22987 11.2291 4.23007 10.2289ZM8.0013 10.0002C6.94044 10.0002 5.92302 10.4216 5.17287 11.1717C4.58175 11.7629 4.19474 12.52 4.05723 13.3335H11.9454C11.8079 12.52 11.4209 11.7629 10.8297 11.1717C10.0796 10.4216 9.06217 10.0002 8.0013 10.0002Z" fill="black"/>
</svg>
